<svg xmlns="http://www.w3.org/2000/svg" xmlns:xlink="http://www.w3.org/1999/xlink" width="125.96" height="63.233" viewBox="0 0 125.96 63.233">
  <defs>
    <linearGradient id="linear-gradient" x1="0.306" y1="-0.053" x2="0.793" y2="0.919" gradientUnits="objectBoundingBox">
      <stop offset="0" stop-color="#ffe211"/>
      <stop offset="1" stop-color="#ccff07" stop-opacity="0.282"/>
    </linearGradient>
    <linearGradient id="linear-gradient-2" x1="0.957" y1="1.185" x2="0.235" y2="0.233" gradientUnits="objectBoundingBox">
      <stop offset="0" stop-color="#fff" stop-opacity="0.137"/>
      <stop offset="1" stop-color="#fff"/>
    </linearGradient>
    <linearGradient id="linear-gradient-3" x1="0.15" y1="0.066" x2="0.5" y2="1" gradientUnits="objectBoundingBox">
      <stop offset="0" stop-color="#a194f5"/>
      <stop offset="1" stop-color="#685be8" stop-opacity="0.337"/>
    </linearGradient>
    <linearGradient id="linear-gradient-5" x1="0.832" y1="1" x2="0.121" y2="0.015" gradientUnits="objectBoundingBox">
      <stop offset="0" stop-color="#8ee6fc" stop-opacity="0"/>
      <stop offset="1" stop-color="#55c9f8"/>
    </linearGradient>
    <linearGradient id="linear-gradient-6" x1="0.951" y1="1.185" x2="0.238" y2="0.233" xlink:href="#linear-gradient-2"/>
  </defs>
  <g id="Group_11888" data-name="Group 11888" transform="translate(-729.769 -947.361)">
    <g id="Group-6-Copy" transform="matrix(0.996, -0.087, 0.087, 0.996, 804.366, 956.046)">
      <g id="Group_3494" data-name="Group 3494" transform="translate(0 0)">
        <path id="Combined-Shape" d="M9.774,0H36.815c3.4,0,4.631.354,5.874,1.018A6.928,6.928,0,0,1,45.571,3.9c.665,1.243,1.018,2.475,1.018,5.874V45.191c0,3.4-.354,4.631-1.018,5.874a6.928,6.928,0,0,1-2.882,2.882c-1.243.665-2.475,1.019-5.874,1.019H9.774c-3.4,0-4.631-.354-5.874-1.019a6.928,6.928,0,0,1-2.882-2.882C.354,49.822,0,48.59,0,45.191V9.774C0,6.375.354,5.143,1.018,3.9A6.928,6.928,0,0,1,3.9,1.018C5.143.354,6.375,0,9.774,0Z" transform="translate(4.791 0) rotate(5)" fill-rule="evenodd" fill="url(#linear-gradient)"/>
        <path id="Combined-Shape-2" data-name="Combined-Shape" d="M9.684,12.437A9.573,9.573,0,0,1,19.369,21.9c0,2.612-3.943,3.105-9.684,3.105S0,24.507,0,21.9A9.573,9.573,0,0,1,9.684,12.437ZM9.769,0a5.632,5.632,0,0,1,5.758,5.5,5.632,5.632,0,0,1-5.758,5.5A5.632,5.632,0,0,1,4.011,5.5,5.632,5.632,0,0,1,9.769,0Z" transform="translate(17.375 10.12) rotate(5)" fill-rule="evenodd" fill="url(#linear-gradient-2)"/>
        <path id="Rectangle" d="M1,0h33.59a1,1,0,0,1,0,2.007H1A1,1,0,0,1,1,0Z" transform="translate(6.536 43.664) rotate(5)" fill="#fff" fill-rule="evenodd"/>
        <path id="Rectangle-Copy-5" d="M1,0H24.647a1,1,0,0,1,0,2.007H1A1,1,0,0,1,1,0Z" transform="translate(15.958 48.462) rotate(5)" fill="#fff" fill-rule="evenodd"/>
      </g>
    </g>
    <g id="Group-6-Copy-2" transform="translate(724.5 954.05)">
      <g id="Group_3495" data-name="Group 3495" transform="matrix(0.995, 0.105, -0.105, 0.995, 5.778, 0)">
        <path id="Combined-Shape-3" data-name="Combined-Shape" d="M9.774,0H36.889c3.4,0,4.631.354,5.874,1.018A6.928,6.928,0,0,1,45.645,3.9c.664,1.243,1.018,2.475,1.018,5.874V40.9c0,3.4-.354,4.631-1.018,5.874a6.926,6.926,0,0,1-2.882,2.882c-1.243.665-2.475,1.019-5.874,1.019H9.774c-3.4,0-4.631-.354-5.874-1.019a6.925,6.925,0,0,1-2.882-2.882C.354,45.535,0,44.3,0,40.9V9.774C0,6.375.354,5.143,1.018,3.9A6.928,6.928,0,0,1,3.9,1.018C5.143.354,6.375,0,9.774,0Z" transform="translate(0 4.878) rotate(-6)" fill-rule="evenodd" fill="url(#linear-gradient-3)"/>
        <path id="Combined-Shape-4" data-name="Combined-Shape" d="M9.684,12.487a9.573,9.573,0,0,1,9.684,9.458c0,2.612-3.943,3.105-9.684,3.105H9.47C3.845,25.038,0,24.524,0,21.945A9.573,9.573,0,0,1,9.684,12.487ZM10.229,0a5.632,5.632,0,0,1,5.758,5.5,5.632,5.632,0,0,1-5.758,5.5A5.632,5.632,0,0,1,4.471,5.5,5.632,5.632,0,0,1,10.229,0Z" transform="translate(14.508 12.66) rotate(-6)" fill-rule="evenodd" fill="url(#linear-gradient-2)"/>
        <path id="Rectangle-2" data-name="Rectangle" d="M1,0H34.593a1,1,0,1,1,0,2.007H1A1,1,0,0,1,1,0Z" transform="translate(10.229 43.215) rotate(-6)" fill="#fff" fill-rule="evenodd"/>
        <path id="Rectangle-Copy-5-2" data-name="Rectangle-Copy-5" d="M1,0H24.647a1,1,0,0,1,0,2.007H1A1,1,0,0,1,1,0Z" transform="translate(20.525 45.794) rotate(-6)" fill="#fff" fill-rule="evenodd"/>
      </g>
    </g>
    <g id="Group-6" transform="translate(764.892 947.361)">
      <g id="Group_3496" data-name="Group 3496" transform="translate(0 0)">
        <path id="Combined-Shape-5" data-name="Combined-Shape" d="M11.018,0H41.667c3.831,0,5.22.4,6.621,1.148A7.81,7.81,0,0,1,51.537,4.4c.749,1.4,1.148,2.79,1.148,6.621V48.189c0,3.831-.4,5.221-1.148,6.621a7.811,7.811,0,0,1-3.249,3.249c-1.4.749-2.79,1.148-6.621,1.148H11.018c-3.831,0-5.22-.4-6.621-1.148a7.811,7.811,0,0,1-3.249-3.249C.4,53.41,0,52.021,0,48.189V11.018C0,7.187.4,5.8,1.148,4.4A7.81,7.81,0,0,1,4.4,1.148C5.8.4,7.187,0,11.018,0Z" transform="translate(0 0)" fill-rule="evenodd" fill="url(#linear-gradient-5)"/>
        <path id="Combined-Shape-6" data-name="Combined-Shape" d="M41.531,34.42A11.063,11.063,0,0,1,52.577,45.5c0,3.06-4.5,3.638-11.047,3.638h-.222c-6.428-.013-10.824-.613-10.824-3.638A11.063,11.063,0,0,1,41.531,34.42Zm.3-14.129A6.384,6.384,0,0,1,48.4,26.472a6.58,6.58,0,0,1-13.137,0A6.384,6.384,0,0,1,41.829,20.291Z" transform="translate(-15.188 -10.11)" fill-rule="evenodd" fill="url(#linear-gradient-6)"/>
        <rect id="Rectangle-3" data-name="Rectangle" width="40.222" height="2.007" rx="1.004" transform="translate(6.232 47.357)" fill="#fff"/>
        <rect id="Rectangle-Copy-5-3" data-name="Rectangle-Copy-5" width="28.892" height="2.007" rx="1.004" transform="translate(17.562 51.635)" fill="#fff"/>
      </g>
    </g>
  </g>
</svg>
