<?xml version="1.0" encoding="UTF-8" standalone="no"?>
<!DOCTYPE svg PUBLIC "-//W3C//DTD SVG 1.1//EN"
"http://www.w3.org/Graphics/SVG/1.1/DTD/svg11.dtd">
<svg viewBox="0 0 935 1210" version="1.1" xmlns="http://www.w3.org/2000/svg" xmlns:xlink="http://www.w3.org/1999/xlink">
<defs>
<style type="text/css"><![CDATA[
.g0_2{
}
]]></style>
</defs>
<path fill-rule="evenodd" d="M33.5,116.9h.8v-2.3h-.8v2.3Z" class="g0_2"/>
<path fill-rule="evenodd" d="M33.5,115.3h2.2v-.7H33.5v.7Z" class="g0_2"/>
<path fill-rule="evenodd" d="M35,116.9h.7v-.8H35v.8Z" class="g0_2"/>
<path fill-rule="evenodd" d="M35,116.8h.7v-.7H35v.7Z" class="g0_2"/>
<path fill-rule="evenodd" d="M35.7,115.3H38v-.7H35.7v.7Z" class="g0_2"/>
<path fill-rule="evenodd" d="M35.7,116.8H38v-.7H35.7v.7Z" class="g0_2"/>
<path fill-rule="evenodd" d="M38,115.3H157.4v-.7H38v.7Z" class="g0_2"/>
<path fill-rule="evenodd" d="M38,116.8H157.4v-.7H38v.7Z" class="g0_2"/>
<path fill-rule="evenodd" d="M157.4,116.9h.7v-.1h-.7v.1Z" class="g0_2"/>
<path fill-rule="evenodd" d="M157.4,115.3h2.2v-.7h-2.2v.7Z" class="g0_2"/>
<path fill-rule="evenodd" d="M157.4,116.8h2.2v-.7h-2.2v.7Z" class="g0_2"/>
<path fill-rule="evenodd" d="M159.6,115.3h34.3v-.7H159.6v.7Z" class="g0_2"/>
<path fill-rule="evenodd" d="M159.6,116.8h34.3v-.7H159.6v.7Z" class="g0_2"/>
<path fill-rule="evenodd" d="M193.9,115.3h2.2v-.7h-2.2v.7Z" class="g0_2"/>
<path fill-rule="evenodd" d="M193.9,116.8h2.2v-.7h-2.2v.7Z" class="g0_2"/>
<path fill-rule="evenodd" d="M196.1,115.3H273v-.7H196.1v.7Z" class="g0_2"/>
<path fill-rule="evenodd" d="M196.1,116.8H273v-.7H196.1v.7Z" class="g0_2"/>
<path fill-rule="evenodd" d="M273,116.9h.7v-.1H273v.1Z" class="g0_2"/>
<path fill-rule="evenodd" d="M273,115.3h2.2v-.7H273v.7Z" class="g0_2"/>
<path fill-rule="evenodd" d="M273,116.8h2.2v-.7H273v.7Z" class="g0_2"/>
<path fill-rule="evenodd" d="M275.2,115.3h32v-.7h-32v.7Z" class="g0_2"/>
<path fill-rule="evenodd" d="M275.2,116.8h32v-.7h-32v.7Z" class="g0_2"/>
<path fill-rule="evenodd" d="M307.2,115.3h2.2v-.7h-2.2v.7Z" class="g0_2"/>
<path fill-rule="evenodd" d="M307.2,116.8h2.2v-.7h-2.2v.7Z" class="g0_2"/>
<path fill-rule="evenodd" d="M309.4,115.3H419.5v-.7H309.4v.7Z" class="g0_2"/>
<path fill-rule="evenodd" d="M309.4,116.8H419.5v-.7H309.4v.7Z" class="g0_2"/>
<path fill-rule="evenodd" d="M419.5,116.9h.7v-.1h-.7v.1Z" class="g0_2"/>
<path fill-rule="evenodd" d="M419.5,115.3h2.2v-.7h-2.2v.7Z" class="g0_2"/>
<path fill-rule="evenodd" d="M419.5,116.8h2.2v-.7h-2.2v.7Z" class="g0_2"/>
<path fill-rule="evenodd" d="M421.7,115.3h33.9v-.7H421.7v.7Z" class="g0_2"/>
<path fill-rule="evenodd" d="M421.7,116.8h33.9v-.7H421.7v.7Z" class="g0_2"/>
<path fill-rule="evenodd" d="M455.6,115.3h2.2v-.7h-2.2v.7Z" class="g0_2"/>
<path fill-rule="evenodd" d="M455.6,116.8h2.2v-.7h-2.2v.7Z" class="g0_2"/>
<path fill-rule="evenodd" d="M457.8,115.3h85.4v-.7H457.8v.7Z" class="g0_2"/>
<path fill-rule="evenodd" d="M457.8,116.8h85.4v-.7H457.8v.7Z" class="g0_2"/>
<path fill-rule="evenodd" d="M543.2,116.9h.7v-.1h-.7v.1Z" class="g0_2"/>
<path fill-rule="evenodd" d="M543.2,115.3h2.2v-.7h-2.2v.7Z" class="g0_2"/>
<path fill-rule="evenodd" d="M543.2,116.8h2.2v-.7h-2.2v.7Z" class="g0_2"/>
<path fill-rule="evenodd" d="M545.4,115.3h36.8v-.7H545.4v.7Z" class="g0_2"/>
<path fill-rule="evenodd" d="M545.4,116.8h36.8v-.7H545.4v.7Z" class="g0_2"/>
<path fill-rule="evenodd" d="M582.2,115.3h2.2v-.7h-2.2v.7Z" class="g0_2"/>
<path fill-rule="evenodd" d="M582.2,116.8h2.2v-.7h-2.2v.7Z" class="g0_2"/>
<path fill-rule="evenodd" d="M584.4,115.3H679v-.7H584.4v.7Z" class="g0_2"/>
<path fill-rule="evenodd" d="M584.4,116.8H679v-.7H584.4v.7Z" class="g0_2"/>
<path fill-rule="evenodd" d="M679,116.9h.8v-.1H679v.1Z" class="g0_2"/>
<path fill-rule="evenodd" d="M679,115.3h2.2v-.7H679v.7Z" class="g0_2"/>
<path fill-rule="evenodd" d="M679,116.8h2.2v-.7H679v.7Z" class="g0_2"/>
<path fill-rule="evenodd" d="M681.2,115.3h40.1v-.7H681.2v.7Z" class="g0_2"/>
<path fill-rule="evenodd" d="M681.2,116.8h40.1v-.7H681.2v.7Z" class="g0_2"/>
<path fill-rule="evenodd" d="M721.3,115.3h2.2v-.7h-2.2v.7Z" class="g0_2"/>
<path fill-rule="evenodd" d="M721.3,116.8h2.2v-.7h-2.2v.7Z" class="g0_2"/>
<path fill-rule="evenodd" d="M723.5,115.3H911.1v-.7H723.5v.7Z" class="g0_2"/>
<path fill-rule="evenodd" d="M723.5,116.8H911.1v-.7H723.5v.7Z" class="g0_2"/>
<path fill-rule="evenodd" d="M912.5,116.9h.8v-.1h-.8v.1Z" class="g0_2"/>
<path fill-rule="evenodd" d="M911.1,116.9h.7v-.1h-.7v.1Z" class="g0_2"/>
<path fill-rule="evenodd" d="M911.1,115.3h2.2v-.7h-2.2v.7Z" class="g0_2"/>
<path fill-rule="evenodd" d="M911.1,116.8h.7v-.7h-.7v.7Z" class="g0_2"/>
<path fill-rule="evenodd" d="M912.5,116.8h.8v-.7h-.8v.7Z" class="g0_2"/>
<path fill-rule="evenodd" d="M35,154.1h.7V116.9H35v37.2Z" class="g0_2"/>
<path fill-rule="evenodd" d="M33.5,154.1h.8V116.9h-.8v37.2Z" class="g0_2"/>
<path fill-rule="evenodd" d="M157.4,154.1h.7V116.9h-.7v37.2Z" class="g0_2"/>
<path fill-rule="evenodd" d="M273,154.1h.7V116.9H273v37.2Z" class="g0_2"/>
<path fill-rule="evenodd" d="M419.5,154.1h.7V116.9h-.7v37.2Z" class="g0_2"/>
<path fill-rule="evenodd" d="M543.2,154.1h.7V116.9h-.7v37.2Z" class="g0_2"/>
<path fill-rule="evenodd" d="M679,154.1h.8V116.9H679v37.2Z" class="g0_2"/>
<path fill-rule="evenodd" d="M912.5,154.1h.8V116.9h-.8v37.2Z" class="g0_2"/>
<path fill-rule="evenodd" d="M911.1,154.1h.7V116.9h-.7v37.2Z" class="g0_2"/>
<path fill-rule="evenodd" d="M35,154.8h.7v-.7H35v.7Z" class="g0_2"/>
<path fill-rule="evenodd" d="M33.5,154.8h.8v-.7h-.8v.7Z" class="g0_2"/>
<path fill-rule="evenodd" d="M35.7,154.8H157.4v-.7H35.7v.7Z" class="g0_2"/>
<path fill-rule="evenodd" d="M157.4,154.8h.7v-.7h-.7v.7Z" class="g0_2"/>
<path fill-rule="evenodd" d="M158.1,154.8h35.8v-.7H158.1v.7Z" class="g0_2"/>
<path fill-rule="evenodd" d="M193.9,154.8h.7v-.7h-.7v.7Z" class="g0_2"/>
<path fill-rule="evenodd" d="M194.6,154.8H273v-.7H194.6v.7Z" class="g0_2"/>
<path fill-rule="evenodd" d="M273,154.8h.7v-.7H273v.7Z" class="g0_2"/>
<path fill-rule="evenodd" d="M273.7,154.8h33.5v-.7H273.7v.7Z" class="g0_2"/>
<path fill-rule="evenodd" d="M307.2,154.8h.7v-.7h-.7v.7Z" class="g0_2"/>
<path fill-rule="evenodd" d="M307.9,154.8H419.5v-.7H307.9v.7Z" class="g0_2"/>
<path fill-rule="evenodd" d="M419.5,154.8h.7v-.7h-.7v.7Z" class="g0_2"/>
<path fill-rule="evenodd" d="M420.2,154.8h35.4v-.7H420.2v.7Z" class="g0_2"/>
<path fill-rule="evenodd" d="M455.6,154.8h.7v-.7h-.7v.7Z" class="g0_2"/>
<path fill-rule="evenodd" d="M456.3,154.8h86.9v-.7H456.3v.7Z" class="g0_2"/>
<path fill-rule="evenodd" d="M543.2,154.8h.7v-.7h-.7v.7Z" class="g0_2"/>
<path fill-rule="evenodd" d="M543.9,154.8h38.3v-.7H543.9v.7Z" class="g0_2"/>
<path fill-rule="evenodd" d="M582.2,154.8h.8v-.7h-.8v.7Z" class="g0_2"/>
<path fill-rule="evenodd" d="M583,154.8h96v-.7H583v.7Z" class="g0_2"/>
<path fill-rule="evenodd" d="M679,154.8h.8v-.7H679v.7Z" class="g0_2"/>
<path fill-rule="evenodd" d="M679.8,154.8h41.5v-.7H679.8v.7Z" class="g0_2"/>
<path fill-rule="evenodd" d="M721.3,154.8h.7v-.7h-.7v.7Z" class="g0_2"/>
<path fill-rule="evenodd" d="M722,154.8H911.1v-.7H722v.7Z" class="g0_2"/>
<path fill-rule="evenodd" d="M912.5,154.8h.8v-.7h-.8v.7Z" class="g0_2"/>
<path fill-rule="evenodd" d="M911.1,154.8h.7v-.7h-.7v.7Z" class="g0_2"/>
<path fill-rule="evenodd" d="M35,194.6h.7V154.8H35v39.8Z" class="g0_2"/>
<path fill-rule="evenodd" d="M33.5,194.6h.8V154.8h-.8v39.8Z" class="g0_2"/>
<path fill-rule="evenodd" d="M157.4,194.6h.7V154.8h-.7v39.8Z" class="g0_2"/>
<path fill-rule="evenodd" d="M273,194.6h.7V154.8H273v39.8Z" class="g0_2"/>
<path fill-rule="evenodd" d="M419.5,194.6h.7V154.8h-.7v39.8Z" class="g0_2"/>
<path fill-rule="evenodd" d="M543.2,194.6h.7V154.8h-.7v39.8Z" class="g0_2"/>
<path fill-rule="evenodd" d="M679,194.6h.8V154.8H679v39.8Z" class="g0_2"/>
<path fill-rule="evenodd" d="M912.5,194.6h.8V154.8h-.8v39.8Z" class="g0_2"/>
<path fill-rule="evenodd" d="M911.1,194.6h.7V154.8h-.7v39.8Z" class="g0_2"/>
<path fill-rule="evenodd" d="M35,195.3h.7v-.7H35v.7Z" class="g0_2"/>
<path fill-rule="evenodd" d="M33.5,195.3h.8v-.7h-.8v.7Z" class="g0_2"/>
<path fill-rule="evenodd" d="M35.7,195.3H157.4v-.7H35.7v.7Z" class="g0_2"/>
<path fill-rule="evenodd" d="M157.4,195.3h.7v-.7h-.7v.7Z" class="g0_2"/>
<path fill-rule="evenodd" d="M158.1,195.3h35.8v-.7H158.1v.7Z" class="g0_2"/>
<path fill-rule="evenodd" d="M193.9,195.3h.7v-.7h-.7v.7Z" class="g0_2"/>
<path fill-rule="evenodd" d="M194.6,195.3H273v-.7H194.6v.7Z" class="g0_2"/>
<path fill-rule="evenodd" d="M273,195.3h.7v-.7H273v.7Z" class="g0_2"/>
<path fill-rule="evenodd" d="M273.7,195.3h33.5v-.7H273.7v.7Z" class="g0_2"/>
<path fill-rule="evenodd" d="M307.2,195.3h.7v-.7h-.7v.7Z" class="g0_2"/>
<path fill-rule="evenodd" d="M307.9,195.3H419.5v-.7H307.9v.7Z" class="g0_2"/>
<path fill-rule="evenodd" d="M419.5,195.3h.7v-.7h-.7v.7Z" class="g0_2"/>
<path fill-rule="evenodd" d="M420.2,195.3h35.4v-.7H420.2v.7Z" class="g0_2"/>
<path fill-rule="evenodd" d="M455.6,195.3h.7v-.7h-.7v.7Z" class="g0_2"/>
<path fill-rule="evenodd" d="M456.3,195.3h86.9v-.7H456.3v.7Z" class="g0_2"/>
<path fill-rule="evenodd" d="M543.2,195.3h.7v-.7h-.7v.7Z" class="g0_2"/>
<path fill-rule="evenodd" d="M543.9,195.3h38.3v-.7H543.9v.7Z" class="g0_2"/>
<path fill-rule="evenodd" d="M582.2,195.3h.8v-.7h-.8v.7Z" class="g0_2"/>
<path fill-rule="evenodd" d="M583,195.3h96v-.7H583v.7Z" class="g0_2"/>
<path fill-rule="evenodd" d="M679,195.3h.8v-.7H679v.7Z" class="g0_2"/>
<path fill-rule="evenodd" d="M679.8,195.3h41.5v-.7H679.8v.7Z" class="g0_2"/>
<path fill-rule="evenodd" d="M721.3,195.3h.7v-.7h-.7v.7Z" class="g0_2"/>
<path fill-rule="evenodd" d="M722,195.3H911.1v-.7H722v.7Z" class="g0_2"/>
<path fill-rule="evenodd" d="M912.5,195.3h.8v-.7h-.8v.7Z" class="g0_2"/>
<path fill-rule="evenodd" d="M911.1,195.3h.7v-.7h-.7v.7Z" class="g0_2"/>
<path fill-rule="evenodd" d="M35,227.5h.7V195.3H35v32.2Z" class="g0_2"/>
<path fill-rule="evenodd" d="M33.5,227.5h.8V195.3h-.8v32.2Z" class="g0_2"/>
<path fill-rule="evenodd" d="M273,227.5h.7V195.3H273v32.2Z" class="g0_2"/>
<path fill-rule="evenodd" d="M912.5,227.5h.8V195.3h-.8v32.2Z" class="g0_2"/>
<path fill-rule="evenodd" d="M911.1,227.5h.7V195.3h-.7v32.2Z" class="g0_2"/>
<path fill-rule="evenodd" d="M35,228.2h.7v-.7H35v.7Z" class="g0_2"/>
<path fill-rule="evenodd" d="M33.5,228.2h.8v-.7h-.8v.7Z" class="g0_2"/>
<path fill-rule="evenodd" d="M35.7,228.2H273v-.7H35.7v.7Z" class="g0_2"/>
<path fill-rule="evenodd" d="M273,228.2h.7v-.7H273v.7Z" class="g0_2"/>
<path fill-rule="evenodd" d="M273.7,228.2H911.1v-.7H273.7v.7Z" class="g0_2"/>
<path fill-rule="evenodd" d="M912.5,228.2h.8v-.7h-.8v.7Z" class="g0_2"/>
<path fill-rule="evenodd" d="M911.1,228.2h.7v-.7h-.7v.7Z" class="g0_2"/>
<path fill-rule="evenodd" d="M35,260.8h.7V228.2H35v32.6Z" class="g0_2"/>
<path fill-rule="evenodd" d="M33.5,260.8h.8V228.2h-.8v32.6Z" class="g0_2"/>
<path fill-rule="evenodd" d="M273,260.8h.7V228.2H273v32.6Z" class="g0_2"/>
<path fill-rule="evenodd" d="M912.5,260.8h.8V228.2h-.8v32.6Z" class="g0_2"/>
<path fill-rule="evenodd" d="M911.1,260.8h.7V228.2h-.7v32.6Z" class="g0_2"/>
<path fill-rule="evenodd" d="M33.5,263h.8v-2.2h-.8V263Z" class="g0_2"/>
<path fill-rule="evenodd" d="M33.5,263h2.2v-.7H33.5v.7Z" class="g0_2"/>
<path fill-rule="evenodd" d="M35,261.6h.7v-.8H35v.8Z" class="g0_2"/>
<path fill-rule="evenodd" d="M35,261.6h.7v-.8H35v.8Z" class="g0_2"/>
<path fill-rule="evenodd" d="M35.7,261.6H38v-.8H35.7v.8Z" class="g0_2"/>
<path fill-rule="evenodd" d="M35.7,263H38v-.7H35.7v.7Z" class="g0_2"/>
<path fill-rule="evenodd" d="M38,261.6H273v-.8H38v.8Z" class="g0_2"/>
<path fill-rule="evenodd" d="M38,263H273v-.7H38v.7Z" class="g0_2"/>
<path fill-rule="evenodd" d="M273,261.6h2.2v-.8H273v.8Z" class="g0_2"/>
<path fill-rule="evenodd" d="M273,263h2.2v-.7H273v.7Z" class="g0_2"/>
<path fill-rule="evenodd" d="M275.2,261.6H911.1v-.8H275.2v.8Z" class="g0_2"/>
<path fill-rule="evenodd" d="M275.2,263H911.1v-.7H275.2v.7Z" class="g0_2"/>
<path fill-rule="evenodd" d="M912.5,263h.8v-2.2h-.8V263Z" class="g0_2"/>
<path fill-rule="evenodd" d="M911.1,263h2.2v-.7h-2.2v.7Z" class="g0_2"/>
<path fill-rule="evenodd" d="M911.1,261.6h.7v-.8h-.7v.8Z" class="g0_2"/>
<path fill-rule="evenodd" d="M911.1,261.6h.7v-.8h-.7v.8Z" class="g0_2"/>
<path fill-rule="evenodd" d="M34.7,314.9H912.2v-.7H34.7v.7Z" class="g0_2"/>
<path fill-rule="evenodd" d="M34.3,341.7H35v-.8h-.7v.8Z" class="g0_2"/>
<path fill-rule="evenodd" d="M34.3,341.7H35v-.8h-.7v.8Z" class="g0_2"/>
<path fill-rule="evenodd" d="M35,341.7h.7v-.8H35v.8Z" class="g0_2"/>
<path fill-rule="evenodd" d="M35.7,341.7H68.8v-.8H35.7v.8Z" class="g0_2"/>
<path fill-rule="evenodd" d="M68.8,341.7h.7v-.8h-.7v.8Z" class="g0_2"/>
<path fill-rule="evenodd" d="M69.5,341.7H176.6v-.8H69.5v.8Z" class="g0_2"/>
<path fill-rule="evenodd" d="M176.6,341.7h.7v-.8h-.7v.8Z" class="g0_2"/>
<path fill-rule="evenodd" d="M177.3,341.7h33.6v-.8H177.3v.8Z" class="g0_2"/>
<path fill-rule="evenodd" d="M210.9,341.7h.7v-.8h-.7v.8Z" class="g0_2"/>
<path fill-rule="evenodd" d="M211.6,341.7h113v-.8h-113v.8Z" class="g0_2"/>
<path fill-rule="evenodd" d="M324.6,341.7h.8v-.8h-.8v.8Z" class="g0_2"/>
<path fill-rule="evenodd" d="M325.4,341.7h33.4v-.8H325.4v.8Z" class="g0_2"/>
<path fill-rule="evenodd" d="M358.8,341.7h.7v-.8h-.7v.8Z" class="g0_2"/>
<path fill-rule="evenodd" d="M359.5,341.7H473.1v-.8H359.5v.8Z" class="g0_2"/>
<path fill-rule="evenodd" d="M473.1,341.7h.8v-.8h-.8v.8Z" class="g0_2"/>
<path fill-rule="evenodd" d="M473.9,341.7h33.7v-.8H473.9v.8Z" class="g0_2"/>
<path fill-rule="evenodd" d="M507.6,341.7h.8v-.8h-.8v.8Z" class="g0_2"/>
<path fill-rule="evenodd" d="M508.4,341.7h111v-.8h-111v.8Z" class="g0_2"/>
<path fill-rule="evenodd" d="M619.4,341.7h.7v-.8h-.7v.8Z" class="g0_2"/>
<path fill-rule="evenodd" d="M620.1,341.7h33.5v-.8H620.1v.8Z" class="g0_2"/>
<path fill-rule="evenodd" d="M653.6,341.7h.7v-.8h-.7v.8Z" class="g0_2"/>
<path fill-rule="evenodd" d="M654.3,341.7H765.8v-.8H654.3v.8Z" class="g0_2"/>
<path fill-rule="evenodd" d="M765.8,341.7h.8v-.8h-.8v.8Z" class="g0_2"/>
<path fill-rule="evenodd" d="M766.6,341.7H800v-.8H766.6v.8Z" class="g0_2"/>
<path fill-rule="evenodd" d="M800,341.7h.8v-.8H800v.8Z" class="g0_2"/>
<path fill-rule="evenodd" d="M800.8,341.7h111v-.8h-111v.8Z" class="g0_2"/>
<path fill-rule="evenodd" d="M911.8,341.7h.7v-.8h-.7v.8Z" class="g0_2"/>
<path fill-rule="evenodd" d="M34.3,370.6H35V341.7h-.7v28.9Z" class="g0_2"/>
<path fill-rule="evenodd" d="M176.6,370.6h.7V341.7h-.7v28.9Z" class="g0_2"/>
<path fill-rule="evenodd" d="M324.6,370.6h.8V341.7h-.8v28.9Z" class="g0_2"/>
<path fill-rule="evenodd" d="M473.1,370.6h.8V341.7h-.8v28.9Z" class="g0_2"/>
<path fill-rule="evenodd" d="M619.4,370.6h.7V341.7h-.7v28.9Z" class="g0_2"/>
<path fill-rule="evenodd" d="M765.8,370.6h.8V341.7h-.8v28.9Z" class="g0_2"/>
<path fill-rule="evenodd" d="M911.8,370.6h.7V341.7h-.7v28.9Z" class="g0_2"/>
<path fill-rule="evenodd" d="M34.3,371.4H35v-.8h-.7v.8Z" class="g0_2"/>
<path fill-rule="evenodd" d="M35,371.4H68.8v-.8H35v.8Z" class="g0_2"/>
<path fill-rule="evenodd" d="M68.8,371.4h.7v-.8h-.7v.8Z" class="g0_2"/>
<path fill-rule="evenodd" d="M69.5,371.4H176.6v-.8H69.5v.8Z" class="g0_2"/>
<path fill-rule="evenodd" d="M176.6,371.4h.7v-.8h-.7v.8Z" class="g0_2"/>
<path fill-rule="evenodd" d="M177.3,371.4h33.6v-.8H177.3v.8Z" class="g0_2"/>
<path fill-rule="evenodd" d="M210.9,371.4h.7v-.8h-.7v.8Z" class="g0_2"/>
<path fill-rule="evenodd" d="M211.6,371.4h113v-.8h-113v.8Z" class="g0_2"/>
<path fill-rule="evenodd" d="M324.6,371.4h.8v-.8h-.8v.8Z" class="g0_2"/>
<path fill-rule="evenodd" d="M325.4,371.4h33.4v-.8H325.4v.8Z" class="g0_2"/>
<path fill-rule="evenodd" d="M358.8,371.4h.7v-.8h-.7v.8Z" class="g0_2"/>
<path fill-rule="evenodd" d="M359.5,371.4H473.1v-.8H359.5v.8Z" class="g0_2"/>
<path fill-rule="evenodd" d="M473.1,371.4h.8v-.8h-.8v.8Z" class="g0_2"/>
<path fill-rule="evenodd" d="M473.9,371.4h33.7v-.8H473.9v.8Z" class="g0_2"/>
<path fill-rule="evenodd" d="M507.6,371.4h.8v-.8h-.8v.8Z" class="g0_2"/>
<path fill-rule="evenodd" d="M508.4,371.4h111v-.8h-111v.8Z" class="g0_2"/>
<path fill-rule="evenodd" d="M619.4,371.4h.7v-.8h-.7v.8Z" class="g0_2"/>
<path fill-rule="evenodd" d="M620.1,371.4h33.5v-.8H620.1v.8Z" class="g0_2"/>
<path fill-rule="evenodd" d="M653.6,371.4h.7v-.8h-.7v.8Z" class="g0_2"/>
<path fill-rule="evenodd" d="M654.3,371.4H765.8v-.8H654.3v.8Z" class="g0_2"/>
<path fill-rule="evenodd" d="M765.8,371.4h.8v-.8h-.8v.8Z" class="g0_2"/>
<path fill-rule="evenodd" d="M766.6,371.4H800v-.8H766.6v.8Z" class="g0_2"/>
<path fill-rule="evenodd" d="M800,371.4h.8v-.8H800v.8Z" class="g0_2"/>
<path fill-rule="evenodd" d="M800.8,371.4h111v-.8h-111v.8Z" class="g0_2"/>
<path fill-rule="evenodd" d="M911.8,371.4h.7v-.8h-.7v.8Z" class="g0_2"/>
<path fill-rule="evenodd" d="M34.3,400.4H35v-29h-.7v29Z" class="g0_2"/>
<path fill-rule="evenodd" d="M176.6,400.4h.7v-29h-.7v29Z" class="g0_2"/>
<path fill-rule="evenodd" d="M324.6,400.4h.8v-29h-.8v29Z" class="g0_2"/>
<path fill-rule="evenodd" d="M473.1,400.4h.8v-29h-.8v29Z" class="g0_2"/>
<path fill-rule="evenodd" d="M619.4,400.4h.7v-29h-.7v29Z" class="g0_2"/>
<path fill-rule="evenodd" d="M765.8,400.4h.8v-29h-.8v29Z" class="g0_2"/>
<path fill-rule="evenodd" d="M911.8,400.4h.7v-29h-.7v29Z" class="g0_2"/>
<path fill-rule="evenodd" d="M34.3,401.2H35v-.8h-.7v.8Z" class="g0_2"/>
<path fill-rule="evenodd" d="M34.3,401.2H35v-.8h-.7v.8Z" class="g0_2"/>
<path fill-rule="evenodd" d="M35,401.2h.7v-.8H35v.8Z" class="g0_2"/>
<path fill-rule="evenodd" d="M35.7,401.2H68.8v-.8H35.7v.8Z" class="g0_2"/>
<path fill-rule="evenodd" d="M68.8,401.2h.7v-.8h-.7v.8Z" class="g0_2"/>
<path fill-rule="evenodd" d="M69.5,401.2H176.6v-.8H69.5v.8Z" class="g0_2"/>
<path fill-rule="evenodd" d="M176.6,401.2h.7v-.8h-.7v.8Z" class="g0_2"/>
<path fill-rule="evenodd" d="M177.3,401.2h33.6v-.8H177.3v.8Z" class="g0_2"/>
<path fill-rule="evenodd" d="M210.9,401.2h.7v-.8h-.7v.8Z" class="g0_2"/>
<path fill-rule="evenodd" d="M211.6,401.2h113v-.8h-113v.8Z" class="g0_2"/>
<path fill-rule="evenodd" d="M324.6,401.2h.8v-.8h-.8v.8Z" class="g0_2"/>
<path fill-rule="evenodd" d="M325.4,401.2h33.4v-.8H325.4v.8Z" class="g0_2"/>
<path fill-rule="evenodd" d="M358.8,401.2h.7v-.8h-.7v.8Z" class="g0_2"/>
<path fill-rule="evenodd" d="M359.5,401.2H473.1v-.8H359.5v.8Z" class="g0_2"/>
<path fill-rule="evenodd" d="M473.1,401.2h.8v-.8h-.8v.8Z" class="g0_2"/>
<path fill-rule="evenodd" d="M473.9,401.2h33.7v-.8H473.9v.8Z" class="g0_2"/>
<path fill-rule="evenodd" d="M507.6,401.2h.8v-.8h-.8v.8Z" class="g0_2"/>
<path fill-rule="evenodd" d="M508.4,401.2h111v-.8h-111v.8Z" class="g0_2"/>
<path fill-rule="evenodd" d="M619.4,401.2h.7v-.8h-.7v.8Z" class="g0_2"/>
<path fill-rule="evenodd" d="M620.1,401.2h33.5v-.8H620.1v.8Z" class="g0_2"/>
<path fill-rule="evenodd" d="M653.6,401.2h.7v-.8h-.7v.8Z" class="g0_2"/>
<path fill-rule="evenodd" d="M654.3,401.2H765.8v-.8H654.3v.8Z" class="g0_2"/>
<path fill-rule="evenodd" d="M765.8,401.2h.8v-.8h-.8v.8Z" class="g0_2"/>
<path fill-rule="evenodd" d="M766.6,401.2H800v-.8H766.6v.8Z" class="g0_2"/>
<path fill-rule="evenodd" d="M800,401.2h.8v-.8H800v.8Z" class="g0_2"/>
<path fill-rule="evenodd" d="M800.8,401.2h111v-.8h-111v.8Z" class="g0_2"/>
<path fill-rule="evenodd" d="M911.8,401.2h.7v-.8h-.7v.8Z" class="g0_2"/>
<path fill-rule="evenodd" d="M911.8,401.2h.7v-.8h-.7v.8Z" class="g0_2"/>
<path fill-rule="evenodd" d="M34.7,468.5H912.2v-.7H34.7v.7Z" class="g0_2"/>
<path fill-rule="evenodd" d="M34.3,501.3H35v-.8h-.7v.8Z" class="g0_2"/>
<path fill-rule="evenodd" d="M34.3,501.3H35v-.8h-.7v.8Z" class="g0_2"/>
<path fill-rule="evenodd" d="M35,501.3h.7v-.8H35v.8Z" class="g0_2"/>
<path fill-rule="evenodd" d="M35.7,501.3h85.4v-.8H35.7v.8Z" class="g0_2"/>
<path fill-rule="evenodd" d="M121.1,501.3h.7v-.8h-.7v.8Z" class="g0_2"/>
<path fill-rule="evenodd" d="M121.8,501.3h790v-.8h-790v.8Z" class="g0_2"/>
<path fill-rule="evenodd" d="M911.8,501.3h.7v-.8h-.7v.8Z" class="g0_2"/>
<path fill-rule="evenodd" d="M34.3,541.6H35V501.3h-.7v40.3Z" class="g0_2"/>
<path fill-rule="evenodd" d="M121.1,541.6h.7V501.3h-.7v40.3Z" class="g0_2"/>
<path fill-rule="evenodd" d="M911.8,541.6h.7V501.3h-.7v40.3Z" class="g0_2"/>
<path fill-rule="evenodd" d="M34.3,543.9H35v-2.3h-.7v2.3Z" class="g0_2"/>
<path fill-rule="evenodd" d="M35,542.3h86.1v-.7H35v.7Z" class="g0_2"/>
<path fill-rule="evenodd" d="M35,543.8h86.1v-.7H35v.7Z" class="g0_2"/>
<path fill-rule="evenodd" d="M121.1,543.9h.7v-.1h-.7v.1Z" class="g0_2"/>
<path fill-rule="evenodd" d="M121.1,542.3h2.2v-.7h-2.2v.7Z" class="g0_2"/>
<path fill-rule="evenodd" d="M121.1,543.8h2.2v-.7h-2.2v.7Z" class="g0_2"/>
<path fill-rule="evenodd" d="M123.3,542.3h40.9v-.7H123.3v.7Z" class="g0_2"/>
<path fill-rule="evenodd" d="M123.3,543.8h40.9v-.7H123.3v.7Z" class="g0_2"/>
<path fill-rule="evenodd" d="M164.2,543.9h.7v-.1h-.7v.1Z" class="g0_2"/>
<path fill-rule="evenodd" d="M164.2,542.3h2.2v-.7h-2.2v.7Z" class="g0_2"/>
<path fill-rule="evenodd" d="M164.2,543.8h2.2v-.7h-2.2v.7Z" class="g0_2"/>
<path fill-rule="evenodd" d="M166.4,542.3H911.8v-.7H166.4v.7Z" class="g0_2"/>
<path fill-rule="evenodd" d="M166.4,543.8H911.8v-.7H166.4v.7Z" class="g0_2"/>
<path fill-rule="evenodd" d="M911.8,543.9h.7v-2.3h-.7v2.3Z" class="g0_2"/>
<path fill-rule="evenodd" d="M34.3,584.2H35V543.9h-.7v40.3Z" class="g0_2"/>
<path fill-rule="evenodd" d="M121.1,584.2h.7V543.9h-.7v40.3Z" class="g0_2"/>
<path fill-rule="evenodd" d="M164.2,584.2h.7V543.9h-.7v40.3Z" class="g0_2"/>
<path fill-rule="evenodd" d="M911.8,584.2h.7V543.9h-.7v40.3Z" class="g0_2"/>
<path fill-rule="evenodd" d="M34.3,585H35v-.8h-.7v.8Z" class="g0_2"/>
<path fill-rule="evenodd" d="M121.1,585h.7v-.8h-.7v.8Z" class="g0_2"/>
<path fill-rule="evenodd" d="M121.8,585h42.4v-.8H121.8v.8Z" class="g0_2"/>
<path fill-rule="evenodd" d="M164.2,585h.7v-.8h-.7v.8Z" class="g0_2"/>
<path fill-rule="evenodd" d="M164.9,585H911.8v-.8H164.9v.8Z" class="g0_2"/>
<path fill-rule="evenodd" d="M911.8,585h.7v-.8h-.7v.8Z" class="g0_2"/>
<path fill-rule="evenodd" d="M34.3,611.3H35V585h-.7v26.3Z" class="g0_2"/>
<path fill-rule="evenodd" d="M121.1,611.3h.7V585h-.7v26.3Z" class="g0_2"/>
<path fill-rule="evenodd" d="M164.2,611.3h.7V585h-.7v26.3Z" class="g0_2"/>
<path fill-rule="evenodd" d="M911.8,611.3h.7V585h-.7v26.3Z" class="g0_2"/>
<path fill-rule="evenodd" d="M34.3,612H35v-.7h-.7v.7Z" class="g0_2"/>
<path fill-rule="evenodd" d="M121.1,612h.7v-.7h-.7v.7Z" class="g0_2"/>
<path fill-rule="evenodd" d="M121.8,612h42.4v-.7H121.8v.7Z" class="g0_2"/>
<path fill-rule="evenodd" d="M164.2,612h.7v-.7h-.7v.7Z" class="g0_2"/>
<path fill-rule="evenodd" d="M164.9,612H911.8v-.7H164.9v.7Z" class="g0_2"/>
<path fill-rule="evenodd" d="M911.8,612h.7v-.7h-.7v.7Z" class="g0_2"/>
<path fill-rule="evenodd" d="M34.3,638.3H35V612h-.7v26.3Z" class="g0_2"/>
<path fill-rule="evenodd" d="M121.1,638.3h.7V612h-.7v26.3Z" class="g0_2"/>
<path fill-rule="evenodd" d="M164.2,638.3h.7V612h-.7v26.3Z" class="g0_2"/>
<path fill-rule="evenodd" d="M911.8,638.3h.7V612h-.7v26.3Z" class="g0_2"/>
<path fill-rule="evenodd" d="M34.3,640.6H35v-2.3h-.7v2.3Z" class="g0_2"/>
<path fill-rule="evenodd" d="M35,639.1h86.1v-.8H35v.8Z" class="g0_2"/>
<path fill-rule="evenodd" d="M35,640.5h86.1v-.7H35v.7Z" class="g0_2"/>
<path fill-rule="evenodd" d="M121.1,640.6h.7v-.1h-.7v.1Z" class="g0_2"/>
<path fill-rule="evenodd" d="M121.1,639.1h2.2v-.8h-2.2v.8Z" class="g0_2"/>
<path fill-rule="evenodd" d="M121.1,640.5h2.2v-.7h-2.2v.7Z" class="g0_2"/>
<path fill-rule="evenodd" d="M123.3,639.1h40.9v-.8H123.3v.8Z" class="g0_2"/>
<path fill-rule="evenodd" d="M123.3,640.5h40.9v-.7H123.3v.7Z" class="g0_2"/>
<path fill-rule="evenodd" d="M164.2,640.6h.7v-.1h-.7v.1Z" class="g0_2"/>
<path fill-rule="evenodd" d="M164.2,639.1h2.2v-.8h-2.2v.8Z" class="g0_2"/>
<path fill-rule="evenodd" d="M164.2,640.5h2.2v-.7h-2.2v.7Z" class="g0_2"/>
<path fill-rule="evenodd" d="M166.4,639.1H911.8v-.8H166.4v.8Z" class="g0_2"/>
<path fill-rule="evenodd" d="M166.4,640.5H911.8v-.7H166.4v.7Z" class="g0_2"/>
<path fill-rule="evenodd" d="M911.8,640.6h.7v-2.3h-.7v2.3Z" class="g0_2"/>
<path fill-rule="evenodd" d="M34.3,666.9H35V640.6h-.7v26.3Z" class="g0_2"/>
<path fill-rule="evenodd" d="M121.1,666.9h.7V640.6h-.7v26.3Z" class="g0_2"/>
<path fill-rule="evenodd" d="M164.2,666.9h.7V640.6h-.7v26.3Z" class="g0_2"/>
<path fill-rule="evenodd" d="M911.8,666.9h.7V640.6h-.7v26.3Z" class="g0_2"/>
<path fill-rule="evenodd" d="M34.3,667.7H35v-.8h-.7v.8Z" class="g0_2"/>
<path fill-rule="evenodd" d="M121.1,667.7h.7v-.8h-.7v.8Z" class="g0_2"/>
<path fill-rule="evenodd" d="M121.8,667.7h42.4v-.8H121.8v.8Z" class="g0_2"/>
<path fill-rule="evenodd" d="M164.2,667.7h.7v-.8h-.7v.8Z" class="g0_2"/>
<path fill-rule="evenodd" d="M164.9,667.7H911.8v-.8H164.9v.8Z" class="g0_2"/>
<path fill-rule="evenodd" d="M911.8,667.7h.7v-.8h-.7v.8Z" class="g0_2"/>
<path fill-rule="evenodd" d="M34.3,694H35V667.7h-.7V694Z" class="g0_2"/>
<path fill-rule="evenodd" d="M121.1,694h.7V667.7h-.7V694Z" class="g0_2"/>
<path fill-rule="evenodd" d="M164.2,694h.7V667.7h-.7V694Z" class="g0_2"/>
<path fill-rule="evenodd" d="M911.8,694h.7V667.7h-.7V694Z" class="g0_2"/>
<path fill-rule="evenodd" d="M34.3,696.3H35V694h-.7v2.3Z" class="g0_2"/>
<path fill-rule="evenodd" d="M35,694.7h86.1V694H35v.7Z" class="g0_2"/>
<path fill-rule="evenodd" d="M35,696.2h86.1v-.8H35v.8Z" class="g0_2"/>
<path fill-rule="evenodd" d="M121.1,696.3h.7v-.1h-.7v.1Z" class="g0_2"/>
<path fill-rule="evenodd" d="M121.1,694.7h2.2V694h-2.2v.7Z" class="g0_2"/>
<path fill-rule="evenodd" d="M121.1,696.2h2.2v-.8h-2.2v.8Z" class="g0_2"/>
<path fill-rule="evenodd" d="M123.3,694.7h40.9V694H123.3v.7Z" class="g0_2"/>
<path fill-rule="evenodd" d="M123.3,696.2h40.9v-.8H123.3v.8Z" class="g0_2"/>
<path fill-rule="evenodd" d="M164.2,696.3h.7v-.1h-.7v.1Z" class="g0_2"/>
<path fill-rule="evenodd" d="M164.2,694.7h2.2V694h-2.2v.7Z" class="g0_2"/>
<path fill-rule="evenodd" d="M164.2,696.2h2.2v-.8h-2.2v.8Z" class="g0_2"/>
<path fill-rule="evenodd" d="M166.4,694.7H911.8V694H166.4v.7Z" class="g0_2"/>
<path fill-rule="evenodd" d="M166.4,696.2H911.8v-.8H166.4v.8Z" class="g0_2"/>
<path fill-rule="evenodd" d="M911.8,696.3h.7V694h-.7v2.3Z" class="g0_2"/>
<path fill-rule="evenodd" d="M34.3,736.6H35V696.3h-.7v40.3Z" class="g0_2"/>
<path fill-rule="evenodd" d="M121.1,736.6h.7V696.3h-.7v40.3Z" class="g0_2"/>
<path fill-rule="evenodd" d="M164.2,736.6h.7V696.3h-.7v40.3Z" class="g0_2"/>
<path fill-rule="evenodd" d="M911.8,736.6h.7V696.3h-.7v40.3Z" class="g0_2"/>
<path fill-rule="evenodd" d="M34.3,737.3H35v-.7h-.7v.7Z" class="g0_2"/>
<path fill-rule="evenodd" d="M121.1,737.3h.7v-.7h-.7v.7Z" class="g0_2"/>
<path fill-rule="evenodd" d="M121.8,737.3h42.4v-.7H121.8v.7Z" class="g0_2"/>
<path fill-rule="evenodd" d="M164.2,737.3h.7v-.7h-.7v.7Z" class="g0_2"/>
<path fill-rule="evenodd" d="M164.9,737.3H911.8v-.7H164.9v.7Z" class="g0_2"/>
<path fill-rule="evenodd" d="M911.8,737.3h.7v-.7h-.7v.7Z" class="g0_2"/>
<path fill-rule="evenodd" d="M34.3,777.7H35V737.3h-.7v40.4Z" class="g0_2"/>
<path fill-rule="evenodd" d="M121.1,777.7h.7V737.3h-.7v40.4Z" class="g0_2"/>
<path fill-rule="evenodd" d="M164.2,777.7h.7V737.3h-.7v40.4Z" class="g0_2"/>
<path fill-rule="evenodd" d="M911.8,777.7h.7V737.3h-.7v40.4Z" class="g0_2"/>
<path fill-rule="evenodd" d="M34.3,780H35v-2.3h-.7V780Z" class="g0_2"/>
<path fill-rule="evenodd" d="M35,778.4h86.1v-.7H35v.7Z" class="g0_2"/>
<path fill-rule="evenodd" d="M35,779.9h86.1v-.8H35v.8Z" class="g0_2"/>
<path fill-rule="evenodd" d="M121.1,780h.7v-.1h-.7v.1Z" class="g0_2"/>
<path fill-rule="evenodd" d="M121.1,778.4h2.2v-.7h-2.2v.7Z" class="g0_2"/>
<path fill-rule="evenodd" d="M121.1,779.9h2.2v-.8h-2.2v.8Z" class="g0_2"/>
<path fill-rule="evenodd" d="M123.3,778.4h40.9v-.7H123.3v.7Z" class="g0_2"/>
<path fill-rule="evenodd" d="M123.3,779.9h40.9v-.8H123.3v.8Z" class="g0_2"/>
<path fill-rule="evenodd" d="M164.2,780h.7v-.1h-.7v.1Z" class="g0_2"/>
<path fill-rule="evenodd" d="M164.2,778.4h2.2v-.7h-2.2v.7Z" class="g0_2"/>
<path fill-rule="evenodd" d="M164.2,779.9h2.2v-.8h-2.2v.8Z" class="g0_2"/>
<path fill-rule="evenodd" d="M166.4,778.4H911.8v-.7H166.4v.7Z" class="g0_2"/>
<path fill-rule="evenodd" d="M166.4,779.9H911.8v-.8H166.4v.8Z" class="g0_2"/>
<path fill-rule="evenodd" d="M911.8,780h.7v-2.3h-.7V780Z" class="g0_2"/>
<path fill-rule="evenodd" d="M34.3,806.3H35V780h-.7v26.3Z" class="g0_2"/>
<path fill-rule="evenodd" d="M121.1,806.3h.7V780h-.7v26.3Z" class="g0_2"/>
<path fill-rule="evenodd" d="M164.2,806.3h.7V780h-.7v26.3Z" class="g0_2"/>
<path fill-rule="evenodd" d="M911.8,806.3h.7V780h-.7v26.3Z" class="g0_2"/>
<path fill-rule="evenodd" d="M34.3,807H35v-.7h-.7v.7Z" class="g0_2"/>
<path fill-rule="evenodd" d="M121.1,807h.7v-.7h-.7v.7Z" class="g0_2"/>
<path fill-rule="evenodd" d="M121.8,807h42.4v-.7H121.8v.7Z" class="g0_2"/>
<path fill-rule="evenodd" d="M164.2,807h.7v-.7h-.7v.7Z" class="g0_2"/>
<path fill-rule="evenodd" d="M164.9,807H911.8v-.7H164.9v.7Z" class="g0_2"/>
<path fill-rule="evenodd" d="M911.8,807h.7v-.7h-.7v.7Z" class="g0_2"/>
<path fill-rule="evenodd" d="M34.3,833.3H35V807h-.7v26.3Z" class="g0_2"/>
<path fill-rule="evenodd" d="M121.1,833.3h.7V807h-.7v26.3Z" class="g0_2"/>
<path fill-rule="evenodd" d="M164.2,833.3h.7V807h-.7v26.3Z" class="g0_2"/>
<path fill-rule="evenodd" d="M911.8,833.3h.7V807h-.7v26.3Z" class="g0_2"/>
<path fill-rule="evenodd" d="M34.3,834H35v-.7h-.7v.7Z" class="g0_2"/>
<path fill-rule="evenodd" d="M121.1,834h.7v-.7h-.7v.7Z" class="g0_2"/>
<path fill-rule="evenodd" d="M121.8,834h42.4v-.7H121.8v.7Z" class="g0_2"/>
<path fill-rule="evenodd" d="M164.2,834h.7v-.7h-.7v.7Z" class="g0_2"/>
<path fill-rule="evenodd" d="M164.9,834H911.8v-.7H164.9v.7Z" class="g0_2"/>
<path fill-rule="evenodd" d="M911.8,834h.7v-.7h-.7v.7Z" class="g0_2"/>
<path fill-rule="evenodd" d="M34.3,860.4H35V834h-.7v26.4Z" class="g0_2"/>
<path fill-rule="evenodd" d="M121.1,860.4h.7V834h-.7v26.4Z" class="g0_2"/>
<path fill-rule="evenodd" d="M164.2,860.4h.7V834h-.7v26.4Z" class="g0_2"/>
<path fill-rule="evenodd" d="M911.8,860.4h.7V834h-.7v26.4Z" class="g0_2"/>
<path fill-rule="evenodd" d="M34.3,861.1H35v-.7h-.7v.7Z" class="g0_2"/>
<path fill-rule="evenodd" d="M121.1,861.1h.7v-.7h-.7v.7Z" class="g0_2"/>
<path fill-rule="evenodd" d="M121.8,861.1h42.4v-.7H121.8v.7Z" class="g0_2"/>
<path fill-rule="evenodd" d="M164.2,861.1h.7v-.7h-.7v.7Z" class="g0_2"/>
<path fill-rule="evenodd" d="M164.9,861.1H911.8v-.7H164.9v.7Z" class="g0_2"/>
<path fill-rule="evenodd" d="M911.8,861.1h.7v-.7h-.7v.7Z" class="g0_2"/>
<path fill-rule="evenodd" d="M34.3,901.4H35V861.1h-.7v40.3Z" class="g0_2"/>
<path fill-rule="evenodd" d="M121.1,901.4h.7V861.1h-.7v40.3Z" class="g0_2"/>
<path fill-rule="evenodd" d="M164.2,901.4h.7V861.1h-.7v40.3Z" class="g0_2"/>
<path fill-rule="evenodd" d="M911.8,901.4h.7V861.1h-.7v40.3Z" class="g0_2"/>
<path fill-rule="evenodd" d="M34.3,902.2H35v-.8h-.7v.8Z" class="g0_2"/>
<path fill-rule="evenodd" d="M34.3,903.6H35v-.7h-.7v.7Z" class="g0_2"/>
<path fill-rule="evenodd" d="M35,902.2h2.2v-.8H35v.8Z" class="g0_2"/>
<path fill-rule="evenodd" d="M35,903.6h2.2v-.7H35v.7Z" class="g0_2"/>
<path fill-rule="evenodd" d="M37.2,902.2h83.9v-.8H37.2v.8Z" class="g0_2"/>
<path fill-rule="evenodd" d="M37.2,903.6h83.9v-.7H37.2v.7Z" class="g0_2"/>
<path fill-rule="evenodd" d="M121.1,902.2h2.2v-.8h-2.2v.8Z" class="g0_2"/>
<path fill-rule="evenodd" d="M121.1,903.6h2.2v-.7h-2.2v.7Z" class="g0_2"/>
<path fill-rule="evenodd" d="M123.3,902.2h40.9v-.8H123.3v.8Z" class="g0_2"/>
<path fill-rule="evenodd" d="M123.3,903.6h40.9v-.7H123.3v.7Z" class="g0_2"/>
<path fill-rule="evenodd" d="M164.2,902.2h2.2v-.8h-2.2v.8Z" class="g0_2"/>
<path fill-rule="evenodd" d="M164.2,903.6h2.2v-.7h-2.2v.7Z" class="g0_2"/>
<path fill-rule="evenodd" d="M166.4,902.2H911.8v-.8H166.4v.8Z" class="g0_2"/>
<path fill-rule="evenodd" d="M166.4,903.6H911.8v-.7H166.4v.7Z" class="g0_2"/>
<path fill-rule="evenodd" d="M911.8,902.2h.7v-.8h-.7v.8Z" class="g0_2"/>
<path fill-rule="evenodd" d="M911.8,903.6h.7v-.7h-.7v.7Z" class="g0_2"/>
<path fill-rule="evenodd" d="M34.7,934.8H912.2v-.7H34.7v.7Z" class="g0_2"/>
<path fill-rule="evenodd" d="M34.7,958.8H912.2v-.7H34.7v.7Z" class="g0_2"/>
<path fill-rule="evenodd" d="M34.7,982.7H912.2V982H34.7v.7Z" class="g0_2"/>
<path fill-rule="evenodd" d="M34.7,1039.9H912.2v-.7H34.7v.7Z" class="g0_2"/>
<path fill-rule="evenodd" d="M34.3,1071H35v-.7h-.7v.7Z" class="g0_2"/>
<path fill-rule="evenodd" d="M34.3,1071H35v-.7h-.7v.7Z" class="g0_2"/>
<path fill-rule="evenodd" d="M35,1071h.7v-.7H35v.7Z" class="g0_2"/>
<path fill-rule="evenodd" d="M35.7,1071H68.8v-.7H35.7v.7Z" class="g0_2"/>
<path fill-rule="evenodd" d="M68.8,1071h.7v-.7h-.7v.7Z" class="g0_2"/>
<path fill-rule="evenodd" d="M69.5,1071H176.6v-.7H69.5v.7Z" class="g0_2"/>
<path fill-rule="evenodd" d="M176.6,1071h.7v-.7h-.7v.7Z" class="g0_2"/>
<path fill-rule="evenodd" d="M177.3,1071h33.6v-.7H177.3v.7Z" class="g0_2"/>
<path fill-rule="evenodd" d="M210.9,1071h.7v-.7h-.7v.7Z" class="g0_2"/>
<path fill-rule="evenodd" d="M211.6,1071h113v-.7h-113v.7Z" class="g0_2"/>
<path fill-rule="evenodd" d="M324.6,1071h.8v-.7h-.8v.7Z" class="g0_2"/>
<path fill-rule="evenodd" d="M325.4,1071h33.4v-.7H325.4v.7Z" class="g0_2"/>
<path fill-rule="evenodd" d="M358.8,1071h.7v-.7h-.7v.7Z" class="g0_2"/>
<path fill-rule="evenodd" d="M359.5,1071H473.1v-.7H359.5v.7Z" class="g0_2"/>
<path fill-rule="evenodd" d="M473.1,1071h.8v-.7h-.8v.7Z" class="g0_2"/>
<path fill-rule="evenodd" d="M473.9,1071h33.7v-.7H473.9v.7Z" class="g0_2"/>
<path fill-rule="evenodd" d="M507.6,1071h.8v-.7h-.8v.7Z" class="g0_2"/>
<path fill-rule="evenodd" d="M508.4,1071h111v-.7h-111v.7Z" class="g0_2"/>
<path fill-rule="evenodd" d="M619.4,1071h.7v-.7h-.7v.7Z" class="g0_2"/>
<path fill-rule="evenodd" d="M620.1,1071h33.5v-.7H620.1v.7Z" class="g0_2"/>
<path fill-rule="evenodd" d="M653.6,1071h.7v-.7h-.7v.7Z" class="g0_2"/>
<path fill-rule="evenodd" d="M654.3,1071H765.8v-.7H654.3v.7Z" class="g0_2"/>
<path fill-rule="evenodd" d="M765.8,1071h.8v-.7h-.8v.7Z" class="g0_2"/>
<path fill-rule="evenodd" d="M766.6,1071H800v-.7H766.6v.7Z" class="g0_2"/>
<path fill-rule="evenodd" d="M800,1071h.8v-.7H800v.7Z" class="g0_2"/>
<path fill-rule="evenodd" d="M800.8,1071h111v-.7h-111v.7Z" class="g0_2"/>
<path fill-rule="evenodd" d="M911.8,1071h.7v-.7h-.7v.7Z" class="g0_2"/>
<path fill-rule="evenodd" d="M34.3,1096.5H35V1071h-.7v25.5Z" class="g0_2"/>
<path fill-rule="evenodd" d="M176.6,1096.5h.7V1071h-.7v25.5Z" class="g0_2"/>
<path fill-rule="evenodd" d="M324.6,1096.5h.8V1071h-.8v25.5Z" class="g0_2"/>
<path fill-rule="evenodd" d="M473.1,1096.5h.8V1071h-.8v25.5Z" class="g0_2"/>
<path fill-rule="evenodd" d="M619.4,1096.5h.7V1071h-.7v25.5Z" class="g0_2"/>
<path fill-rule="evenodd" d="M765.8,1096.5h.8V1071h-.8v25.5Z" class="g0_2"/>
<path fill-rule="evenodd" d="M911.8,1096.5h.7V1071h-.7v25.5Z" class="g0_2"/>
<path fill-rule="evenodd" d="M34.3,1097.3H35v-.8h-.7v.8Z" class="g0_2"/>
<path fill-rule="evenodd" d="M34.3,1097.3H35v-.8h-.7v.8Z" class="g0_2"/>
<path fill-rule="evenodd" d="M35,1097.3h.7v-.8H35v.8Z" class="g0_2"/>
<path fill-rule="evenodd" d="M35.7,1097.3H68.8v-.8H35.7v.8Z" class="g0_2"/>
<path fill-rule="evenodd" d="M68.8,1097.3h.7v-.8h-.7v.8Z" class="g0_2"/>
<path fill-rule="evenodd" d="M69.5,1097.3H176.6v-.8H69.5v.8Z" class="g0_2"/>
<path fill-rule="evenodd" d="M176.6,1097.3h.7v-.8h-.7v.8Z" class="g0_2"/>
<path fill-rule="evenodd" d="M177.3,1097.3h33.6v-.8H177.3v.8Z" class="g0_2"/>
<path fill-rule="evenodd" d="M210.9,1097.3h.7v-.8h-.7v.8Z" class="g0_2"/>
<path fill-rule="evenodd" d="M211.6,1097.3h113v-.8h-113v.8Z" class="g0_2"/>
<path fill-rule="evenodd" d="M324.6,1097.3h.8v-.8h-.8v.8Z" class="g0_2"/>
<path fill-rule="evenodd" d="M325.4,1097.3h33.4v-.8H325.4v.8Z" class="g0_2"/>
<path fill-rule="evenodd" d="M358.8,1097.3h.7v-.8h-.7v.8Z" class="g0_2"/>
<path fill-rule="evenodd" d="M359.5,1097.3H473.1v-.8H359.5v.8Z" class="g0_2"/>
<path fill-rule="evenodd" d="M473.1,1097.3h.8v-.8h-.8v.8Z" class="g0_2"/>
<path fill-rule="evenodd" d="M473.9,1097.3h33.7v-.8H473.9v.8Z" class="g0_2"/>
<path fill-rule="evenodd" d="M507.6,1097.3h.8v-.8h-.8v.8Z" class="g0_2"/>
<path fill-rule="evenodd" d="M508.4,1097.3h111v-.8h-111v.8Z" class="g0_2"/>
<path fill-rule="evenodd" d="M619.4,1097.3h.7v-.8h-.7v.8Z" class="g0_2"/>
<path fill-rule="evenodd" d="M620.1,1097.3h33.5v-.8H620.1v.8Z" class="g0_2"/>
<path fill-rule="evenodd" d="M653.6,1097.3h.7v-.8h-.7v.8Z" class="g0_2"/>
<path fill-rule="evenodd" d="M654.3,1097.3H765.8v-.8H654.3v.8Z" class="g0_2"/>
<path fill-rule="evenodd" d="M765.8,1097.3h.8v-.8h-.8v.8Z" class="g0_2"/>
<path fill-rule="evenodd" d="M766.6,1097.3H800v-.8H766.6v.8Z" class="g0_2"/>
<path fill-rule="evenodd" d="M800,1097.3h.8v-.8H800v.8Z" class="g0_2"/>
<path fill-rule="evenodd" d="M800.8,1097.3h111v-.8h-111v.8Z" class="g0_2"/>
<path fill-rule="evenodd" d="M911.8,1097.3h.7v-.8h-.7v.8Z" class="g0_2"/>
<path fill-rule="evenodd" d="M911.8,1097.3h.7v-.8h-.7v.8Z" class="g0_2"/>
</svg>