<?xml version="1.0" encoding="UTF-8" standalone="no"?>
<!DOCTYPE svg PUBLIC "-//W3C//DTD SVG 1.1//EN"
"http://www.w3.org/Graphics/SVG/1.1/DTD/svg11.dtd">
<svg viewBox="0 0 935 1210" version="1.1" xmlns="http://www.w3.org/2000/svg" xmlns:xlink="http://www.w3.org/1999/xlink">
<defs>
<style type="text/css"><![CDATA[
.g0{
}
]]></style>
</defs>
<path fill-rule="evenodd" d="M34.7,132.5H912.2v-.8H34.7v.8Z" class="g0"/>
<path fill-rule="evenodd" d="M34.7,167H912.2v-.7H34.7v.7Z" class="g0"/>
<path fill-rule="evenodd" d="M34.7,189.2H912.2v-.7H34.7v.7Z" class="g0"/>
<path fill-rule="evenodd" d="M34.7,223.8H912.2v-.7H34.7v.7Z" class="g0"/>
<path fill-rule="evenodd" d="M34.7,270.6H912.2v-.7H34.7v.7Z" class="g0"/>
<path fill-rule="evenodd" d="M34.7,305.1H912.2v-.7H34.7v.7Z" class="g0"/>
<path fill-rule="evenodd" d="M34.7,327.4H912.2v-.8H34.7v.8Z" class="g0"/>
<path fill-rule="evenodd" d="M34.7,349.6H912.2v-.8H34.7v.8Z" class="g0"/>
<path fill-rule="evenodd" d="M34.7,371.8H912.2v-.7H34.7v.7Z" class="g0"/>
<path fill-rule="evenodd" d="M34.7,418.7H912.2v-.8H34.7v.8Z" class="g0"/>
<path fill-rule="evenodd" d="M310.1,456.3h3.4v-5.8h-3.4v5.8Z" class="g0"/>
<path fill-rule="evenodd" d="M310.1,453.9h5.6v-3.4h-5.6v3.4Z" class="g0"/>
<path fill-rule="evenodd" d="M314.6,456.3h1.1V455h-1.1v1.3Z" class="g0"/>
<path fill-rule="evenodd" d="M314.6,456.1h1.1V455h-1.1v1.1Z" class="g0"/>
<path fill-rule="evenodd" d="M315.7,453.9H725.9v-3.4H315.7v3.4Z" class="g0"/>
<path fill-rule="evenodd" d="M315.7,456.1H725.9V455H315.7v1.1Z" class="g0"/>
<path fill-rule="evenodd" d="M728.1,456.3h3.4v-5.8h-3.4v5.8Z" class="g0"/>
<path fill-rule="evenodd" d="M725.9,453.9h5.6v-3.4h-5.6v3.4Z" class="g0"/>
<path fill-rule="evenodd" d="M725.9,456.3H727V455h-1.1v1.3Z" class="g0"/>
<path fill-rule="evenodd" d="M725.9,456.1H727V455h-1.1v1.1Z" class="g0"/>
<path fill-rule="evenodd" d="M314.6,524.4h1.1V456.3h-1.1v68.1Z" class="g0"/>
<path fill-rule="evenodd" d="M310.1,524.4h3.4V456.3h-3.4v68.1Z" class="g0"/>
<path fill-rule="evenodd" d="M728.1,524.4h3.4V456.3h-3.4v68.1Z" class="g0"/>
<path fill-rule="evenodd" d="M725.9,524.4H727V456.3h-1.1v68.1Z" class="g0"/>
<path fill-rule="evenodd" d="M310.1,530h3.4v-5.6h-3.4V530Z" class="g0"/>
<path fill-rule="evenodd" d="M310.1,530h5.6v-3.4h-5.6V530Z" class="g0"/>
<path fill-rule="evenodd" d="M314.6,525.5h1.1v-1.1h-1.1v1.1Z" class="g0"/>
<path fill-rule="evenodd" d="M314.6,525.5h1.1v-1.1h-1.1v1.1Z" class="g0"/>
<path fill-rule="evenodd" d="M315.7,525.5h5.6v-1.1h-5.6v1.1Z" class="g0"/>
<path fill-rule="evenodd" d="M315.7,530h5.6v-3.4h-5.6V530Z" class="g0"/>
<path fill-rule="evenodd" d="M321.3,525.5H725.9v-1.1H321.3v1.1Z" class="g0"/>
<path fill-rule="evenodd" d="M321.3,530H725.9v-3.4H321.3V530Z" class="g0"/>
<path fill-rule="evenodd" d="M728.1,530h3.4v-5.6h-3.4V530Z" class="g0"/>
<path fill-rule="evenodd" d="M725.9,530h5.6v-3.4h-5.6V530Z" class="g0"/>
<path fill-rule="evenodd" d="M725.9,525.5H727v-1.1h-1.1v1.1Z" class="g0"/>
<path fill-rule="evenodd" d="M725.9,525.5H727v-1.1h-1.1v1.1Z" class="g0"/>
<path fill-rule="evenodd" d="M34.7,603.8H912.2v-.7H34.7v.7Z" class="g0"/>
<path fill-rule="evenodd" d="M673.6,656h.8v-.7h-.8v.7Z" class="g0"/>
<path fill-rule="evenodd" d="M673.6,656h.8v-.7h-.8v.7Z" class="g0"/>
<path fill-rule="evenodd" d="M674.4,656H868.5v-.7H674.4v.7Z" class="g0"/>
<path fill-rule="evenodd" d="M868.5,656h.8v-.7h-.8v.7Z" class="g0"/>
<path fill-rule="evenodd" d="M868.5,656h.8v-.7h-.8v.7Z" class="g0"/>
<path fill-rule="evenodd" d="M673.6,691.9h.8V656h-.8v35.9Z" class="g0"/>
<path fill-rule="evenodd" d="M868.5,691.9h.8V656h-.8v35.9Z" class="g0"/>
<path fill-rule="evenodd" d="M174.7,692.6H627.5v-.7H174.7v.7Z" class="g0"/>
<path fill-rule="evenodd" d="M673.6,692.6h.8v-.7h-.8v.7Z" class="g0"/>
<path fill-rule="evenodd" d="M868.5,692.6h.8v-.7h-.8v.7Z" class="g0"/>
<path fill-rule="evenodd" d="M673.6,715.8h.8V692.6h-.8v23.2Z" class="g0"/>
<path fill-rule="evenodd" d="M868.5,715.8h.8V692.6h-.8v23.2Z" class="g0"/>
<path fill-rule="evenodd" d="M174.7,716.5H627.5v-.7H174.7v.7Z" class="g0"/>
<path fill-rule="evenodd" d="M673.6,716.5h.8v-.7h-.8v.7Z" class="g0"/>
<path fill-rule="evenodd" d="M868.5,716.5h.8v-.7h-.8v.7Z" class="g0"/>
<path fill-rule="evenodd" d="M673.6,739.8h.8V716.5h-.8v23.3Z" class="g0"/>
<path fill-rule="evenodd" d="M868.5,739.8h.8V716.5h-.8v23.3Z" class="g0"/>
<path fill-rule="evenodd" d="M174.7,740.5H627.5v-.7H174.7v.7Z" class="g0"/>
<path fill-rule="evenodd" d="M673.6,740.5h.8v-.7h-.8v.7Z" class="g0"/>
<path fill-rule="evenodd" d="M868.5,740.5h.8v-.7h-.8v.7Z" class="g0"/>
<path fill-rule="evenodd" d="M673.6,777.9h.8V740.5h-.8v37.4Z" class="g0"/>
<path fill-rule="evenodd" d="M868.5,777.9h.8V740.5h-.8v37.4Z" class="g0"/>
<path fill-rule="evenodd" d="M174.7,778.6H627.5v-.7H174.7v.7Z" class="g0"/>
<path fill-rule="evenodd" d="M673.6,778.6h.8v-.7h-.8v.7Z" class="g0"/>
<path fill-rule="evenodd" d="M868.5,778.6h.8v-.7h-.8v.7Z" class="g0"/>
<path fill-rule="evenodd" d="M673.6,801.9h.8V778.6h-.8v23.3Z" class="g0"/>
<path fill-rule="evenodd" d="M868.5,801.9h.8V778.6h-.8v23.3Z" class="g0"/>
<path fill-rule="evenodd" d="M174.7,802.6H627.5v-.7H174.7v.7Z" class="g0"/>
<path fill-rule="evenodd" d="M673.6,802.6h.8v-.7h-.8v.7Z" class="g0"/>
<path fill-rule="evenodd" d="M868.5,802.6h.8v-.7h-.8v.7Z" class="g0"/>
<path fill-rule="evenodd" d="M673.6,825.8h.8V802.6h-.8v23.2Z" class="g0"/>
<path fill-rule="evenodd" d="M868.5,825.8h.8V802.6h-.8v23.2Z" class="g0"/>
<path fill-rule="evenodd" d="M174.7,826.5H627.5v-.7H174.7v.7Z" class="g0"/>
<path fill-rule="evenodd" d="M674.4,826.5H868.5v-.7H674.4v.7Z" class="g0"/>
<path fill-rule="evenodd" d="M868.5,826.5h.8v-.7h-.8v.7Z" class="g0"/>
<path fill-rule="evenodd" d="M868.5,826.5h.8v-.7h-.8v.7Z" class="g0"/>
<path fill-rule="evenodd" d="M174.7,850.5H627.5v-.7H174.7v.7Z" class="g0"/>
<path fill-rule="evenodd" d="M307.1,925.2h3.4v-5.8h-3.4v5.8Z" class="g0"/>
<path fill-rule="evenodd" d="M307.1,922.8h5.6v-3.4h-5.6v3.4Z" class="g0"/>
<path fill-rule="evenodd" d="M311.6,925.2h1.1v-1.3h-1.1v1.3Z" class="g0"/>
<path fill-rule="evenodd" d="M311.6,925h1.1v-1.1h-1.1V925Z" class="g0"/>
<path fill-rule="evenodd" d="M312.7,922.8H719.9v-3.4H312.7v3.4Z" class="g0"/>
<path fill-rule="evenodd" d="M312.7,925H719.9v-1.1H312.7V925Z" class="g0"/>
<path fill-rule="evenodd" d="M722.1,925.2h3.4v-5.8h-3.4v5.8Z" class="g0"/>
<path fill-rule="evenodd" d="M719.9,922.8h5.6v-3.4h-5.6v3.4Z" class="g0"/>
<path fill-rule="evenodd" d="M719.9,925.2H721v-1.3h-1.1v1.3Z" class="g0"/>
<path fill-rule="evenodd" d="M719.9,925H721v-1.1h-1.1V925Z" class="g0"/>
<path fill-rule="evenodd" d="M311.6,991.7h1.1V925.2h-1.1v66.5Z" class="g0"/>
<path fill-rule="evenodd" d="M307.1,991.7h3.4V925.2h-3.4v66.5Z" class="g0"/>
<path fill-rule="evenodd" d="M722.1,991.7h3.4V925.2h-3.4v66.5Z" class="g0"/>
<path fill-rule="evenodd" d="M719.9,991.7H721V925.2h-1.1v66.5Z" class="g0"/>
<path fill-rule="evenodd" d="M307.1,997.3h3.4v-5.6h-3.4v5.6Z" class="g0"/>
<path fill-rule="evenodd" d="M307.1,997.3h5.6v-3.4h-5.6v3.4Z" class="g0"/>
<path fill-rule="evenodd" d="M311.6,992.8h1.1v-1.1h-1.1v1.1Z" class="g0"/>
<path fill-rule="evenodd" d="M311.6,992.8h1.1v-1.1h-1.1v1.1Z" class="g0"/>
<path fill-rule="evenodd" d="M312.7,992.8h5.6v-1.1h-5.6v1.1Z" class="g0"/>
<path fill-rule="evenodd" d="M312.7,997.3h5.6v-3.4h-5.6v3.4Z" class="g0"/>
<path fill-rule="evenodd" d="M318.3,992.8H719.9v-1.1H318.3v1.1Z" class="g0"/>
<path fill-rule="evenodd" d="M318.3,997.3H719.9v-3.4H318.3v3.4Z" class="g0"/>
<path fill-rule="evenodd" d="M722.1,997.3h3.4v-5.6h-3.4v5.6Z" class="g0"/>
<path fill-rule="evenodd" d="M719.9,997.3h5.6v-3.4h-5.6v3.4Z" class="g0"/>
<path fill-rule="evenodd" d="M719.9,992.8H721v-1.1h-1.1v1.1Z" class="g0"/>
<path fill-rule="evenodd" d="M719.9,992.8H721v-1.1h-1.1v1.1Z" class="g0"/>
</svg>