<?xml version="1.0" encoding="UTF-8" standalone="no"?>
<!DOCTYPE svg PUBLIC "-//W3C//DTD SVG 1.1//EN"
"http://www.w3.org/Graphics/SVG/1.1/DTD/svg11.dtd">
<svg viewBox="0 0 935 1210" version="1.1" xmlns="http://www.w3.org/2000/svg" xmlns:xlink="http://www.w3.org/1999/xlink">
<defs>
<style type="text/css"><![CDATA[
.g0_1{
}
.g1_1{
fill: #0563C1;
}
]]></style>
</defs>
<path fill-rule="evenodd" d="M249,312.6h.7v-.7H249v.7Z" class="g0_1"/>
<path fill-rule="evenodd" d="M249,312.6h.7v-.7H249v.7Z" class="g0_1"/>
<path fill-rule="evenodd" d="M249.7,312.6h32.5v-.7H249.7v.7Z" class="g0_1"/>
<path fill-rule="evenodd" d="M282.2,312.6h.7v-.7h-.7v.7Z" class="g0_1"/>
<path fill-rule="evenodd" d="M282.9,312.6h32.6v-.7H282.9v.7Z" class="g0_1"/>
<path fill-rule="evenodd" d="M315.5,312.6h.7v-.7h-.7v.7Z" class="g0_1"/>
<path fill-rule="evenodd" d="M316.2,312.6h32.7v-.7H316.2v.7Z" class="g0_1"/>
<path fill-rule="evenodd" d="M348.9,312.6h.7v-.7h-.7v.7Z" class="g0_1"/>
<path fill-rule="evenodd" d="M349.6,312.6h32.6v-.7H349.6v.7Z" class="g0_1"/>
<path fill-rule="evenodd" d="M382.2,312.6h.7v-.7h-.7v.7Z" class="g0_1"/>
<path fill-rule="evenodd" d="M382.9,312.6h32.5v-.7H382.9v.7Z" class="g0_1"/>
<path fill-rule="evenodd" d="M415.4,312.6h.7v-.7h-.7v.7Z" class="g0_1"/>
<path fill-rule="evenodd" d="M416.1,312.6H449v-.7H416.1v.7Z" class="g0_1"/>
<path fill-rule="evenodd" d="M449,312.6h.7v-.7H449v.7Z" class="g0_1"/>
<path fill-rule="evenodd" d="M449,312.6h.7v-.7H449v.7Z" class="g0_1"/>
<path fill-rule="evenodd" d="M249,339h.7V312.6H249V339Z" class="g0_1"/>
<path fill-rule="evenodd" d="M282.2,339h.7V312.6h-.7V339Z" class="g0_1"/>
<path fill-rule="evenodd" d="M315.5,339h.7V312.6h-.7V339Z" class="g0_1"/>
<path fill-rule="evenodd" d="M348.9,339h.7V312.6h-.7V339Z" class="g0_1"/>
<path fill-rule="evenodd" d="M382.2,339h.7V312.6h-.7V339Z" class="g0_1"/>
<path fill-rule="evenodd" d="M415.4,339h.7V312.6h-.7V339Z" class="g0_1"/>
<path fill-rule="evenodd" d="M449,339h.7V312.6H449V339Z" class="g0_1"/>
<path fill-rule="evenodd" d="M249,339.7h.7V339H249v.7Z" class="g0_1"/>
<path fill-rule="evenodd" d="M249,339.7h.7V339H249v.7Z" class="g0_1"/>
<path fill-rule="evenodd" d="M249.7,339.7h.8V339h-.8v.7Z" class="g0_1"/>
<path fill-rule="evenodd" d="M250.5,339.7h31.7V339H250.5v.7Z" class="g0_1"/>
<path fill-rule="evenodd" d="M282.2,339.7h.7V339h-.7v.7Z" class="g0_1"/>
<path fill-rule="evenodd" d="M282.9,339.7h32.6V339H282.9v.7Z" class="g0_1"/>
<path fill-rule="evenodd" d="M315.5,339.7h.7V339h-.7v.7Z" class="g0_1"/>
<path fill-rule="evenodd" d="M316.2,339.7h32.7V339H316.2v.7Z" class="g0_1"/>
<path fill-rule="evenodd" d="M348.9,339.7h.7V339h-.7v.7Z" class="g0_1"/>
<path fill-rule="evenodd" d="M349.6,339.7h32.6V339H349.6v.7Z" class="g0_1"/>
<path fill-rule="evenodd" d="M382.2,339.7h.7V339h-.7v.7Z" class="g0_1"/>
<path fill-rule="evenodd" d="M382.9,339.7h32.5V339H382.9v.7Z" class="g0_1"/>
<path fill-rule="evenodd" d="M415.4,339.7h.7V339h-.7v.7Z" class="g0_1"/>
<path fill-rule="evenodd" d="M416.1,339.7H449V339H416.1v.7Z" class="g0_1"/>
<path fill-rule="evenodd" d="M449,339.7h.7V339H449v.7Z" class="g0_1"/>
<path fill-rule="evenodd" d="M126.5,376H449.4v-.8H126.5v.8Z" class="g0_1"/>
<path fill-rule="evenodd" d="M126.5,397.2H449.4v-.7H126.5v.7Z" class="g0_1"/>
<path fill-rule="evenodd" d="M27.5,423.9h.7v-.7h-.7v.7Z" class="g0_1"/>
<path fill-rule="evenodd" d="M27.5,423.9h.7v-.7h-.7v.7Z" class="g0_1"/>
<path fill-rule="evenodd" d="M28.2,423.9H29v-.7h-.8v.7Z" class="g0_1"/>
<path fill-rule="evenodd" d="M29,423.9H51.9v-.7H29v.7Z" class="g0_1"/>
<path fill-rule="evenodd" d="M51.9,423.9h.7v-.7h-.7v.7Z" class="g0_1"/>
<path fill-rule="evenodd" d="M52.6,423.9H76.5v-.7H52.6v.7Z" class="g0_1"/>
<path fill-rule="evenodd" d="M76.5,423.9h.8v-.7h-.8v.7Z" class="g0_1"/>
<path fill-rule="evenodd" d="M77.3,423.9h24v-.7h-24v.7Z" class="g0_1"/>
<path fill-rule="evenodd" d="M101.3,423.9h.7v-.7h-.7v.7Z" class="g0_1"/>
<path fill-rule="evenodd" d="M102,423.9h24.1v-.7H102v.7Z" class="g0_1"/>
<path fill-rule="evenodd" d="M126.1,423.9h.8v-.7h-.8v.7Z" class="g0_1"/>
<path fill-rule="evenodd" d="M126.9,423.9h24.2v-.7H126.9v.7Z" class="g0_1"/>
<path fill-rule="evenodd" d="M151.1,423.9h.7v-.7h-.7v.7Z" class="g0_1"/>
<path fill-rule="evenodd" d="M151.8,423.9H176v-.7H151.8v.7Z" class="g0_1"/>
<path fill-rule="evenodd" d="M176,423.9h.8v-.7H176v.7Z" class="g0_1"/>
<path fill-rule="evenodd" d="M176.8,423.9h24.1v-.7H176.8v.7Z" class="g0_1"/>
<path fill-rule="evenodd" d="M200.9,423.9h.7v-.7h-.7v.7Z" class="g0_1"/>
<path fill-rule="evenodd" d="M201.6,423.9h24.2v-.7H201.6v.7Z" class="g0_1"/>
<path fill-rule="evenodd" d="M225.8,423.9h.7v-.7h-.7v.7Z" class="g0_1"/>
<path fill-rule="evenodd" d="M226.5,423.9h24.2v-.7H226.5v.7Z" class="g0_1"/>
<path fill-rule="evenodd" d="M250.7,423.9h.8v-.7h-.8v.7Z" class="g0_1"/>
<path fill-rule="evenodd" d="M251.5,423.9h24.1v-.7H251.5v.7Z" class="g0_1"/>
<path fill-rule="evenodd" d="M275.6,423.9h.7v-.7h-.7v.7Z" class="g0_1"/>
<path fill-rule="evenodd" d="M276.3,423.9h24.2v-.7H276.3v.7Z" class="g0_1"/>
<path fill-rule="evenodd" d="M300.5,423.9h.7v-.7h-.7v.7Z" class="g0_1"/>
<path fill-rule="evenodd" d="M301.2,423.9h24.2v-.7H301.2v.7Z" class="g0_1"/>
<path fill-rule="evenodd" d="M325.4,423.9h.8v-.7h-.8v.7Z" class="g0_1"/>
<path fill-rule="evenodd" d="M326.2,423.9h24.1v-.7H326.2v.7Z" class="g0_1"/>
<path fill-rule="evenodd" d="M350.3,423.9h.7v-.7h-.7v.7Z" class="g0_1"/>
<path fill-rule="evenodd" d="M351,423.9h24.2v-.7H351v.7Z" class="g0_1"/>
<path fill-rule="evenodd" d="M375.2,423.9h.8v-.7h-.8v.7Z" class="g0_1"/>
<path fill-rule="evenodd" d="M376,423.9h24.2v-.7H376v.7Z" class="g0_1"/>
<path fill-rule="evenodd" d="M400.2,423.9h.7v-.7h-.7v.7Z" class="g0_1"/>
<path fill-rule="evenodd" d="M400.9,423.9H425v-.7H400.9v.7Z" class="g0_1"/>
<path fill-rule="evenodd" d="M425,423.9h.7v-.7H425v.7Z" class="g0_1"/>
<path fill-rule="evenodd" d="M425.7,423.9h23.7v-.7H425.7v.7Z" class="g0_1"/>
<path fill-rule="evenodd" d="M449.4,423.9h.7v-.7h-.7v.7Z" class="g0_1"/>
<path fill-rule="evenodd" d="M450.1,423.9h.4v-.7h-.4v.7Z" class="g0_1"/>
<path fill-rule="evenodd" d="M450.5,423.9h.7v-.7h-.7v.7Z" class="g0_1"/>
<path fill-rule="evenodd" d="M451.1,423.9h.8v-.7h-.8v.7Z" class="g0_1"/>
<path fill-rule="evenodd" d="M451.1,423.9h.8v-.7h-.8v.7Z" class="g0_1"/>
<path fill-rule="evenodd" d="M27.5,448h.7V423.9h-.7V448Z" class="g0_1"/>
<path fill-rule="evenodd" d="M51.9,448h.7V423.9h-.7V448Z" class="g0_1"/>
<path fill-rule="evenodd" d="M76.5,448h.8V423.9h-.8V448Z" class="g0_1"/>
<path fill-rule="evenodd" d="M101.3,448h.7V423.9h-.7V448Z" class="g0_1"/>
<path fill-rule="evenodd" d="M126.1,448h.8V423.9h-.8V448Z" class="g0_1"/>
<path fill-rule="evenodd" d="M151.1,448h.7V423.9h-.7V448Z" class="g0_1"/>
<path fill-rule="evenodd" d="M176,448h.8V423.9H176V448Z" class="g0_1"/>
<path fill-rule="evenodd" d="M200.9,448h.7V423.9h-.7V448Z" class="g0_1"/>
<path fill-rule="evenodd" d="M225.8,448h.7V423.9h-.7V448Z" class="g0_1"/>
<path fill-rule="evenodd" d="M250.7,448h.8V423.9h-.8V448Z" class="g0_1"/>
<path fill-rule="evenodd" d="M275.6,448h.7V423.9h-.7V448Z" class="g0_1"/>
<path fill-rule="evenodd" d="M300.5,448h.7V423.9h-.7V448Z" class="g0_1"/>
<path fill-rule="evenodd" d="M325.4,448h.8V423.9h-.8V448Z" class="g0_1"/>
<path fill-rule="evenodd" d="M350.3,448h.7V423.9h-.7V448Z" class="g0_1"/>
<path fill-rule="evenodd" d="M375.2,448h.8V423.9h-.8V448Z" class="g0_1"/>
<path fill-rule="evenodd" d="M400.2,448h.7V423.9h-.7V448Z" class="g0_1"/>
<path fill-rule="evenodd" d="M425,448h.7V423.9H425V448Z" class="g0_1"/>
<path fill-rule="evenodd" d="M451.1,448h.8V423.9h-.8V448Z" class="g0_1"/>
<path fill-rule="evenodd" d="M27.5,448.7h.7V448h-.7v.7Z" class="g0_1"/>
<path fill-rule="evenodd" d="M27.5,448.7h.7V448h-.7v.7Z" class="g0_1"/>
<path fill-rule="evenodd" d="M28.2,448.7H29V448h-.8v.7Z" class="g0_1"/>
<path fill-rule="evenodd" d="M29,448.7H51.9V448H29v.7Z" class="g0_1"/>
<path fill-rule="evenodd" d="M51.9,448.7h.7V448h-.7v.7Z" class="g0_1"/>
<path fill-rule="evenodd" d="M52.6,448.7H76.5V448H52.6v.7Z" class="g0_1"/>
<path fill-rule="evenodd" d="M76.5,448.7h.8V448h-.8v.7Z" class="g0_1"/>
<path fill-rule="evenodd" d="M77.3,448.7h24V448h-24v.7Z" class="g0_1"/>
<path fill-rule="evenodd" d="M101.3,448.7h.7V448h-.7v.7Z" class="g0_1"/>
<path fill-rule="evenodd" d="M102,448.7h24.1V448H102v.7Z" class="g0_1"/>
<path fill-rule="evenodd" d="M126.1,448.7h.8V448h-.8v.7Z" class="g0_1"/>
<path fill-rule="evenodd" d="M126.9,448.7h24.2V448H126.9v.7Z" class="g0_1"/>
<path fill-rule="evenodd" d="M151.1,448.7h.7V448h-.7v.7Z" class="g0_1"/>
<path fill-rule="evenodd" d="M151.8,448.7H176V448H151.8v.7Z" class="g0_1"/>
<path fill-rule="evenodd" d="M176,448.7h.8V448H176v.7Z" class="g0_1"/>
<path fill-rule="evenodd" d="M176.8,448.7h24.1V448H176.8v.7Z" class="g0_1"/>
<path fill-rule="evenodd" d="M200.9,448.7h.7V448h-.7v.7Z" class="g0_1"/>
<path fill-rule="evenodd" d="M201.6,448.7h24.2V448H201.6v.7Z" class="g0_1"/>
<path fill-rule="evenodd" d="M225.8,448.7h.7V448h-.7v.7Z" class="g0_1"/>
<path fill-rule="evenodd" d="M226.5,448.7h24.2V448H226.5v.7Z" class="g0_1"/>
<path fill-rule="evenodd" d="M250.7,448.7h.8V448h-.8v.7Z" class="g0_1"/>
<path fill-rule="evenodd" d="M251.5,448.7h24.1V448H251.5v.7Z" class="g0_1"/>
<path fill-rule="evenodd" d="M275.6,448.7h.7V448h-.7v.7Z" class="g0_1"/>
<path fill-rule="evenodd" d="M276.3,448.7h24.2V448H276.3v.7Z" class="g0_1"/>
<path fill-rule="evenodd" d="M300.5,448.7h.7V448h-.7v.7Z" class="g0_1"/>
<path fill-rule="evenodd" d="M301.2,448.7h24.2V448H301.2v.7Z" class="g0_1"/>
<path fill-rule="evenodd" d="M325.4,448.7h.8V448h-.8v.7Z" class="g0_1"/>
<path fill-rule="evenodd" d="M326.2,448.7h24.1V448H326.2v.7Z" class="g0_1"/>
<path fill-rule="evenodd" d="M350.3,448.7h.7V448h-.7v.7Z" class="g0_1"/>
<path fill-rule="evenodd" d="M351,448.7h24.2V448H351v.7Z" class="g0_1"/>
<path fill-rule="evenodd" d="M375.2,448.7h.8V448h-.8v.7Z" class="g0_1"/>
<path fill-rule="evenodd" d="M376,448.7h24.2V448H376v.7Z" class="g0_1"/>
<path fill-rule="evenodd" d="M400.2,448.7h.7V448h-.7v.7Z" class="g0_1"/>
<path fill-rule="evenodd" d="M400.9,448.7H425V448H400.9v.7Z" class="g0_1"/>
<path fill-rule="evenodd" d="M425,448.7h.7V448H425v.7Z" class="g0_1"/>
<path fill-rule="evenodd" d="M425.7,448.7h23.7V448H425.7v.7Z" class="g0_1"/>
<path fill-rule="evenodd" d="M449.4,448.7h.7V448h-.7v.7Z" class="g0_1"/>
<path fill-rule="evenodd" d="M450.1,448.7h.4V448h-.4v.7Z" class="g0_1"/>
<path fill-rule="evenodd" d="M450.5,448.7h.7V448h-.7v.7Z" class="g0_1"/>
<path fill-rule="evenodd" d="M451.1,448.7h.8V448h-.8v.7Z" class="g0_1"/>
<path fill-rule="evenodd" d="M451.1,448.7h.8V448h-.8v.7Z" class="g0_1"/>
<path fill-rule="evenodd" d="M27.5,479.9h.7v-.7h-.7v.7Z" class="g0_1"/>
<path fill-rule="evenodd" d="M27.5,479.9h.7v-.7h-.7v.7Z" class="g0_1"/>
<path fill-rule="evenodd" d="M28.2,479.9H29v-.7h-.8v.7Z" class="g0_1"/>
<path fill-rule="evenodd" d="M29,479.9H51.9v-.7H29v.7Z" class="g0_1"/>
<path fill-rule="evenodd" d="M51.9,479.9h.7v-.7h-.7v.7Z" class="g0_1"/>
<path fill-rule="evenodd" d="M52.6,479.9H76.5v-.7H52.6v.7Z" class="g0_1"/>
<path fill-rule="evenodd" d="M76.5,479.9h.8v-.7h-.8v.7Z" class="g0_1"/>
<path fill-rule="evenodd" d="M77.3,479.9h24v-.7h-24v.7Z" class="g0_1"/>
<path fill-rule="evenodd" d="M101.3,479.9h.7v-.7h-.7v.7Z" class="g0_1"/>
<path fill-rule="evenodd" d="M102,479.9h24.1v-.7H102v.7Z" class="g0_1"/>
<path fill-rule="evenodd" d="M126.1,479.9h.8v-.7h-.8v.7Z" class="g0_1"/>
<path fill-rule="evenodd" d="M126.9,479.9h24.2v-.7H126.9v.7Z" class="g0_1"/>
<path fill-rule="evenodd" d="M151.1,479.9h.7v-.7h-.7v.7Z" class="g0_1"/>
<path fill-rule="evenodd" d="M151.8,479.9H176v-.7H151.8v.7Z" class="g0_1"/>
<path fill-rule="evenodd" d="M176,479.9h.8v-.7H176v.7Z" class="g0_1"/>
<path fill-rule="evenodd" d="M176.8,479.9h24.1v-.7H176.8v.7Z" class="g0_1"/>
<path fill-rule="evenodd" d="M200.9,479.9h.7v-.7h-.7v.7Z" class="g0_1"/>
<path fill-rule="evenodd" d="M201.6,479.9h24.2v-.7H201.6v.7Z" class="g0_1"/>
<path fill-rule="evenodd" d="M225.8,479.9h.7v-.7h-.7v.7Z" class="g0_1"/>
<path fill-rule="evenodd" d="M226.5,479.9h24.2v-.7H226.5v.7Z" class="g0_1"/>
<path fill-rule="evenodd" d="M250.7,479.9h.8v-.7h-.8v.7Z" class="g0_1"/>
<path fill-rule="evenodd" d="M251.5,479.9h24.1v-.7H251.5v.7Z" class="g0_1"/>
<path fill-rule="evenodd" d="M275.6,479.9h.7v-.7h-.7v.7Z" class="g0_1"/>
<path fill-rule="evenodd" d="M276.3,479.9h24.2v-.7H276.3v.7Z" class="g0_1"/>
<path fill-rule="evenodd" d="M300.5,479.9h.7v-.7h-.7v.7Z" class="g0_1"/>
<path fill-rule="evenodd" d="M301.2,479.9h24.2v-.7H301.2v.7Z" class="g0_1"/>
<path fill-rule="evenodd" d="M325.4,479.9h.8v-.7h-.8v.7Z" class="g0_1"/>
<path fill-rule="evenodd" d="M326.2,479.9h24.1v-.7H326.2v.7Z" class="g0_1"/>
<path fill-rule="evenodd" d="M350.3,479.9h.7v-.7h-.7v.7Z" class="g0_1"/>
<path fill-rule="evenodd" d="M351,479.9h24.2v-.7H351v.7Z" class="g0_1"/>
<path fill-rule="evenodd" d="M375.2,479.9h.8v-.7h-.8v.7Z" class="g0_1"/>
<path fill-rule="evenodd" d="M376,479.9h24.2v-.7H376v.7Z" class="g0_1"/>
<path fill-rule="evenodd" d="M400.2,479.9h.7v-.7h-.7v.7Z" class="g0_1"/>
<path fill-rule="evenodd" d="M400.9,479.9H425v-.7H400.9v.7Z" class="g0_1"/>
<path fill-rule="evenodd" d="M425,479.9h.7v-.7H425v.7Z" class="g0_1"/>
<path fill-rule="evenodd" d="M425.7,479.9h23.7v-.7H425.7v.7Z" class="g0_1"/>
<path fill-rule="evenodd" d="M449.4,479.9h.7v-.7h-.7v.7Z" class="g0_1"/>
<path fill-rule="evenodd" d="M450.1,479.9h.4v-.7h-.4v.7Z" class="g0_1"/>
<path fill-rule="evenodd" d="M450.5,479.9h.7v-.7h-.7v.7Z" class="g0_1"/>
<path fill-rule="evenodd" d="M451.1,479.9h.8v-.7h-.8v.7Z" class="g0_1"/>
<path fill-rule="evenodd" d="M451.1,479.9h.8v-.7h-.8v.7Z" class="g0_1"/>
<path fill-rule="evenodd" d="M27.5,504h.7V479.9h-.7V504Z" class="g0_1"/>
<path fill-rule="evenodd" d="M51.9,504h.7V479.9h-.7V504Z" class="g0_1"/>
<path fill-rule="evenodd" d="M76.5,504h.8V479.9h-.8V504Z" class="g0_1"/>
<path fill-rule="evenodd" d="M101.3,504h.7V479.9h-.7V504Z" class="g0_1"/>
<path fill-rule="evenodd" d="M126.1,504h.8V479.9h-.8V504Z" class="g0_1"/>
<path fill-rule="evenodd" d="M151.1,504h.7V479.9h-.7V504Z" class="g0_1"/>
<path fill-rule="evenodd" d="M176,504h.8V479.9H176V504Z" class="g0_1"/>
<path fill-rule="evenodd" d="M200.9,504h.7V479.9h-.7V504Z" class="g0_1"/>
<path fill-rule="evenodd" d="M225.8,504h.7V479.9h-.7V504Z" class="g0_1"/>
<path fill-rule="evenodd" d="M250.7,504h.8V479.9h-.8V504Z" class="g0_1"/>
<path fill-rule="evenodd" d="M275.6,504h.7V479.9h-.7V504Z" class="g0_1"/>
<path fill-rule="evenodd" d="M300.5,504h.7V479.9h-.7V504Z" class="g0_1"/>
<path fill-rule="evenodd" d="M325.4,504h.8V479.9h-.8V504Z" class="g0_1"/>
<path fill-rule="evenodd" d="M350.3,504h.7V479.9h-.7V504Z" class="g0_1"/>
<path fill-rule="evenodd" d="M375.2,504h.8V479.9h-.8V504Z" class="g0_1"/>
<path fill-rule="evenodd" d="M400.2,504h.7V479.9h-.7V504Z" class="g0_1"/>
<path fill-rule="evenodd" d="M425,504h.7V479.9H425V504Z" class="g0_1"/>
<path fill-rule="evenodd" d="M451.1,504h.8V479.9h-.8V504Z" class="g0_1"/>
<path fill-rule="evenodd" d="M27.5,504.7h.7V504h-.7v.7Z" class="g0_1"/>
<path fill-rule="evenodd" d="M27.5,504.7h.7V504h-.7v.7Z" class="g0_1"/>
<path fill-rule="evenodd" d="M28.2,504.7H29V504h-.8v.7Z" class="g0_1"/>
<path fill-rule="evenodd" d="M29,504.7H51.9V504H29v.7Z" class="g0_1"/>
<path fill-rule="evenodd" d="M51.9,504.7h.7V504h-.7v.7Z" class="g0_1"/>
<path fill-rule="evenodd" d="M52.6,504.7H76.5V504H52.6v.7Z" class="g0_1"/>
<path fill-rule="evenodd" d="M76.5,504.7h.8V504h-.8v.7Z" class="g0_1"/>
<path fill-rule="evenodd" d="M77.3,504.7h24V504h-24v.7Z" class="g0_1"/>
<path fill-rule="evenodd" d="M101.3,504.7h.7V504h-.7v.7Z" class="g0_1"/>
<path fill-rule="evenodd" d="M102,504.7h24.1V504H102v.7Z" class="g0_1"/>
<path fill-rule="evenodd" d="M126.1,504.7h.8V504h-.8v.7Z" class="g0_1"/>
<path fill-rule="evenodd" d="M126.9,504.7h24.2V504H126.9v.7Z" class="g0_1"/>
<path fill-rule="evenodd" d="M151.1,504.7h.7V504h-.7v.7Z" class="g0_1"/>
<path fill-rule="evenodd" d="M151.8,504.7H176V504H151.8v.7Z" class="g0_1"/>
<path fill-rule="evenodd" d="M176,504.7h.8V504H176v.7Z" class="g0_1"/>
<path fill-rule="evenodd" d="M176.8,504.7h24.1V504H176.8v.7Z" class="g0_1"/>
<path fill-rule="evenodd" d="M200.9,504.7h.7V504h-.7v.7Z" class="g0_1"/>
<path fill-rule="evenodd" d="M201.6,504.7h24.2V504H201.6v.7Z" class="g0_1"/>
<path fill-rule="evenodd" d="M225.8,504.7h.7V504h-.7v.7Z" class="g0_1"/>
<path fill-rule="evenodd" d="M226.5,504.7h24.2V504H226.5v.7Z" class="g0_1"/>
<path fill-rule="evenodd" d="M250.7,504.7h.8V504h-.8v.7Z" class="g0_1"/>
<path fill-rule="evenodd" d="M251.5,504.7h24.1V504H251.5v.7Z" class="g0_1"/>
<path fill-rule="evenodd" d="M275.6,504.7h.7V504h-.7v.7Z" class="g0_1"/>
<path fill-rule="evenodd" d="M276.3,504.7h24.2V504H276.3v.7Z" class="g0_1"/>
<path fill-rule="evenodd" d="M300.5,504.7h.7V504h-.7v.7Z" class="g0_1"/>
<path fill-rule="evenodd" d="M301.2,504.7h24.2V504H301.2v.7Z" class="g0_1"/>
<path fill-rule="evenodd" d="M325.4,504.7h.8V504h-.8v.7Z" class="g0_1"/>
<path fill-rule="evenodd" d="M326.2,504.7h24.1V504H326.2v.7Z" class="g0_1"/>
<path fill-rule="evenodd" d="M350.3,504.7h.7V504h-.7v.7Z" class="g0_1"/>
<path fill-rule="evenodd" d="M351,504.7h24.2V504H351v.7Z" class="g0_1"/>
<path fill-rule="evenodd" d="M375.2,504.7h.8V504h-.8v.7Z" class="g0_1"/>
<path fill-rule="evenodd" d="M376,504.7h24.2V504H376v.7Z" class="g0_1"/>
<path fill-rule="evenodd" d="M400.2,504.7h.7V504h-.7v.7Z" class="g0_1"/>
<path fill-rule="evenodd" d="M400.9,504.7H425V504H400.9v.7Z" class="g0_1"/>
<path fill-rule="evenodd" d="M425,504.7h.7V504H425v.7Z" class="g0_1"/>
<path fill-rule="evenodd" d="M425.7,504.7h23.7V504H425.7v.7Z" class="g0_1"/>
<path fill-rule="evenodd" d="M449.4,504.7h.7V504h-.7v.7Z" class="g0_1"/>
<path fill-rule="evenodd" d="M450.1,504.7h.4V504h-.4v.7Z" class="g0_1"/>
<path fill-rule="evenodd" d="M450.5,504.7h.7V504h-.7v.7Z" class="g0_1"/>
<path fill-rule="evenodd" d="M451.1,504.7h.8V504h-.8v.7Z" class="g0_1"/>
<path fill-rule="evenodd" d="M451.1,504.7h.8V504h-.8v.7Z" class="g0_1"/>
<path fill-rule="evenodd" d="M27.5,531.4h.7v-.7h-.7v.7Z" class="g0_1"/>
<path fill-rule="evenodd" d="M27.5,531.4h.7v-.7h-.7v.7Z" class="g0_1"/>
<path fill-rule="evenodd" d="M28.2,531.4H29v-.7h-.8v.7Z" class="g0_1"/>
<path fill-rule="evenodd" d="M29,531.4H51.9v-.7H29v.7Z" class="g0_1"/>
<path fill-rule="evenodd" d="M51.9,531.4h.7v-.7h-.7v.7Z" class="g0_1"/>
<path fill-rule="evenodd" d="M52.6,531.4H76.5v-.7H52.6v.7Z" class="g0_1"/>
<path fill-rule="evenodd" d="M76.5,531.4h.8v-.7h-.8v.7Z" class="g0_1"/>
<path fill-rule="evenodd" d="M77.3,531.4h24v-.7h-24v.7Z" class="g0_1"/>
<path fill-rule="evenodd" d="M101.3,531.4h.7v-.7h-.7v.7Z" class="g0_1"/>
<path fill-rule="evenodd" d="M102,531.4h24.1v-.7H102v.7Z" class="g0_1"/>
<path fill-rule="evenodd" d="M126.1,531.4h.8v-.7h-.8v.7Z" class="g0_1"/>
<path fill-rule="evenodd" d="M126.9,531.4h24.2v-.7H126.9v.7Z" class="g0_1"/>
<path fill-rule="evenodd" d="M151.1,531.4h.7v-.7h-.7v.7Z" class="g0_1"/>
<path fill-rule="evenodd" d="M151.8,531.4H176v-.7H151.8v.7Z" class="g0_1"/>
<path fill-rule="evenodd" d="M176,531.4h.8v-.7H176v.7Z" class="g0_1"/>
<path fill-rule="evenodd" d="M176.8,531.4h24.1v-.7H176.8v.7Z" class="g0_1"/>
<path fill-rule="evenodd" d="M200.9,531.4h.7v-.7h-.7v.7Z" class="g0_1"/>
<path fill-rule="evenodd" d="M201.6,531.4h24.2v-.7H201.6v.7Z" class="g0_1"/>
<path fill-rule="evenodd" d="M225.8,531.4h.7v-.7h-.7v.7Z" class="g0_1"/>
<path fill-rule="evenodd" d="M226.5,531.4h24.2v-.7H226.5v.7Z" class="g0_1"/>
<path fill-rule="evenodd" d="M250.7,531.4h.8v-.7h-.8v.7Z" class="g0_1"/>
<path fill-rule="evenodd" d="M251.5,531.4h24.1v-.7H251.5v.7Z" class="g0_1"/>
<path fill-rule="evenodd" d="M275.6,531.4h.7v-.7h-.7v.7Z" class="g0_1"/>
<path fill-rule="evenodd" d="M276.3,531.4h24.2v-.7H276.3v.7Z" class="g0_1"/>
<path fill-rule="evenodd" d="M300.5,531.4h.7v-.7h-.7v.7Z" class="g0_1"/>
<path fill-rule="evenodd" d="M301.2,531.4h24.2v-.7H301.2v.7Z" class="g0_1"/>
<path fill-rule="evenodd" d="M325.4,531.4h.8v-.7h-.8v.7Z" class="g0_1"/>
<path fill-rule="evenodd" d="M326.2,531.4h24.1v-.7H326.2v.7Z" class="g0_1"/>
<path fill-rule="evenodd" d="M350.3,531.4h.7v-.7h-.7v.7Z" class="g0_1"/>
<path fill-rule="evenodd" d="M351,531.4h24.2v-.7H351v.7Z" class="g0_1"/>
<path fill-rule="evenodd" d="M375.2,531.4h.8v-.7h-.8v.7Z" class="g0_1"/>
<path fill-rule="evenodd" d="M376,531.4h24.2v-.7H376v.7Z" class="g0_1"/>
<path fill-rule="evenodd" d="M400.2,531.4h.7v-.7h-.7v.7Z" class="g0_1"/>
<path fill-rule="evenodd" d="M400.9,531.4H425v-.7H400.9v.7Z" class="g0_1"/>
<path fill-rule="evenodd" d="M425,531.4h.7v-.7H425v.7Z" class="g0_1"/>
<path fill-rule="evenodd" d="M425.7,531.4h23.7v-.7H425.7v.7Z" class="g0_1"/>
<path fill-rule="evenodd" d="M449.4,531.4h.7v-.7h-.7v.7Z" class="g0_1"/>
<path fill-rule="evenodd" d="M450.1,531.4h.4v-.7h-.4v.7Z" class="g0_1"/>
<path fill-rule="evenodd" d="M450.5,531.4h.7v-.7h-.7v.7Z" class="g0_1"/>
<path fill-rule="evenodd" d="M451.1,531.4h.8v-.7h-.8v.7Z" class="g0_1"/>
<path fill-rule="evenodd" d="M451.1,531.4h.8v-.7h-.8v.7Z" class="g0_1"/>
<path fill-rule="evenodd" d="M27.5,555.6h.7V531.4h-.7v24.2Z" class="g0_1"/>
<path fill-rule="evenodd" d="M51.9,555.6h.7V531.4h-.7v24.2Z" class="g0_1"/>
<path fill-rule="evenodd" d="M76.5,555.6h.8V531.4h-.8v24.2Z" class="g0_1"/>
<path fill-rule="evenodd" d="M101.3,555.6h.7V531.4h-.7v24.2Z" class="g0_1"/>
<path fill-rule="evenodd" d="M126.1,555.6h.8V531.4h-.8v24.2Z" class="g0_1"/>
<path fill-rule="evenodd" d="M151.1,555.6h.7V531.4h-.7v24.2Z" class="g0_1"/>
<path fill-rule="evenodd" d="M176,555.6h.8V531.4H176v24.2Z" class="g0_1"/>
<path fill-rule="evenodd" d="M200.9,555.6h.7V531.4h-.7v24.2Z" class="g0_1"/>
<path fill-rule="evenodd" d="M225.8,555.6h.7V531.4h-.7v24.2Z" class="g0_1"/>
<path fill-rule="evenodd" d="M250.7,555.6h.8V531.4h-.8v24.2Z" class="g0_1"/>
<path fill-rule="evenodd" d="M275.6,555.6h.7V531.4h-.7v24.2Z" class="g0_1"/>
<path fill-rule="evenodd" d="M300.5,555.6h.7V531.4h-.7v24.2Z" class="g0_1"/>
<path fill-rule="evenodd" d="M325.4,555.6h.8V531.4h-.8v24.2Z" class="g0_1"/>
<path fill-rule="evenodd" d="M350.3,555.6h.7V531.4h-.7v24.2Z" class="g0_1"/>
<path fill-rule="evenodd" d="M375.2,555.6h.8V531.4h-.8v24.2Z" class="g0_1"/>
<path fill-rule="evenodd" d="M400.2,555.6h.7V531.4h-.7v24.2Z" class="g0_1"/>
<path fill-rule="evenodd" d="M425,555.6h.7V531.4H425v24.2Z" class="g0_1"/>
<path fill-rule="evenodd" d="M451.1,555.6h.8V531.4h-.8v24.2Z" class="g0_1"/>
<path fill-rule="evenodd" d="M27.5,556.4h.7v-.8h-.7v.8Z" class="g0_1"/>
<path fill-rule="evenodd" d="M27.5,556.4h.7v-.8h-.7v.8Z" class="g0_1"/>
<path fill-rule="evenodd" d="M28.2,556.4H29v-.8h-.8v.8Z" class="g0_1"/>
<path fill-rule="evenodd" d="M29,556.4H51.9v-.8H29v.8Z" class="g0_1"/>
<path fill-rule="evenodd" d="M51.9,556.4h.7v-.8h-.7v.8Z" class="g0_1"/>
<path fill-rule="evenodd" d="M52.6,556.4H76.5v-.8H52.6v.8Z" class="g0_1"/>
<path fill-rule="evenodd" d="M76.5,556.4h.8v-.8h-.8v.8Z" class="g0_1"/>
<path fill-rule="evenodd" d="M77.3,556.4h24v-.8h-24v.8Z" class="g0_1"/>
<path fill-rule="evenodd" d="M101.3,556.4h.7v-.8h-.7v.8Z" class="g0_1"/>
<path fill-rule="evenodd" d="M102,556.4h24.1v-.8H102v.8Z" class="g0_1"/>
<path fill-rule="evenodd" d="M126.1,556.4h.8v-.8h-.8v.8Z" class="g0_1"/>
<path fill-rule="evenodd" d="M126.9,556.4h24.2v-.8H126.9v.8Z" class="g0_1"/>
<path fill-rule="evenodd" d="M151.1,556.4h.7v-.8h-.7v.8Z" class="g0_1"/>
<path fill-rule="evenodd" d="M151.8,556.4H176v-.8H151.8v.8Z" class="g0_1"/>
<path fill-rule="evenodd" d="M176,556.4h.8v-.8H176v.8Z" class="g0_1"/>
<path fill-rule="evenodd" d="M176.8,556.4h24.1v-.8H176.8v.8Z" class="g0_1"/>
<path fill-rule="evenodd" d="M200.9,556.4h.7v-.8h-.7v.8Z" class="g0_1"/>
<path fill-rule="evenodd" d="M201.6,556.4h24.2v-.8H201.6v.8Z" class="g0_1"/>
<path fill-rule="evenodd" d="M225.8,556.4h.7v-.8h-.7v.8Z" class="g0_1"/>
<path fill-rule="evenodd" d="M226.5,556.4h24.2v-.8H226.5v.8Z" class="g0_1"/>
<path fill-rule="evenodd" d="M250.7,556.4h.8v-.8h-.8v.8Z" class="g0_1"/>
<path fill-rule="evenodd" d="M251.5,556.4h24.1v-.8H251.5v.8Z" class="g0_1"/>
<path fill-rule="evenodd" d="M275.6,556.4h.7v-.8h-.7v.8Z" class="g0_1"/>
<path fill-rule="evenodd" d="M276.3,556.4h24.2v-.8H276.3v.8Z" class="g0_1"/>
<path fill-rule="evenodd" d="M300.5,556.4h.7v-.8h-.7v.8Z" class="g0_1"/>
<path fill-rule="evenodd" d="M301.2,556.4h24.2v-.8H301.2v.8Z" class="g0_1"/>
<path fill-rule="evenodd" d="M325.4,556.4h.8v-.8h-.8v.8Z" class="g0_1"/>
<path fill-rule="evenodd" d="M326.2,556.4h24.1v-.8H326.2v.8Z" class="g0_1"/>
<path fill-rule="evenodd" d="M350.3,556.4h.7v-.8h-.7v.8Z" class="g0_1"/>
<path fill-rule="evenodd" d="M351,556.4h24.2v-.8H351v.8Z" class="g0_1"/>
<path fill-rule="evenodd" d="M375.2,556.4h.8v-.8h-.8v.8Z" class="g0_1"/>
<path fill-rule="evenodd" d="M376,556.4h24.2v-.8H376v.8Z" class="g0_1"/>
<path fill-rule="evenodd" d="M400.2,556.4h.7v-.8h-.7v.8Z" class="g0_1"/>
<path fill-rule="evenodd" d="M400.9,556.4H425v-.8H400.9v.8Z" class="g0_1"/>
<path fill-rule="evenodd" d="M425,556.4h.7v-.8H425v.8Z" class="g0_1"/>
<path fill-rule="evenodd" d="M425.7,556.4h23.7v-.8H425.7v.8Z" class="g0_1"/>
<path fill-rule="evenodd" d="M449.4,556.4h.7v-.8h-.7v.8Z" class="g0_1"/>
<path fill-rule="evenodd" d="M450.1,556.4h.4v-.8h-.4v.8Z" class="g0_1"/>
<path fill-rule="evenodd" d="M450.5,556.4h.7v-.8h-.7v.8Z" class="g0_1"/>
<path fill-rule="evenodd" d="M451.1,556.4h.8v-.8h-.8v.8Z" class="g0_1"/>
<path fill-rule="evenodd" d="M451.1,556.4h.8v-.8h-.8v.8Z" class="g0_1"/>
<path fill-rule="evenodd" d="M209.8,579.5h.7v-.8h-.7v.8Z" class="g0_1"/>
<path fill-rule="evenodd" d="M209.8,579.5h.7v-.8h-.7v.8Z" class="g0_1"/>
<path fill-rule="evenodd" d="M210.5,579.5h.7v-.8h-.7v.8Z" class="g0_1"/>
<path fill-rule="evenodd" d="M211.2,579.5h22.6v-.8H211.2v.8Z" class="g0_1"/>
<path fill-rule="evenodd" d="M233.8,579.5h.7v-.8h-.7v.8Z" class="g0_1"/>
<path fill-rule="evenodd" d="M234.5,579.5h.7v-.8h-.7v.8Z" class="g0_1"/>
<path fill-rule="evenodd" d="M235.2,579.5h22.6v-.8H235.2v.8Z" class="g0_1"/>
<path fill-rule="evenodd" d="M257.8,579.5h.7v-.8h-.7v.8Z" class="g0_1"/>
<path fill-rule="evenodd" d="M257.8,579.5h.7v-.8h-.7v.8Z" class="g0_1"/>
<path fill-rule="evenodd" d="M282.2,579.5h.7v-.8h-.7v.8Z" class="g0_1"/>
<path fill-rule="evenodd" d="M282.2,579.5h.7v-.8h-.7v.8Z" class="g0_1"/>
<path fill-rule="evenodd" d="M282.9,579.5h.7v-.8h-.7v.8Z" class="g0_1"/>
<path fill-rule="evenodd" d="M283.6,579.5h22.7v-.8H283.6v.8Z" class="g0_1"/>
<path fill-rule="evenodd" d="M306.3,579.5h.7v-.8h-.7v.8Z" class="g0_1"/>
<path fill-rule="evenodd" d="M307,579.5h.8v-.8H307v.8Z" class="g0_1"/>
<path fill-rule="evenodd" d="M307.8,579.5h22.5v-.8H307.8v.8Z" class="g0_1"/>
<path fill-rule="evenodd" d="M330.3,579.5h.7v-.8h-.7v.8Z" class="g0_1"/>
<path fill-rule="evenodd" d="M330.3,579.5h.7v-.8h-.7v.8Z" class="g0_1"/>
<path fill-rule="evenodd" d="M354.4,579.5h.7v-.8h-.7v.8Z" class="g0_1"/>
<path fill-rule="evenodd" d="M354.4,579.5h.7v-.8h-.7v.8Z" class="g0_1"/>
<path fill-rule="evenodd" d="M355.1,579.5h.8v-.8h-.8v.8Z" class="g0_1"/>
<path fill-rule="evenodd" d="M355.9,579.5h22.5v-.8H355.9v.8Z" class="g0_1"/>
<path fill-rule="evenodd" d="M378.4,579.5h.8v-.8h-.8v.8Z" class="g0_1"/>
<path fill-rule="evenodd" d="M379.2,579.5h.7v-.8h-.7v.8Z" class="g0_1"/>
<path fill-rule="evenodd" d="M379.9,579.5h22.6v-.8H379.9v.8Z" class="g0_1"/>
<path fill-rule="evenodd" d="M402.5,579.5h.8v-.8h-.8v.8Z" class="g0_1"/>
<path fill-rule="evenodd" d="M403.3,579.5h.7v-.8h-.7v.8Z" class="g0_1"/>
<path fill-rule="evenodd" d="M404,579.5h22.6v-.8H404v.8Z" class="g0_1"/>
<path fill-rule="evenodd" d="M426.6,579.5h.7v-.8h-.7v.8Z" class="g0_1"/>
<path fill-rule="evenodd" d="M427.3,579.5h.7v-.8h-.7v.8Z" class="g0_1"/>
<path fill-rule="evenodd" d="M428,579.5h23.1v-.8H428v.8Z" class="g0_1"/>
<path fill-rule="evenodd" d="M451.1,579.5h.8v-.8h-.8v.8Z" class="g0_1"/>
<path fill-rule="evenodd" d="M209.8,603.6h.7V579.5h-.7v24.1Z" class="g0_1"/>
<path fill-rule="evenodd" d="M233.8,603.6h.7V579.5h-.7v24.1Z" class="g0_1"/>
<path fill-rule="evenodd" d="M257.8,603.6h.7V579.5h-.7v24.1Z" class="g0_1"/>
<path fill-rule="evenodd" d="M282.2,603.6h.7V579.5h-.7v24.1Z" class="g0_1"/>
<path fill-rule="evenodd" d="M306.3,603.6h.7V579.5h-.7v24.1Z" class="g0_1"/>
<path fill-rule="evenodd" d="M330.3,603.6h.7V579.5h-.7v24.1Z" class="g0_1"/>
<path fill-rule="evenodd" d="M354.4,603.6h.7V579.5h-.7v24.1Z" class="g0_1"/>
<path fill-rule="evenodd" d="M378.4,603.6h.8V579.5h-.8v24.1Z" class="g0_1"/>
<path fill-rule="evenodd" d="M402.5,603.6h.8V579.5h-.8v24.1Z" class="g0_1"/>
<path fill-rule="evenodd" d="M426.6,603.6h.7V579.5h-.7v24.1Z" class="g0_1"/>
<path fill-rule="evenodd" d="M451.1,603.6h.8V579.5h-.8v24.1Z" class="g0_1"/>
<path fill-rule="evenodd" d="M209.8,604.3h.7v-.7h-.7v.7Z" class="g0_1"/>
<path fill-rule="evenodd" d="M209.8,604.3h.7v-.7h-.7v.7Z" class="g0_1"/>
<path fill-rule="evenodd" d="M210.5,604.3h23.3v-.7H210.5v.7Z" class="g0_1"/>
<path fill-rule="evenodd" d="M233.8,604.3h.7v-.7h-.7v.7Z" class="g0_1"/>
<path fill-rule="evenodd" d="M234.5,604.3h23.3v-.7H234.5v.7Z" class="g0_1"/>
<path fill-rule="evenodd" d="M257.8,604.3h.7v-.7h-.7v.7Z" class="g0_1"/>
<path fill-rule="evenodd" d="M257.8,604.3h.7v-.7h-.7v.7Z" class="g0_1"/>
<path fill-rule="evenodd" d="M282.2,604.3h.7v-.7h-.7v.7Z" class="g0_1"/>
<path fill-rule="evenodd" d="M282.2,604.3h.7v-.7h-.7v.7Z" class="g0_1"/>
<path fill-rule="evenodd" d="M282.9,604.3h23.4v-.7H282.9v.7Z" class="g0_1"/>
<path fill-rule="evenodd" d="M306.3,604.3h.7v-.7h-.7v.7Z" class="g0_1"/>
<path fill-rule="evenodd" d="M307,604.3h23.3v-.7H307v.7Z" class="g0_1"/>
<path fill-rule="evenodd" d="M330.3,604.3h.7v-.7h-.7v.7Z" class="g0_1"/>
<path fill-rule="evenodd" d="M330.3,604.3h.7v-.7h-.7v.7Z" class="g0_1"/>
<path fill-rule="evenodd" d="M354.4,604.3h.7v-.7h-.7v.7Z" class="g0_1"/>
<path fill-rule="evenodd" d="M354.4,604.3h.7v-.7h-.7v.7Z" class="g0_1"/>
<path fill-rule="evenodd" d="M355.1,604.3h23.3v-.7H355.1v.7Z" class="g0_1"/>
<path fill-rule="evenodd" d="M378.4,604.3h.8v-.7h-.8v.7Z" class="g0_1"/>
<path fill-rule="evenodd" d="M379.2,604.3h23.3v-.7H379.2v.7Z" class="g0_1"/>
<path fill-rule="evenodd" d="M402.5,604.3h.8v-.7h-.8v.7Z" class="g0_1"/>
<path fill-rule="evenodd" d="M403.3,604.3h23.3v-.7H403.3v.7Z" class="g0_1"/>
<path fill-rule="evenodd" d="M426.6,604.3h.7v-.7h-.7v.7Z" class="g0_1"/>
<path fill-rule="evenodd" d="M427.3,604.3h22.1v-.7H427.3v.7Z" class="g0_1"/>
<path fill-rule="evenodd" d="M449.4,604.3h.7v-.7h-.7v.7Z" class="g0_1"/>
<path fill-rule="evenodd" d="M450.1,604.3h.4v-.7h-.4v.7Z" class="g0_1"/>
<path fill-rule="evenodd" d="M450.5,604.3h.7v-.7h-.7v.7Z" class="g0_1"/>
<path fill-rule="evenodd" d="M451.1,604.3h.8v-.7h-.8v.7Z" class="g0_1"/>
<path fill-rule="evenodd" d="M451.1,604.3h.8v-.7h-.8v.7Z" class="g0_1"/>
<path fill-rule="evenodd" d="M27.9,657.4H449.4v-.7H27.9v.7Z" class="g0_1"/>
<path fill-rule="evenodd" d="M27.9,677.7H449.4v-.8H27.9v.8Z" class="g0_1"/>
<path fill-rule="evenodd" d="M27.9,697.9H131.7v-.7H27.9v.7Z" class="g0_1"/>
<path fill-rule="evenodd" d="M131.7,697.9h.8v-.7h-.8v.7Z" class="g0_1"/>
<path fill-rule="evenodd" d="M132.5,697.9H239.2v-.7H132.5v.7Z" class="g0_1"/>
<path fill-rule="evenodd" d="M239.2,697.9h.7v-.7h-.7v.7Z" class="g0_1"/>
<path fill-rule="evenodd" d="M239.9,697.9h97.3v-.7H239.9v.7Z" class="g0_1"/>
<path fill-rule="evenodd" d="M337.2,697.9h.7v-.7h-.7v.7Z" class="g0_1"/>
<path fill-rule="evenodd" d="M337.9,697.9H449.4v-.7H337.9v.7Z" class="g0_1"/>
<path fill-rule="evenodd" d="M131.7,718.2H239.2v-.8H131.7v.8Z" class="g0_1"/>
<path fill-rule="evenodd" d="M337.2,718.2H449.4v-.8H337.2v.8Z" class="g0_1"/>
<path fill-rule="evenodd" d="M131.7,738.4H449.4v-.7H131.7v.7Z" class="g0_1"/>
<path fill-rule="evenodd" d="M131.7,767.3H449.4v-.7H131.7v.7Z" class="g0_1"/>
<path fill-rule="evenodd" d="M131.7,787.5H449.4v-.8H131.7v.8Z" class="g0_1"/>
<path fill-rule="evenodd" d="M27.9,833.8H449.4V833H27.9v.8Z" class="g0_1"/>
<path fill-rule="evenodd" d="M27.9,853.9H449.4v-.7H27.9v.7Z" class="g0_1"/>
<path fill-rule="evenodd" d="M27.9,874.2H449.4v-.7H27.9v.7Z" class="g0_1"/>
<path fill-rule="evenodd" d="M27.9,920.4H449.4v-.7H27.9v.7Z" class="g0_1"/>
<path fill-rule="evenodd" d="M27.9,940.7H449.4v-.8H27.9v.8Z" class="g0_1"/>
<path fill-rule="evenodd" d="M27.9,986.9H449.4v-.8H27.9v.8Z" class="g0_1"/>
<path fill-rule="evenodd" d="M27.9,1007.1H273.4v-.7H27.9v.7Z" class="g0_1"/>
<path fill-rule="evenodd" d="M273.4,1007.1h.7v-.7h-.7v.7Z" class="g0_1"/>
<path fill-rule="evenodd" d="M274.1,1007.1h75.2v-.7H274.1v.7Z" class="g0_1"/>
<path fill-rule="evenodd" d="M349.3,1007.1h.7v-.7h-.7v.7Z" class="g0_1"/>
<path fill-rule="evenodd" d="M350,1007.1h99.4v-.7H350v.7Z" class="g0_1"/>
<path fill-rule="evenodd" d="M27.9,1027.4H131.7v-.8H27.9v.8Z" class="g0_1"/>
<path fill-rule="evenodd" d="M131.7,1027.4h.8v-.8h-.8v.8Z" class="g0_1"/>
<path fill-rule="evenodd" d="M132.5,1027.4H273.4v-.8H132.5v.8Z" class="g0_1"/>
<path fill-rule="evenodd" d="M349.3,1027.4H449.4v-.8H349.3v.8Z" class="g0_1"/>
<path fill-rule="evenodd" d="M131.7,1047.6H293.9v-.7H131.7v.7Z" class="g0_1"/>
<path fill-rule="evenodd" d="M293.9,1047.6h.7v-.7h-.7v.7Z" class="g0_1"/>
<path fill-rule="evenodd" d="M294.6,1047.6h54.7v-.7H294.6v.7Z" class="g0_1"/>
<path fill-rule="evenodd" d="M349.3,1047.6h.7v-.7h-.7v.7Z" class="g0_1"/>
<path fill-rule="evenodd" d="M350,1047.6h99.4v-.7H350v.7Z" class="g0_1"/>
<path fill-rule="evenodd" d="M131.7,1067.9H293.9v-.7H131.7v.7Z" class="g0_1"/>
<path fill-rule="evenodd" d="M349.3,1067.9H449.4v-.7H349.3v.7Z" class="g0_1"/>
<path fill-rule="evenodd" d="M131.7,1088.2H449.4v-.8H131.7v.8Z" class="g0_1"/>
<path fill-rule="evenodd" d="M27.9,1101.9H273.4v-.7H27.9v.7Z" class="g0_1"/>
<path fill-rule="evenodd" d="M273.4,1101.9h.7v-.7h-.7v.7Z" class="g0_1"/>
<path fill-rule="evenodd" d="M274.1,1101.9h75.2v-.7H274.1v.7Z" class="g0_1"/>
<path fill-rule="evenodd" d="M349.3,1101.9h.7v-.7h-.7v.7Z" class="g0_1"/>
<path fill-rule="evenodd" d="M350,1101.9h99.4v-.7H350v.7Z" class="g0_1"/>
<path fill-rule="evenodd" d="M486.8,105.1h93.1v-.8H486.8v.8Z" class="g0_1"/>
<path fill-rule="evenodd" d="M579.9,105.1h.8v-.8h-.8v.8Z" class="g0_1"/>
<path fill-rule="evenodd" d="M580.7,105.1H752.8v-.8H580.7v.8Z" class="g0_1"/>
<path fill-rule="evenodd" d="M752.8,105.1h.8v-.8h-.8v.8Z" class="g0_1"/>
<path fill-rule="evenodd" d="M753.6,105.1H906.3v-.8H753.6v.8Z" class="g0_1"/>
<path fill-rule="evenodd" d="M482.8,457h1.1v-8.1h-1.1V457Z" class="g0_1"/>
<path fill-rule="evenodd" d="M482.8,450h7.8v-1.1h-7.8V450Z" class="g0_1"/>
<path fill-rule="evenodd" d="M485,457h3.4v-5.9H485V457Z" class="g0_1"/>
<path fill-rule="evenodd" d="M485,454.5h5.6v-3.4H485v3.4Z" class="g0_1"/>
<path fill-rule="evenodd" d="M489.5,457h1.1v-1.4h-1.1V457Z" class="g0_1"/>
<path fill-rule="evenodd" d="M489.5,456.7h1.1v-1.1h-1.1v1.1Z" class="g0_1"/>
<path fill-rule="evenodd" d="M490.6,450h7.9v-1.1h-7.9V450Z" class="g0_1"/>
<path fill-rule="evenodd" d="M490.6,454.5h7.9v-3.4h-7.9v3.4Z" class="g0_1"/>
<path fill-rule="evenodd" d="M490.6,456.7h7.9v-1.1h-7.9v1.1Z" class="g0_1"/>
<path fill-rule="evenodd" d="M498.5,450H902.4v-1.1H498.5V450Z" class="g0_1"/>
<path fill-rule="evenodd" d="M498.5,454.5H902.4v-3.4H498.5v3.4Z" class="g0_1"/>
<path fill-rule="evenodd" d="M498.5,456.7H902.4v-1.1H498.5v1.1Z" class="g0_1"/>
<path fill-rule="evenodd" d="M909.1,457h1.1v-.3h-1.1v.3Z" class="g0_1"/>
<path fill-rule="evenodd" d="M904.6,457H908v-.3h-3.4v.3Z" class="g0_1"/>
<path fill-rule="evenodd" d="M902.4,457h1.1v-.3h-1.1v.3Z" class="g0_1"/>
<path fill-rule="evenodd" d="M902.4,450h7.8v-1.1h-7.8V450Z" class="g0_1"/>
<path fill-rule="evenodd" d="M902.4,456.7h1.1v-1.1h-1.1v1.1Z" class="g0_1"/>
<path fill-rule="evenodd" d="M909.1,456.7h1.1v-1.1h-1.1v1.1Z" class="g0_1"/>
<path fill-rule="evenodd" d="M904.6,456.7H908v-5.6h-3.4v5.6Z" class="g0_1"/>
<path fill-rule="evenodd" d="M902.4,454.5h7.8v-3.4h-7.8v3.4Z" class="g0_1"/>
<path fill-rule="evenodd" d="M489.5,526h1.1V457h-1.1v69Z" class="g0_1"/>
<path fill-rule="evenodd" d="M485,526h3.4V457H485v69Z" class="g0_1"/>
<path fill-rule="evenodd" d="M482.8,526h1.1V457h-1.1v69Z" class="g0_1"/>
<path fill-rule="evenodd" d="M909.1,526h1.1V457h-1.1v69Z" class="g0_1"/>
<path fill-rule="evenodd" d="M904.6,526H908V457h-3.4v69Z" class="g0_1"/>
<path fill-rule="evenodd" d="M902.4,526h1.1V457h-1.1v69Z" class="g0_1"/>
<path fill-rule="evenodd" d="M482.8,533.8h1.1V526h-1.1v7.8Z" class="g0_1"/>
<path fill-rule="evenodd" d="M482.8,533.8h7.8v-1.1h-7.8v1.1Z" class="g0_1"/>
<path fill-rule="evenodd" d="M485,531.6h3.4V526H485v5.6Z" class="g0_1"/>
<path fill-rule="evenodd" d="M485,531.6h5.6v-3.4H485v3.4Z" class="g0_1"/>
<path fill-rule="evenodd" d="M489.5,527.1h1.1V526h-1.1v1.1Z" class="g0_1"/>
<path fill-rule="evenodd" d="M489.5,527.1h1.1V526h-1.1v1.1Z" class="g0_1"/>
<path fill-rule="evenodd" d="M490.6,527.1h7.9V526h-7.9v1.1Z" class="g0_1"/>
<path fill-rule="evenodd" d="M490.6,531.6h7.9v-3.4h-7.9v3.4Z" class="g0_1"/>
<path fill-rule="evenodd" d="M490.6,533.8h7.9v-1.1h-7.9v1.1Z" class="g0_1"/>
<path fill-rule="evenodd" d="M498.5,527.1H902.4V526H498.5v1.1Z" class="g0_1"/>
<path fill-rule="evenodd" d="M498.5,531.6H902.4v-3.4H498.5v3.4Z" class="g0_1"/>
<path fill-rule="evenodd" d="M498.5,533.8H902.4v-1.1H498.5v1.1Z" class="g0_1"/>
<path fill-rule="evenodd" d="M902.4,527.1h1.1V526h-1.1v1.1Z" class="g0_1"/>
<path fill-rule="evenodd" d="M909.1,527.1h1.1V526h-1.1v1.1Z" class="g0_1"/>
<path fill-rule="evenodd" d="M902.4,533.8h7.8v-1.1h-7.8v1.1Z" class="g0_1"/>
<path fill-rule="evenodd" d="M904.6,531.6H908V526h-3.4v5.6Z" class="g0_1"/>
<path fill-rule="evenodd" d="M902.4,531.6h7.8v-3.4h-7.8v3.4Z" class="g0_1"/>
<path fill-rule="evenodd" d="M486.8,651.1h30.4v-.8H486.8v.8Z" class="g0_1"/>
<path fill-rule="evenodd" d="M517.2,651.1h.7v-.8h-.7v.8Z" class="g0_1"/>
<path fill-rule="evenodd" d="M517.9,651.1H623.2v-.8H517.9v.8Z" class="g0_1"/>
<path fill-rule="evenodd" d="M623.2,651.1h.7v-.8h-.7v.8Z" class="g0_1"/>
<path fill-rule="evenodd" d="M623.9,651.1h31.8v-.8H623.9v.8Z" class="g0_1"/>
<path fill-rule="evenodd" d="M655.7,651.1h.7v-.8h-.7v.8Z" class="g0_1"/>
<path fill-rule="evenodd" d="M656.4,651.1H763.9v-.8H656.4v.8Z" class="g0_1"/>
<path fill-rule="evenodd" d="M763.9,651.1h.8v-.8h-.8v.8Z" class="g0_1"/>
<path fill-rule="evenodd" d="M764.7,651.1h33.2v-.8H764.7v.8Z" class="g0_1"/>
<path fill-rule="evenodd" d="M797.9,651.1h.8v-.8h-.8v.8Z" class="g0_1"/>
<path fill-rule="evenodd" d="M798.7,651.1H906.3v-.8H798.7v.8Z" class="g0_1"/>
<path fill-rule="evenodd" d="M486.8,842.1h30.4v-.7H486.8v.7Z" class="g0_1"/>
<path fill-rule="evenodd" d="M517.2,842.1h.7v-.7h-.7v.7Z" class="g0_1"/>
<path fill-rule="evenodd" d="M517.9,842.1H655.7v-.7H517.9v.7Z" class="g0_1"/>
<path fill-rule="evenodd" d="M655.7,842.1h.7v-.7h-.7v.7Z" class="g0_1"/>
<path fill-rule="evenodd" d="M656.4,842.1H906.3v-.7H656.4v.7Z" class="g0_1"/>
<path fill-rule="evenodd" d="M486.8,998.9H906.3v-.7H486.8v.7Z" class="g0_1"/>
<path fill-rule="evenodd" d="M486.8,1086.3h30.4v-.8H486.8v.8Z" class="g0_1"/>
<path fill-rule="evenodd" d="M517.2,1086.3h.7v-.8h-.7v.8Z" class="g0_1"/>
<path fill-rule="evenodd" d="M517.9,1086.3H906.3v-.8H517.9v.8Z" class="g0_1"/>
<path fill-rule="evenodd" d="M721.4,1147.7H906.3v-.8H721.4v.8Z" class="g0_1"/>
<path fill-rule="evenodd" d="M469.5,1182h1.2V71.5h-1.2V1182Z" class="g0_1"/>
<path fill-rule="evenodd" d="M41,234.7h83.7v-1H41v1Z" class="g1_1"/>
</svg>