<svg xmlns="http://www.w3.org/2000/svg" xmlns:xlink="http://www.w3.org/1999/xlink" version="1.1" width="935" height="1210"><rect id="backgroundrect" width="100%" height="100%" x="0" y="0" fill="none" stroke="none"/>
<defs>
<style type="text/css"><![CDATA[
.g0_1{
}
.g1_1{
fill: #0563C1;
}
]]></style>
</defs>











































































































































































































































































































































































































































































































































<g class="currentLayer" style=""><title>Layer 1</title><path fill-rule="evenodd" d="M249,312.6h.7v-.7H249v.7Z" class="g0_1" id="svg_1"/><path fill-rule="evenodd" d="M249,312.6h.7v-.7H249v.7Z" class="g0_1" id="svg_2"/><path fill-rule="evenodd" d="M249.7,312.6h32.5v-.7H249.7v.7Z" class="g0_1" id="svg_3"/><path fill-rule="evenodd" d="M282.2,312.6h.7v-.7h-.7v.7Z" class="g0_1" id="svg_4"/><path fill-rule="evenodd" d="M282.9,312.6h32.6v-.7H282.9v.7Z" class="g0_1" id="svg_5"/><path fill-rule="evenodd" d="M315.5,312.6h.7v-.7h-.7v.7Z" class="g0_1" id="svg_6"/><path fill-rule="evenodd" d="M316.2,312.6h32.7v-.7H316.2v.7Z" class="g0_1" id="svg_7"/><path fill-rule="evenodd" d="M348.9,312.6h.7v-.7h-.7v.7Z" class="g0_1" id="svg_8"/><path fill-rule="evenodd" d="M349.6,312.6h32.6v-.7H349.6v.7Z" class="g0_1" id="svg_9"/><path fill-rule="evenodd" d="M382.2,312.6h.7v-.7h-.7v.7Z" class="g0_1" id="svg_10"/><path fill-rule="evenodd" d="M382.9,312.6h32.5v-.7H382.9v.7Z" class="g0_1" id="svg_11"/><path fill-rule="evenodd" d="M415.4,312.6h.7v-.7h-.7v.7Z" class="g0_1" id="svg_12"/><path fill-rule="evenodd" d="M416.1,312.6H449v-.7H416.1v.7Z" class="g0_1" id="svg_13"/><path fill-rule="evenodd" d="M449,312.6h.7v-.7H449v.7Z" class="g0_1" id="svg_14"/><path fill-rule="evenodd" d="M449,312.6h.7v-.7H449v.7Z" class="g0_1" id="svg_15"/><path fill-rule="evenodd" d="M249,339h.7V312.6H249V339Z" class="g0_1" id="svg_16"/><path fill-rule="evenodd" d="M282.2,339h.7V312.6h-.7V339Z" class="g0_1" id="svg_17"/><path fill-rule="evenodd" d="M315.5,339h.7V312.6h-.7V339Z" class="g0_1" id="svg_18"/><path fill-rule="evenodd" d="M348.9,339h.7V312.6h-.7V339Z" class="g0_1" id="svg_19"/><path fill-rule="evenodd" d="M382.2,339h.7V312.6h-.7V339Z" class="g0_1" id="svg_20"/><path fill-rule="evenodd" d="M415.4,339h.7V312.6h-.7V339Z" class="g0_1" id="svg_21"/><path fill-rule="evenodd" d="M449,339h.7V312.6H449V339Z" class="g0_1" id="svg_22"/><path fill-rule="evenodd" d="M249,339.7h.7V339H249v.7Z" class="g0_1" id="svg_23"/><path fill-rule="evenodd" d="M249,339.7h.7V339H249v.7Z" class="g0_1" id="svg_24"/><path fill-rule="evenodd" d="M249.7,339.7h.8V339h-.8v.7Z" class="g0_1" id="svg_25"/><path fill-rule="evenodd" d="M250.5,339.7h31.7V339H250.5v.7Z" class="g0_1" id="svg_26"/><path fill-rule="evenodd" d="M282.2,339.7h.7V339h-.7v.7Z" class="g0_1" id="svg_27"/><path fill-rule="evenodd" d="M282.9,339.7h32.6V339H282.9v.7Z" class="g0_1" id="svg_28"/><path fill-rule="evenodd" d="M315.5,339.7h.7V339h-.7v.7Z" class="g0_1" id="svg_29"/><path fill-rule="evenodd" d="M316.2,339.7h32.7V339H316.2v.7Z" class="g0_1" id="svg_30"/><path fill-rule="evenodd" d="M348.9,339.7h.7V339h-.7v.7Z" class="g0_1" id="svg_31"/><path fill-rule="evenodd" d="M349.6,339.7h32.6V339H349.6v.7Z" class="g0_1" id="svg_32"/><path fill-rule="evenodd" d="M382.2,339.7h.7V339h-.7v.7Z" class="g0_1" id="svg_33"/><path fill-rule="evenodd" d="M382.9,339.7h32.5V339H382.9v.7Z" class="g0_1" id="svg_34"/><path fill-rule="evenodd" d="M415.4,339.7h.7V339h-.7v.7Z" class="g0_1" id="svg_35"/><path fill-rule="evenodd" d="M416.1,339.7H449V339H416.1v.7Z" class="g0_1" id="svg_36"/><path fill-rule="evenodd" d="M449,339.7h.7V339H449v.7Z" class="g0_1" id="svg_37"/><path fill-rule="evenodd" d="M126.5,376H449.4v-.8H126.5v.8Z" class="g0_1" id="svg_38"/><path fill-rule="evenodd" d="M126.5,397.2H449.4v-.7H126.5v.7Z" class="g0_1" id="svg_39"/><path fill-rule="evenodd" d="M27.5,423.9h.7v-.7h-.7v.7Z" class="g0_1" id="svg_40"/><path fill-rule="evenodd" d="M27.5,423.9h.7v-.7h-.7v.7Z" class="g0_1" id="svg_41"/><path fill-rule="evenodd" d="M28.2,423.9H29v-.7h-.8v.7Z" class="g0_1" id="svg_42"/><path fill-rule="evenodd" d="M29,423.9H51.9v-.7H29v.7Z" class="g0_1" id="svg_43"/><path fill-rule="evenodd" d="M51.9,423.9h.7v-.7h-.7v.7Z" class="g0_1" id="svg_44"/><path fill-rule="evenodd" d="M52.6,423.9H76.5v-.7H52.6v.7Z" class="g0_1" id="svg_45"/><path fill-rule="evenodd" d="M76.5,423.9h.8v-.7h-.8v.7Z" class="g0_1" id="svg_46"/><path fill-rule="evenodd" d="M77.3,423.9h24v-.7h-24v.7Z" class="g0_1" id="svg_47"/><path fill-rule="evenodd" d="M101.3,423.9h.7v-.7h-.7v.7Z" class="g0_1" id="svg_48"/><path fill-rule="evenodd" d="M102,423.9h24.1v-.7H102v.7Z" class="g0_1" id="svg_49"/><path fill-rule="evenodd" d="M126.1,423.9h.8v-.7h-.8v.7Z" class="g0_1" id="svg_50"/><path fill-rule="evenodd" d="M126.9,423.9h24.2v-.7H126.9v.7Z" class="g0_1" id="svg_51"/><path fill-rule="evenodd" d="M151.1,423.9h.7v-.7h-.7v.7Z" class="g0_1" id="svg_52"/><path fill-rule="evenodd" d="M151.8,423.9H176v-.7H151.8v.7Z" class="g0_1" id="svg_53"/><path fill-rule="evenodd" d="M176,423.9h.8v-.7H176v.7Z" class="g0_1" id="svg_54"/><path fill-rule="evenodd" d="M176.8,423.9h24.1v-.7H176.8v.7Z" class="g0_1" id="svg_55"/><path fill-rule="evenodd" d="M200.9,423.9h.7v-.7h-.7v.7Z" class="g0_1" id="svg_56"/><path fill-rule="evenodd" d="M201.6,423.9h24.2v-.7H201.6v.7Z" class="g0_1" id="svg_57"/><path fill-rule="evenodd" d="M225.8,423.9h.7v-.7h-.7v.7Z" class="g0_1" id="svg_58"/><path fill-rule="evenodd" d="M226.5,423.9h24.2v-.7H226.5v.7Z" class="g0_1" id="svg_59"/><path fill-rule="evenodd" d="M250.7,423.9h.8v-.7h-.8v.7Z" class="g0_1" id="svg_60"/><path fill-rule="evenodd" d="M251.5,423.9h24.1v-.7H251.5v.7Z" class="g0_1" id="svg_61"/><path fill-rule="evenodd" d="M275.6,423.9h.7v-.7h-.7v.7Z" class="g0_1" id="svg_62"/><path fill-rule="evenodd" d="M276.3,423.9h24.2v-.7H276.3v.7Z" class="g0_1" id="svg_63"/><path fill-rule="evenodd" d="M300.5,423.9h.7v-.7h-.7v.7Z" class="g0_1" id="svg_64"/><path fill-rule="evenodd" d="M301.2,423.9h24.2v-.7H301.2v.7Z" class="g0_1" id="svg_65"/><path fill-rule="evenodd" d="M325.4,423.9h.8v-.7h-.8v.7Z" class="g0_1" id="svg_66"/><path fill-rule="evenodd" d="M326.2,423.9h24.1v-.7H326.2v.7Z" class="g0_1" id="svg_67"/><path fill-rule="evenodd" d="M350.3,423.9h.7v-.7h-.7v.7Z" class="g0_1" id="svg_68"/><path fill-rule="evenodd" d="M351,423.9h24.2v-.7H351v.7Z" class="g0_1" id="svg_69"/><path fill-rule="evenodd" d="M375.2,423.9h.8v-.7h-.8v.7Z" class="g0_1" id="svg_70"/><path fill-rule="evenodd" d="M376,423.9h24.2v-.7H376v.7Z" class="g0_1" id="svg_71"/><path fill-rule="evenodd" d="M400.2,423.9h.7v-.7h-.7v.7Z" class="g0_1" id="svg_72"/><path fill-rule="evenodd" d="M400.9,423.9H425v-.7H400.9v.7Z" class="g0_1" id="svg_73"/><path fill-rule="evenodd" d="M425,423.9h.7v-.7H425v.7Z" class="g0_1" id="svg_74"/><path fill-rule="evenodd" d="M425.7,423.9h23.7v-.7H425.7v.7Z" class="g0_1" id="svg_75"/><path fill-rule="evenodd" d="M449.4,423.9h.7v-.7h-.7v.7Z" class="g0_1" id="svg_76"/><path fill-rule="evenodd" d="M450.1,423.9h.4v-.7h-.4v.7Z" class="g0_1" id="svg_77"/><path fill-rule="evenodd" d="M450.5,423.9h.7v-.7h-.7v.7Z" class="g0_1" id="svg_78"/><path fill-rule="evenodd" d="M451.1,423.9h.8v-.7h-.8v.7Z" class="g0_1" id="svg_79"/><path fill-rule="evenodd" d="M451.1,423.9h.8v-.7h-.8v.7Z" class="g0_1" id="svg_80"/><path fill-rule="evenodd" d="M27.5,448h.7V423.9h-.7V448Z" class="g0_1" id="svg_81"/><path fill-rule="evenodd" d="M51.9,448h.7V423.9h-.7V448Z" class="g0_1" id="svg_82"/><path fill-rule="evenodd" d="M76.5,448h.8V423.9h-.8V448Z" class="g0_1" id="svg_83"/><path fill-rule="evenodd" d="M101.3,448h.7V423.9h-.7V448Z" class="g0_1" id="svg_84"/><path fill-rule="evenodd" d="M126.1,448h.8V423.9h-.8V448Z" class="g0_1" id="svg_85"/><path fill-rule="evenodd" d="M151.1,448h.7V423.9h-.7V448Z" class="g0_1" id="svg_86"/><path fill-rule="evenodd" d="M176,448h.8V423.9H176V448Z" class="g0_1" id="svg_87"/><path fill-rule="evenodd" d="M200.9,448h.7V423.9h-.7V448Z" class="g0_1" id="svg_88"/><path fill-rule="evenodd" d="M225.8,448h.7V423.9h-.7V448Z" class="g0_1" id="svg_89"/><path fill-rule="evenodd" d="M250.7,448h.8V423.9h-.8V448Z" class="g0_1" id="svg_90"/><path fill-rule="evenodd" d="M275.6,448h.7V423.9h-.7V448Z" class="g0_1" id="svg_91"/><path fill-rule="evenodd" d="M300.5,448h.7V423.9h-.7V448Z" class="g0_1" id="svg_92"/><path fill-rule="evenodd" d="M325.4,448h.8V423.9h-.8V448Z" class="g0_1" id="svg_93"/><path fill-rule="evenodd" d="M350.3,448h.7V423.9h-.7V448Z" class="g0_1" id="svg_94"/><path fill-rule="evenodd" d="M375.2,448h.8V423.9h-.8V448Z" class="g0_1" id="svg_95"/><path fill-rule="evenodd" d="M400.2,448h.7V423.9h-.7V448Z" class="g0_1" id="svg_96"/><path fill-rule="evenodd" d="M425,448h.7V423.9H425V448Z" class="g0_1" id="svg_97"/><path fill-rule="evenodd" d="M451.1,448h.8V423.9h-.8V448Z" class="g0_1" id="svg_98"/><path fill-rule="evenodd" d="M27.5,448.7h.7V448h-.7v.7Z" class="g0_1" id="svg_99"/><path fill-rule="evenodd" d="M27.5,448.7h.7V448h-.7v.7Z" class="g0_1" id="svg_100"/><path fill-rule="evenodd" d="M28.2,448.7H29V448h-.8v.7Z" class="g0_1" id="svg_101"/><path fill-rule="evenodd" d="M29,448.7H51.9V448H29v.7Z" class="g0_1" id="svg_102"/><path fill-rule="evenodd" d="M51.9,448.7h.7V448h-.7v.7Z" class="g0_1" id="svg_103"/><path fill-rule="evenodd" d="M52.6,448.7H76.5V448H52.6v.7Z" class="g0_1" id="svg_104"/><path fill-rule="evenodd" d="M76.5,448.7h.8V448h-.8v.7Z" class="g0_1" id="svg_105"/><path fill-rule="evenodd" d="M77.3,448.7h24V448h-24v.7Z" class="g0_1" id="svg_106"/><path fill-rule="evenodd" d="M101.3,448.7h.7V448h-.7v.7Z" class="g0_1" id="svg_107"/><path fill-rule="evenodd" d="M102,448.7h24.1V448H102v.7Z" class="g0_1" id="svg_108"/><path fill-rule="evenodd" d="M126.1,448.7h.8V448h-.8v.7Z" class="g0_1" id="svg_109"/><path fill-rule="evenodd" d="M126.9,448.7h24.2V448H126.9v.7Z" class="g0_1" id="svg_110"/><path fill-rule="evenodd" d="M151.1,448.7h.7V448h-.7v.7Z" class="g0_1" id="svg_111"/><path fill-rule="evenodd" d="M151.8,448.7H176V448H151.8v.7Z" class="g0_1" id="svg_112"/><path fill-rule="evenodd" d="M176,448.7h.8V448H176v.7Z" class="g0_1" id="svg_113"/><path fill-rule="evenodd" d="M176.8,448.7h24.1V448H176.8v.7Z" class="g0_1" id="svg_114"/><path fill-rule="evenodd" d="M200.9,448.7h.7V448h-.7v.7Z" class="g0_1" id="svg_115"/><path fill-rule="evenodd" d="M201.6,448.7h24.2V448H201.6v.7Z" class="g0_1" id="svg_116"/><path fill-rule="evenodd" d="M225.8,448.7h.7V448h-.7v.7Z" class="g0_1" id="svg_117"/><path fill-rule="evenodd" d="M226.5,448.7h24.2V448H226.5v.7Z" class="g0_1" id="svg_118"/><path fill-rule="evenodd" d="M250.7,448.7h.8V448h-.8v.7Z" class="g0_1" id="svg_119"/><path fill-rule="evenodd" d="M251.5,448.7h24.1V448H251.5v.7Z" class="g0_1" id="svg_120"/><path fill-rule="evenodd" d="M275.6,448.7h.7V448h-.7v.7Z" class="g0_1" id="svg_121"/><path fill-rule="evenodd" d="M276.3,448.7h24.2V448H276.3v.7Z" class="g0_1" id="svg_122"/><path fill-rule="evenodd" d="M300.5,448.7h.7V448h-.7v.7Z" class="g0_1" id="svg_123"/><path fill-rule="evenodd" d="M301.2,448.7h24.2V448H301.2v.7Z" class="g0_1" id="svg_124"/><path fill-rule="evenodd" d="M325.4,448.7h.8V448h-.8v.7Z" class="g0_1" id="svg_125"/><path fill-rule="evenodd" d="M326.2,448.7h24.1V448H326.2v.7Z" class="g0_1" id="svg_126"/><path fill-rule="evenodd" d="M350.3,448.7h.7V448h-.7v.7Z" class="g0_1" id="svg_127"/><path fill-rule="evenodd" d="M351,448.7h24.2V448H351v.7Z" class="g0_1" id="svg_128"/><path fill-rule="evenodd" d="M375.2,448.7h.8V448h-.8v.7Z" class="g0_1" id="svg_129"/><path fill-rule="evenodd" d="M376,448.7h24.2V448H376v.7Z" class="g0_1" id="svg_130"/><path fill-rule="evenodd" d="M400.2,448.7h.7V448h-.7v.7Z" class="g0_1" id="svg_131"/><path fill-rule="evenodd" d="M400.9,448.7H425V448H400.9v.7Z" class="g0_1" id="svg_132"/><path fill-rule="evenodd" d="M425,448.7h.7V448H425v.7Z" class="g0_1" id="svg_133"/><path fill-rule="evenodd" d="M425.7,448.7h23.7V448H425.7v.7Z" class="g0_1" id="svg_134"/><path fill-rule="evenodd" d="M449.4,448.7h.7V448h-.7v.7Z" class="g0_1" id="svg_135"/><path fill-rule="evenodd" d="M450.1,448.7h.4V448h-.4v.7Z" class="g0_1" id="svg_136"/><path fill-rule="evenodd" d="M450.5,448.7h.7V448h-.7v.7Z" class="g0_1" id="svg_137"/><path fill-rule="evenodd" d="M451.1,448.7h.8V448h-.8v.7Z" class="g0_1" id="svg_138"/><path fill-rule="evenodd" d="M451.1,448.7h.8V448h-.8v.7Z" class="g0_1" id="svg_139"/><path fill-rule="evenodd" d="M27.5,479.9h.7v-.7h-.7v.7Z" class="g0_1" id="svg_140"/><path fill-rule="evenodd" d="M27.5,479.9h.7v-.7h-.7v.7Z" class="g0_1" id="svg_141"/><path fill-rule="evenodd" d="M28.2,479.9H29v-.7h-.8v.7Z" class="g0_1" id="svg_142"/><path fill-rule="evenodd" d="M29,479.9H51.9v-.7H29v.7Z" class="g0_1" id="svg_143"/><path fill-rule="evenodd" d="M51.9,479.9h.7v-.7h-.7v.7Z" class="g0_1" id="svg_144"/><path fill-rule="evenodd" d="M52.6,479.9H76.5v-.7H52.6v.7Z" class="g0_1" id="svg_145"/><path fill-rule="evenodd" d="M76.5,479.9h.8v-.7h-.8v.7Z" class="g0_1" id="svg_146"/><path fill-rule="evenodd" d="M77.3,479.9h24v-.7h-24v.7Z" class="g0_1" id="svg_147"/><path fill-rule="evenodd" d="M101.3,479.9h.7v-.7h-.7v.7Z" class="g0_1" id="svg_148"/><path fill-rule="evenodd" d="M102,479.9h24.1v-.7H102v.7Z" class="g0_1" id="svg_149"/><path fill-rule="evenodd" d="M126.1,479.9h.8v-.7h-.8v.7Z" class="g0_1" id="svg_150"/><path fill-rule="evenodd" d="M126.9,479.9h24.2v-.7H126.9v.7Z" class="g0_1" id="svg_151"/><path fill-rule="evenodd" d="M151.1,479.9h.7v-.7h-.7v.7Z" class="g0_1" id="svg_152"/><path fill-rule="evenodd" d="M151.8,479.9H176v-.7H151.8v.7Z" class="g0_1" id="svg_153"/><path fill-rule="evenodd" d="M176,479.9h.8v-.7H176v.7Z" class="g0_1" id="svg_154"/><path fill-rule="evenodd" d="M176.8,479.9h24.1v-.7H176.8v.7Z" class="g0_1" id="svg_155"/><path fill-rule="evenodd" d="M200.9,479.9h.7v-.7h-.7v.7Z" class="g0_1" id="svg_156"/><path fill-rule="evenodd" d="M201.6,479.9h24.2v-.7H201.6v.7Z" class="g0_1" id="svg_157"/><path fill-rule="evenodd" d="M225.8,479.9h.7v-.7h-.7v.7Z" class="g0_1" id="svg_158"/><path fill-rule="evenodd" d="M226.5,479.9h24.2v-.7H226.5v.7Z" class="g0_1" id="svg_159"/><path fill-rule="evenodd" d="M250.7,479.9h.8v-.7h-.8v.7Z" class="g0_1" id="svg_160"/><path fill-rule="evenodd" d="M251.5,479.9h24.1v-.7H251.5v.7Z" class="g0_1" id="svg_161"/><path fill-rule="evenodd" d="M275.6,479.9h.7v-.7h-.7v.7Z" class="g0_1" id="svg_162"/><path fill-rule="evenodd" d="M276.3,479.9h24.2v-.7H276.3v.7Z" class="g0_1" id="svg_163"/><path fill-rule="evenodd" d="M300.5,479.9h.7v-.7h-.7v.7Z" class="g0_1" id="svg_164"/><path fill-rule="evenodd" d="M301.2,479.9h24.2v-.7H301.2v.7Z" class="g0_1" id="svg_165"/><path fill-rule="evenodd" d="M325.4,479.9h.8v-.7h-.8v.7Z" class="g0_1" id="svg_166"/><path fill-rule="evenodd" d="M326.2,479.9h24.1v-.7H326.2v.7Z" class="g0_1" id="svg_167"/><path fill-rule="evenodd" d="M350.3,479.9h.7v-.7h-.7v.7Z" class="g0_1" id="svg_168"/><path fill-rule="evenodd" d="M351,479.9h24.2v-.7H351v.7Z" class="g0_1" id="svg_169"/><path fill-rule="evenodd" d="M375.2,479.9h.8v-.7h-.8v.7Z" class="g0_1" id="svg_170"/><path fill-rule="evenodd" d="M376,479.9h24.2v-.7H376v.7Z" class="g0_1" id="svg_171"/><path fill-rule="evenodd" d="M400.2,479.9h.7v-.7h-.7v.7Z" class="g0_1" id="svg_172"/><path fill-rule="evenodd" d="M400.9,479.9H425v-.7H400.9v.7Z" class="g0_1" id="svg_173"/><path fill-rule="evenodd" d="M425,479.9h.7v-.7H425v.7Z" class="g0_1" id="svg_174"/><path fill-rule="evenodd" d="M425.7,479.9h23.7v-.7H425.7v.7Z" class="g0_1" id="svg_175"/><path fill-rule="evenodd" d="M449.4,479.9h.7v-.7h-.7v.7Z" class="g0_1" id="svg_176"/><path fill-rule="evenodd" d="M450.1,479.9h.4v-.7h-.4v.7Z" class="g0_1" id="svg_177"/><path fill-rule="evenodd" d="M450.5,479.9h.7v-.7h-.7v.7Z" class="g0_1" id="svg_178"/><path fill-rule="evenodd" d="M451.1,479.9h.8v-.7h-.8v.7Z" class="g0_1" id="svg_179"/><path fill-rule="evenodd" d="M451.1,479.9h.8v-.7h-.8v.7Z" class="g0_1" id="svg_180"/><path fill-rule="evenodd" d="M27.5,504h.7V479.9h-.7V504Z" class="g0_1" id="svg_181"/><path fill-rule="evenodd" d="M51.9,504h.7V479.9h-.7V504Z" class="g0_1" id="svg_182"/><path fill-rule="evenodd" d="M76.5,504h.8V479.9h-.8V504Z" class="g0_1" id="svg_183"/><path fill-rule="evenodd" d="M101.3,504h.7V479.9h-.7V504Z" class="g0_1" id="svg_184"/><path fill-rule="evenodd" d="M126.1,504h.8V479.9h-.8V504Z" class="g0_1" id="svg_185"/><path fill-rule="evenodd" d="M151.1,504h.7V479.9h-.7V504Z" class="g0_1" id="svg_186"/><path fill-rule="evenodd" d="M176,504h.8V479.9H176V504Z" class="g0_1" id="svg_187"/><path fill-rule="evenodd" d="M200.9,504h.7V479.9h-.7V504Z" class="g0_1" id="svg_188"/><path fill-rule="evenodd" d="M225.8,504h.7V479.9h-.7V504Z" class="g0_1" id="svg_189"/><path fill-rule="evenodd" d="M250.7,504h.8V479.9h-.8V504Z" class="g0_1" id="svg_190"/><path fill-rule="evenodd" d="M275.6,504h.7V479.9h-.7V504Z" class="g0_1" id="svg_191"/><path fill-rule="evenodd" d="M300.5,504h.7V479.9h-.7V504Z" class="g0_1" id="svg_192"/><path fill-rule="evenodd" d="M325.4,504h.8V479.9h-.8V504Z" class="g0_1" id="svg_193"/><path fill-rule="evenodd" d="M350.3,504h.7V479.9h-.7V504Z" class="g0_1" id="svg_194"/><path fill-rule="evenodd" d="M375.2,504h.8V479.9h-.8V504Z" class="g0_1" id="svg_195"/><path fill-rule="evenodd" d="M400.2,504h.7V479.9h-.7V504Z" class="g0_1" id="svg_196"/><path fill-rule="evenodd" d="M425,504h.7V479.9H425V504Z" class="g0_1" id="svg_197"/><path fill-rule="evenodd" d="M451.1,504h.8V479.9h-.8V504Z" class="g0_1" id="svg_198"/><path fill-rule="evenodd" d="M27.5,504.7h.7V504h-.7v.7Z" class="g0_1" id="svg_199"/><path fill-rule="evenodd" d="M27.5,504.7h.7V504h-.7v.7Z" class="g0_1" id="svg_200"/><path fill-rule="evenodd" d="M28.2,504.7H29V504h-.8v.7Z" class="g0_1" id="svg_201"/><path fill-rule="evenodd" d="M29,504.7H51.9V504H29v.7Z" class="g0_1" id="svg_202"/><path fill-rule="evenodd" d="M51.9,504.7h.7V504h-.7v.7Z" class="g0_1" id="svg_203"/><path fill-rule="evenodd" d="M52.6,504.7H76.5V504H52.6v.7Z" class="g0_1" id="svg_204"/><path fill-rule="evenodd" d="M76.5,504.7h.8V504h-.8v.7Z" class="g0_1" id="svg_205"/><path fill-rule="evenodd" d="M77.3,504.7h24V504h-24v.7Z" class="g0_1" id="svg_206"/><path fill-rule="evenodd" d="M101.3,504.7h.7V504h-.7v.7Z" class="g0_1" id="svg_207"/><path fill-rule="evenodd" d="M102,504.7h24.1V504H102v.7Z" class="g0_1" id="svg_208"/><path fill-rule="evenodd" d="M126.1,504.7h.8V504h-.8v.7Z" class="g0_1" id="svg_209"/><path fill-rule="evenodd" d="M126.9,504.7h24.2V504H126.9v.7Z" class="g0_1" id="svg_210"/><path fill-rule="evenodd" d="M151.1,504.7h.7V504h-.7v.7Z" class="g0_1" id="svg_211"/><path fill-rule="evenodd" d="M151.8,504.7H176V504H151.8v.7Z" class="g0_1" id="svg_212"/><path fill-rule="evenodd" d="M176,504.7h.8V504H176v.7Z" class="g0_1" id="svg_213"/><path fill-rule="evenodd" d="M176.8,504.7h24.1V504H176.8v.7Z" class="g0_1" id="svg_214"/><path fill-rule="evenodd" d="M200.9,504.7h.7V504h-.7v.7Z" class="g0_1" id="svg_215"/><path fill-rule="evenodd" d="M201.6,504.7h24.2V504H201.6v.7Z" class="g0_1" id="svg_216"/><path fill-rule="evenodd" d="M225.8,504.7h.7V504h-.7v.7Z" class="g0_1" id="svg_217"/><path fill-rule="evenodd" d="M226.5,504.7h24.2V504H226.5v.7Z" class="g0_1" id="svg_218"/><path fill-rule="evenodd" d="M250.7,504.7h.8V504h-.8v.7Z" class="g0_1" id="svg_219"/><path fill-rule="evenodd" d="M251.5,504.7h24.1V504H251.5v.7Z" class="g0_1" id="svg_220"/><path fill-rule="evenodd" d="M275.6,504.7h.7V504h-.7v.7Z" class="g0_1" id="svg_221"/><path fill-rule="evenodd" d="M276.3,504.7h24.2V504H276.3v.7Z" class="g0_1" id="svg_222"/><path fill-rule="evenodd" d="M300.5,504.7h.7V504h-.7v.7Z" class="g0_1" id="svg_223"/><path fill-rule="evenodd" d="M301.2,504.7h24.2V504H301.2v.7Z" class="g0_1" id="svg_224"/><path fill-rule="evenodd" d="M325.4,504.7h.8V504h-.8v.7Z" class="g0_1" id="svg_225"/><path fill-rule="evenodd" d="M326.2,504.7h24.1V504H326.2v.7Z" class="g0_1" id="svg_226"/><path fill-rule="evenodd" d="M350.3,504.7h.7V504h-.7v.7Z" class="g0_1" id="svg_227"/><path fill-rule="evenodd" d="M351,504.7h24.2V504H351v.7Z" class="g0_1" id="svg_228"/><path fill-rule="evenodd" d="M375.2,504.7h.8V504h-.8v.7Z" class="g0_1" id="svg_229"/><path fill-rule="evenodd" d="M376,504.7h24.2V504H376v.7Z" class="g0_1" id="svg_230"/><path fill-rule="evenodd" d="M400.2,504.7h.7V504h-.7v.7Z" class="g0_1" id="svg_231"/><path fill-rule="evenodd" d="M400.9,504.7H425V504H400.9v.7Z" class="g0_1" id="svg_232"/><path fill-rule="evenodd" d="M425,504.7h.7V504H425v.7Z" class="g0_1" id="svg_233"/><path fill-rule="evenodd" d="M425.7,504.7h23.7V504H425.7v.7Z" class="g0_1" id="svg_234"/><path fill-rule="evenodd" d="M449.4,504.7h.7V504h-.7v.7Z" class="g0_1" id="svg_235"/><path fill-rule="evenodd" d="M450.1,504.7h.4V504h-.4v.7Z" class="g0_1" id="svg_236"/><path fill-rule="evenodd" d="M450.5,504.7h.7V504h-.7v.7Z" class="g0_1" id="svg_237"/><path fill-rule="evenodd" d="M451.1,504.7h.8V504h-.8v.7Z" class="g0_1" id="svg_238"/><path fill-rule="evenodd" d="M451.1,504.7h.8V504h-.8v.7Z" class="g0_1" id="svg_239"/><path fill-rule="evenodd" d="M27.5,531.4h.7v-.7h-.7v.7Z" class="g0_1" id="svg_240"/><path fill-rule="evenodd" d="M27.5,531.4h.7v-.7h-.7v.7Z" class="g0_1" id="svg_241"/><path fill-rule="evenodd" d="M28.2,531.4H29v-.7h-.8v.7Z" class="g0_1" id="svg_242"/><path fill-rule="evenodd" d="M29,531.4H51.9v-.7H29v.7Z" class="g0_1" id="svg_243"/><path fill-rule="evenodd" d="M51.9,531.4h.7v-.7h-.7v.7Z" class="g0_1" id="svg_244"/><path fill-rule="evenodd" d="M52.6,531.4H76.5v-.7H52.6v.7Z" class="g0_1" id="svg_245"/><path fill-rule="evenodd" d="M76.5,531.4h.8v-.7h-.8v.7Z" class="g0_1" id="svg_246"/><path fill-rule="evenodd" d="M77.3,531.4h24v-.7h-24v.7Z" class="g0_1" id="svg_247"/><path fill-rule="evenodd" d="M101.3,531.4h.7v-.7h-.7v.7Z" class="g0_1" id="svg_248"/><path fill-rule="evenodd" d="M102,531.4h24.1v-.7H102v.7Z" class="g0_1" id="svg_249"/><path fill-rule="evenodd" d="M126.1,531.4h.8v-.7h-.8v.7Z" class="g0_1" id="svg_250"/><path fill-rule="evenodd" d="M126.9,531.4h24.2v-.7H126.9v.7Z" class="g0_1" id="svg_251"/><path fill-rule="evenodd" d="M151.1,531.4h.7v-.7h-.7v.7Z" class="g0_1" id="svg_252"/><path fill-rule="evenodd" d="M151.8,531.4H176v-.7H151.8v.7Z" class="g0_1" id="svg_253"/><path fill-rule="evenodd" d="M176,531.4h.8v-.7H176v.7Z" class="g0_1" id="svg_254"/><path fill-rule="evenodd" d="M176.8,531.4h24.1v-.7H176.8v.7Z" class="g0_1" id="svg_255"/><path fill-rule="evenodd" d="M200.9,531.4h.7v-.7h-.7v.7Z" class="g0_1" id="svg_256"/><path fill-rule="evenodd" d="M201.6,531.4h24.2v-.7H201.6v.7Z" class="g0_1" id="svg_257"/><path fill-rule="evenodd" d="M225.8,531.4h.7v-.7h-.7v.7Z" class="g0_1" id="svg_258"/><path fill-rule="evenodd" d="M226.5,531.4h24.2v-.7H226.5v.7Z" class="g0_1" id="svg_259"/><path fill-rule="evenodd" d="M250.7,531.4h.8v-.7h-.8v.7Z" class="g0_1" id="svg_260"/><path fill-rule="evenodd" d="M251.5,531.4h24.1v-.7H251.5v.7Z" class="g0_1" id="svg_261"/><path fill-rule="evenodd" d="M275.6,531.4h.7v-.7h-.7v.7Z" class="g0_1" id="svg_262"/><path fill-rule="evenodd" d="M276.3,531.4h24.2v-.7H276.3v.7Z" class="g0_1" id="svg_263"/><path fill-rule="evenodd" d="M300.5,531.4h.7v-.7h-.7v.7Z" class="g0_1" id="svg_264"/><path fill-rule="evenodd" d="M301.2,531.4h24.2v-.7H301.2v.7Z" class="g0_1" id="svg_265"/><path fill-rule="evenodd" d="M325.4,531.4h.8v-.7h-.8v.7Z" class="g0_1" id="svg_266"/><path fill-rule="evenodd" d="M326.2,531.4h24.1v-.7H326.2v.7Z" class="g0_1" id="svg_267"/><path fill-rule="evenodd" d="M350.3,531.4h.7v-.7h-.7v.7Z" class="g0_1" id="svg_268"/><path fill-rule="evenodd" d="M351,531.4h24.2v-.7H351v.7Z" class="g0_1" id="svg_269"/><path fill-rule="evenodd" d="M375.2,531.4h.8v-.7h-.8v.7Z" class="g0_1" id="svg_270"/><path fill-rule="evenodd" d="M376,531.4h24.2v-.7H376v.7Z" class="g0_1" id="svg_271"/><path fill-rule="evenodd" d="M400.2,531.4h.7v-.7h-.7v.7Z" class="g0_1" id="svg_272"/><path fill-rule="evenodd" d="M400.9,531.4H425v-.7H400.9v.7Z" class="g0_1" id="svg_273"/><path fill-rule="evenodd" d="M425,531.4h.7v-.7H425v.7Z" class="g0_1" id="svg_274"/><path fill-rule="evenodd" d="M425.7,531.4h23.7v-.7H425.7v.7Z" class="g0_1" id="svg_275"/><path fill-rule="evenodd" d="M449.4,531.4h.7v-.7h-.7v.7Z" class="g0_1" id="svg_276"/><path fill-rule="evenodd" d="M450.1,531.4h.4v-.7h-.4v.7Z" class="g0_1" id="svg_277"/><path fill-rule="evenodd" d="M450.5,531.4h.7v-.7h-.7v.7Z" class="g0_1" id="svg_278"/><path fill-rule="evenodd" d="M451.1,531.4h.8v-.7h-.8v.7Z" class="g0_1" id="svg_279"/><path fill-rule="evenodd" d="M451.1,531.4h.8v-.7h-.8v.7Z" class="g0_1" id="svg_280"/><path fill-rule="evenodd" d="M27.5,555.6h.7V531.4h-.7v24.2Z" class="g0_1" id="svg_281"/><path fill-rule="evenodd" d="M51.9,555.6h.7V531.4h-.7v24.2Z" class="g0_1" id="svg_282"/><path fill-rule="evenodd" d="M76.5,555.6h.8V531.4h-.8v24.2Z" class="g0_1" id="svg_283"/><path fill-rule="evenodd" d="M101.3,555.6h.7V531.4h-.7v24.2Z" class="g0_1" id="svg_284"/><path fill-rule="evenodd" d="M126.1,555.6h.8V531.4h-.8v24.2Z" class="g0_1" id="svg_285"/><path fill-rule="evenodd" d="M151.1,555.6h.7V531.4h-.7v24.2Z" class="g0_1" id="svg_286"/><path fill-rule="evenodd" d="M176,555.6h.8V531.4H176v24.2Z" class="g0_1" id="svg_287"/><path fill-rule="evenodd" d="M200.9,555.6h.7V531.4h-.7v24.2Z" class="g0_1" id="svg_288"/><path fill-rule="evenodd" d="M225.8,555.6h.7V531.4h-.7v24.2Z" class="g0_1" id="svg_289"/><path fill-rule="evenodd" d="M250.7,555.6h.8V531.4h-.8v24.2Z" class="g0_1" id="svg_290"/><path fill-rule="evenodd" d="M275.6,555.6h.7V531.4h-.7v24.2Z" class="g0_1" id="svg_291"/><path fill-rule="evenodd" d="M300.5,555.6h.7V531.4h-.7v24.2Z" class="g0_1" id="svg_292"/><path fill-rule="evenodd" d="M325.4,555.6h.8V531.4h-.8v24.2Z" class="g0_1" id="svg_293"/><path fill-rule="evenodd" d="M350.3,555.6h.7V531.4h-.7v24.2Z" class="g0_1" id="svg_294"/><path fill-rule="evenodd" d="M375.2,555.6h.8V531.4h-.8v24.2Z" class="g0_1" id="svg_295"/><path fill-rule="evenodd" d="M400.2,555.6h.7V531.4h-.7v24.2Z" class="g0_1" id="svg_296"/><path fill-rule="evenodd" d="M425,555.6h.7V531.4H425v24.2Z" class="g0_1" id="svg_297"/><path fill-rule="evenodd" d="M451.1,555.6h.8V531.4h-.8v24.2Z" class="g0_1" id="svg_298"/><path fill-rule="evenodd" d="M27.5,556.4h.7v-.8h-.7v.8Z" class="g0_1" id="svg_299"/><path fill-rule="evenodd" d="M27.5,556.4h.7v-.8h-.7v.8Z" class="g0_1" id="svg_300"/><path fill-rule="evenodd" d="M28.2,556.4H29v-.8h-.8v.8Z" class="g0_1" id="svg_301"/><path fill-rule="evenodd" d="M29,556.4H51.9v-.8H29v.8Z" class="g0_1" id="svg_302"/><path fill-rule="evenodd" d="M51.9,556.4h.7v-.8h-.7v.8Z" class="g0_1" id="svg_303"/><path fill-rule="evenodd" d="M52.6,556.4H76.5v-.8H52.6v.8Z" class="g0_1" id="svg_304"/><path fill-rule="evenodd" d="M76.5,556.4h.8v-.8h-.8v.8Z" class="g0_1" id="svg_305"/><path fill-rule="evenodd" d="M77.3,556.4h24v-.8h-24v.8Z" class="g0_1" id="svg_306"/><path fill-rule="evenodd" d="M101.3,556.4h.7v-.8h-.7v.8Z" class="g0_1" id="svg_307"/><path fill-rule="evenodd" d="M102,556.4h24.1v-.8H102v.8Z" class="g0_1" id="svg_308"/><path fill-rule="evenodd" d="M126.1,556.4h.8v-.8h-.8v.8Z" class="g0_1" id="svg_309"/><path fill-rule="evenodd" d="M126.9,556.4h24.2v-.8H126.9v.8Z" class="g0_1" id="svg_310"/><path fill-rule="evenodd" d="M151.1,556.4h.7v-.8h-.7v.8Z" class="g0_1" id="svg_311"/><path fill-rule="evenodd" d="M151.8,556.4H176v-.8H151.8v.8Z" class="g0_1" id="svg_312"/><path fill-rule="evenodd" d="M176,556.4h.8v-.8H176v.8Z" class="g0_1" id="svg_313"/><path fill-rule="evenodd" d="M176.8,556.4h24.1v-.8H176.8v.8Z" class="g0_1" id="svg_314"/><path fill-rule="evenodd" d="M200.9,556.4h.7v-.8h-.7v.8Z" class="g0_1" id="svg_315"/><path fill-rule="evenodd" d="M201.6,556.4h24.2v-.8H201.6v.8Z" class="g0_1" id="svg_316"/><path fill-rule="evenodd" d="M225.8,556.4h.7v-.8h-.7v.8Z" class="g0_1" id="svg_317"/><path fill-rule="evenodd" d="M226.5,556.4h24.2v-.8H226.5v.8Z" class="g0_1" id="svg_318"/><path fill-rule="evenodd" d="M250.7,556.4h.8v-.8h-.8v.8Z" class="g0_1" id="svg_319"/><path fill-rule="evenodd" d="M251.5,556.4h24.1v-.8H251.5v.8Z" class="g0_1" id="svg_320"/><path fill-rule="evenodd" d="M275.6,556.4h.7v-.8h-.7v.8Z" class="g0_1" id="svg_321"/><path fill-rule="evenodd" d="M276.3,556.4h24.2v-.8H276.3v.8Z" class="g0_1" id="svg_322"/><path fill-rule="evenodd" d="M300.5,556.4h.7v-.8h-.7v.8Z" class="g0_1" id="svg_323"/><path fill-rule="evenodd" d="M301.2,556.4h24.2v-.8H301.2v.8Z" class="g0_1" id="svg_324"/><path fill-rule="evenodd" d="M325.4,556.4h.8v-.8h-.8v.8Z" class="g0_1" id="svg_325"/><path fill-rule="evenodd" d="M326.2,556.4h24.1v-.8H326.2v.8Z" class="g0_1" id="svg_326"/><path fill-rule="evenodd" d="M350.3,556.4h.7v-.8h-.7v.8Z" class="g0_1" id="svg_327"/><path fill-rule="evenodd" d="M351,556.4h24.2v-.8H351v.8Z" class="g0_1" id="svg_328"/><path fill-rule="evenodd" d="M375.2,556.4h.8v-.8h-.8v.8Z" class="g0_1" id="svg_329"/><path fill-rule="evenodd" d="M376,556.4h24.2v-.8H376v.8Z" class="g0_1" id="svg_330"/><path fill-rule="evenodd" d="M400.2,556.4h.7v-.8h-.7v.8Z" class="g0_1" id="svg_331"/><path fill-rule="evenodd" d="M400.9,556.4H425v-.8H400.9v.8Z" class="g0_1" id="svg_332"/><path fill-rule="evenodd" d="M425,556.4h.7v-.8H425v.8Z" class="g0_1" id="svg_333"/><path fill-rule="evenodd" d="M425.7,556.4h23.7v-.8H425.7v.8Z" class="g0_1" id="svg_334"/><path fill-rule="evenodd" d="M449.4,556.4h.7v-.8h-.7v.8Z" class="g0_1" id="svg_335"/><path fill-rule="evenodd" d="M450.1,556.4h.4v-.8h-.4v.8Z" class="g0_1" id="svg_336"/><path fill-rule="evenodd" d="M450.5,556.4h.7v-.8h-.7v.8Z" class="g0_1" id="svg_337"/><path fill-rule="evenodd" d="M451.1,556.4h.8v-.8h-.8v.8Z" class="g0_1" id="svg_338"/><path fill-rule="evenodd" d="M451.1,556.4h.8v-.8h-.8v.8Z" class="g0_1" id="svg_339"/><path fill-rule="evenodd" d="M209.8,579.5h.7v-.8h-.7v.8Z" class="g0_1" id="svg_340"/><path fill-rule="evenodd" d="M209.8,579.5h.7v-.8h-.7v.8Z" class="g0_1" id="svg_341"/><path fill-rule="evenodd" d="M210.5,579.5h.7v-.8h-.7v.8Z" class="g0_1" id="svg_342"/><path fill-rule="evenodd" d="M211.2,579.5h22.6v-.8H211.2v.8Z" class="g0_1" id="svg_343"/><path fill-rule="evenodd" d="M233.8,579.5h.7v-.8h-.7v.8Z" class="g0_1" id="svg_344"/><path fill-rule="evenodd" d="M234.5,579.5h.7v-.8h-.7v.8Z" class="g0_1" id="svg_345"/><path fill-rule="evenodd" d="M235.2,579.5h22.6v-.8H235.2v.8Z" class="g0_1" id="svg_346"/><path fill-rule="evenodd" d="M257.8,579.5h.7v-.8h-.7v.8Z" class="g0_1" id="svg_347"/><path fill-rule="evenodd" d="M257.8,579.5h.7v-.8h-.7v.8Z" class="g0_1" id="svg_348"/><path fill-rule="evenodd" d="M282.2,579.5h.7v-.8h-.7v.8Z" class="g0_1" id="svg_349"/><path fill-rule="evenodd" d="M282.2,579.5h.7v-.8h-.7v.8Z" class="g0_1" id="svg_350"/><path fill-rule="evenodd" d="M282.9,579.5h.7v-.8h-.7v.8Z" class="g0_1" id="svg_351"/><path fill-rule="evenodd" d="M283.6,579.5h22.7v-.8H283.6v.8Z" class="g0_1" id="svg_352"/><path fill-rule="evenodd" d="M306.3,579.5h.7v-.8h-.7v.8Z" class="g0_1" id="svg_353"/><path fill-rule="evenodd" d="M307,579.5h.8v-.8H307v.8Z" class="g0_1" id="svg_354"/><path fill-rule="evenodd" d="M307.8,579.5h22.5v-.8H307.8v.8Z" class="g0_1" id="svg_355"/><path fill-rule="evenodd" d="M330.3,579.5h.7v-.8h-.7v.8Z" class="g0_1" id="svg_356"/><path fill-rule="evenodd" d="M330.3,579.5h.7v-.8h-.7v.8Z" class="g0_1" id="svg_357"/><path fill-rule="evenodd" d="M354.4,579.5h.7v-.8h-.7v.8Z" class="g0_1" id="svg_358"/><path fill-rule="evenodd" d="M354.4,579.5h.7v-.8h-.7v.8Z" class="g0_1" id="svg_359"/><path fill-rule="evenodd" d="M355.1,579.5h.8v-.8h-.8v.8Z" class="g0_1" id="svg_360"/><path fill-rule="evenodd" d="M355.9,579.5h22.5v-.8H355.9v.8Z" class="g0_1" id="svg_361"/><path fill-rule="evenodd" d="M378.4,579.5h.8v-.8h-.8v.8Z" class="g0_1" id="svg_362"/><path fill-rule="evenodd" d="M379.2,579.5h.7v-.8h-.7v.8Z" class="g0_1" id="svg_363"/><path fill-rule="evenodd" d="M379.9,579.5h22.6v-.8H379.9v.8Z" class="g0_1" id="svg_364"/><path fill-rule="evenodd" d="M402.5,579.5h.8v-.8h-.8v.8Z" class="g0_1" id="svg_365"/><path fill-rule="evenodd" d="M403.3,579.5h.7v-.8h-.7v.8Z" class="g0_1" id="svg_366"/><path fill-rule="evenodd" d="M404,579.5h22.6v-.8H404v.8Z" class="g0_1" id="svg_367"/><path fill-rule="evenodd" d="M426.6,579.5h.7v-.8h-.7v.8Z" class="g0_1" id="svg_368"/><path fill-rule="evenodd" d="M427.3,579.5h.7v-.8h-.7v.8Z" class="g0_1" id="svg_369"/><path fill-rule="evenodd" d="M428,579.5h23.1v-.8H428v.8Z" class="g0_1" id="svg_370"/><path fill-rule="evenodd" d="M451.1,579.5h.8v-.8h-.8v.8Z" class="g0_1" id="svg_371"/><path fill-rule="evenodd" d="M209.8,603.6h.7V579.5h-.7v24.1Z" class="g0_1" id="svg_372"/><path fill-rule="evenodd" d="M233.8,603.6h.7V579.5h-.7v24.1Z" class="g0_1" id="svg_373"/><path fill-rule="evenodd" d="M257.8,603.6h.7V579.5h-.7v24.1Z" class="g0_1" id="svg_374"/><path fill-rule="evenodd" d="M282.2,603.6h.7V579.5h-.7v24.1Z" class="g0_1" id="svg_375"/><path fill-rule="evenodd" d="M306.3,603.6h.7V579.5h-.7v24.1Z" class="g0_1" id="svg_376"/><path fill-rule="evenodd" d="M330.3,603.6h.7V579.5h-.7v24.1Z" class="g0_1" id="svg_377"/><path fill-rule="evenodd" d="M354.4,603.6h.7V579.5h-.7v24.1Z" class="g0_1" id="svg_378"/><path fill-rule="evenodd" d="M378.4,603.6h.8V579.5h-.8v24.1Z" class="g0_1" id="svg_379"/><path fill-rule="evenodd" d="M402.5,603.6h.8V579.5h-.8v24.1Z" class="g0_1" id="svg_380"/><path fill-rule="evenodd" d="M426.6,603.6h.7V579.5h-.7v24.1Z" class="g0_1" id="svg_381"/><path fill-rule="evenodd" d="M451.1,603.6h.8V579.5h-.8v24.1Z" class="g0_1" id="svg_382"/><path fill-rule="evenodd" d="M209.8,604.3h.7v-.7h-.7v.7Z" class="g0_1" id="svg_383"/><path fill-rule="evenodd" d="M209.8,604.3h.7v-.7h-.7v.7Z" class="g0_1" id="svg_384"/><path fill-rule="evenodd" d="M210.5,604.3h23.3v-.7H210.5v.7Z" class="g0_1" id="svg_385"/><path fill-rule="evenodd" d="M233.8,604.3h.7v-.7h-.7v.7Z" class="g0_1" id="svg_386"/><path fill-rule="evenodd" d="M234.5,604.3h23.3v-.7H234.5v.7Z" class="g0_1" id="svg_387"/><path fill-rule="evenodd" d="M257.8,604.3h.7v-.7h-.7v.7Z" class="g0_1" id="svg_388"/><path fill-rule="evenodd" d="M257.8,604.3h.7v-.7h-.7v.7Z" class="g0_1" id="svg_389"/><path fill-rule="evenodd" d="M282.2,604.3h.7v-.7h-.7v.7Z" class="g0_1" id="svg_390"/><path fill-rule="evenodd" d="M282.2,604.3h.7v-.7h-.7v.7Z" class="g0_1" id="svg_391"/><path fill-rule="evenodd" d="M282.9,604.3h23.4v-.7H282.9v.7Z" class="g0_1" id="svg_392"/><path fill-rule="evenodd" d="M306.3,604.3h.7v-.7h-.7v.7Z" class="g0_1" id="svg_393"/><path fill-rule="evenodd" d="M307,604.3h23.3v-.7H307v.7Z" class="g0_1" id="svg_394"/><path fill-rule="evenodd" d="M330.3,604.3h.7v-.7h-.7v.7Z" class="g0_1" id="svg_395"/><path fill-rule="evenodd" d="M330.3,604.3h.7v-.7h-.7v.7Z" class="g0_1" id="svg_396"/><path fill-rule="evenodd" d="M354.4,604.3h.7v-.7h-.7v.7Z" class="g0_1" id="svg_397"/><path fill-rule="evenodd" d="M354.4,604.3h.7v-.7h-.7v.7Z" class="g0_1" id="svg_398"/><path fill-rule="evenodd" d="M355.1,604.3h23.3v-.7H355.1v.7Z" class="g0_1" id="svg_399"/><path fill-rule="evenodd" d="M378.4,604.3h.8v-.7h-.8v.7Z" class="g0_1" id="svg_400"/><path fill-rule="evenodd" d="M379.2,604.3h23.3v-.7H379.2v.7Z" class="g0_1" id="svg_401"/><path fill-rule="evenodd" d="M402.5,604.3h.8v-.7h-.8v.7Z" class="g0_1" id="svg_402"/><path fill-rule="evenodd" d="M403.3,604.3h23.3v-.7H403.3v.7Z" class="g0_1" id="svg_403"/><path fill-rule="evenodd" d="M426.6,604.3h.7v-.7h-.7v.7Z" class="g0_1" id="svg_404"/><path fill-rule="evenodd" d="M427.3,604.3h22.1v-.7H427.3v.7Z" class="g0_1" id="svg_405"/><path fill-rule="evenodd" d="M449.4,604.3h.7v-.7h-.7v.7Z" class="g0_1" id="svg_406"/><path fill-rule="evenodd" d="M450.1,604.3h.4v-.7h-.4v.7Z" class="g0_1" id="svg_407"/><path fill-rule="evenodd" d="M450.5,604.3h.7v-.7h-.7v.7Z" class="g0_1" id="svg_408"/><path fill-rule="evenodd" d="M451.1,604.3h.8v-.7h-.8v.7Z" class="g0_1" id="svg_409"/><path fill-rule="evenodd" d="M451.1,604.3h.8v-.7h-.8v.7Z" class="g0_1" id="svg_410"/><path fill-rule="evenodd" d="M27.9,657.4H449.4v-.7H27.9v.7Z" class="g0_1" id="svg_411"/><path fill-rule="evenodd" d="M27.9,677.7H449.4v-.8H27.9v.8Z" class="g0_1" id="svg_412"/><path fill-rule="evenodd" d="M27.9,697.9H131.7v-.7H27.9v.7Z" class="g0_1" id="svg_413"/><path fill-rule="evenodd" d="M131.7,697.9h.8v-.7h-.8v.7Z" class="g0_1" id="svg_414"/><path fill-rule="evenodd" d="M132.5,697.9H239.2v-.7H132.5v.7Z" class="g0_1" id="svg_415"/><path fill-rule="evenodd" d="M239.2,697.9h.7v-.7h-.7v.7Z" class="g0_1" id="svg_416"/><path fill-rule="evenodd" d="M239.9,697.9h97.3v-.7H239.9v.7Z" class="g0_1" id="svg_417"/><path fill-rule="evenodd" d="M337.2,697.9h.7v-.7h-.7v.7Z" class="g0_1" id="svg_418"/><path fill-rule="evenodd" d="M337.9,697.9H449.4v-.7H337.9v.7Z" class="g0_1" id="svg_419"/><path fill-rule="evenodd" d="M131.7,718.2H239.2v-.8H131.7v.8Z" class="g0_1" id="svg_420"/><path fill-rule="evenodd" d="M337.2,718.2H449.4v-.8H337.2v.8Z" class="g0_1" id="svg_421"/><path fill-rule="evenodd" d="M131.7,738.4H449.4v-.7H131.7v.7Z" class="g0_1" id="svg_422"/><path fill-rule="evenodd" d="M131.7,767.3H449.4v-.7H131.7v.7Z" class="g0_1" id="svg_423"/><path fill-rule="evenodd" d="M131.7,787.5H449.4v-.8H131.7v.8Z" class="g0_1" id="svg_424"/><path fill-rule="evenodd" d="M27.9,833.8H449.4V833H27.9v.8Z" class="g0_1" id="svg_425"/><path fill-rule="evenodd" d="M27.9,853.9H449.4v-.7H27.9v.7Z" class="g0_1" id="svg_426"/><path fill-rule="evenodd" d="M27.9,874.2H449.4v-.7H27.9v.7Z" class="g0_1" id="svg_427"/><path fill-rule="evenodd" d="M27.9,920.4H449.4v-.7H27.9v.7Z" class="g0_1" id="svg_428"/><path fill-rule="evenodd" d="M27.9,940.7H449.4v-.8H27.9v.8Z" class="g0_1" id="svg_429"/><path fill-rule="evenodd" d="M27.9,986.9H449.4v-.8H27.9v.8Z" class="g0_1" id="svg_430"/><path fill-rule="evenodd" d="M27.9,1007.1H273.4v-.7H27.9v.7Z" class="g0_1" id="svg_431"/><path fill-rule="evenodd" d="M273.4,1007.1h.7v-.7h-.7v.7Z" class="g0_1" id="svg_432"/><path fill-rule="evenodd" d="M274.1,1007.1h75.2v-.7H274.1v.7Z" class="g0_1" id="svg_433"/><path fill-rule="evenodd" d="M349.3,1007.1h.7v-.7h-.7v.7Z" class="g0_1" id="svg_434"/><path fill-rule="evenodd" d="M350,1007.1h99.4v-.7H350v.7Z" class="g0_1" id="svg_435"/><path fill-rule="evenodd" d="M27.9,1027.4H131.7v-.8H27.9v.8Z" class="g0_1" id="svg_436"/><path fill-rule="evenodd" d="M131.7,1027.4h.8v-.8h-.8v.8Z" class="g0_1" id="svg_437"/><path fill-rule="evenodd" d="M132.5,1027.4H273.4v-.8H132.5v.8Z" class="g0_1" id="svg_438"/><path fill-rule="evenodd" d="M349.3,1027.4H449.4v-.8H349.3v.8Z" class="g0_1" id="svg_439"/><path fill-rule="evenodd" d="M131.7,1047.6H293.9v-.7H131.7v.7Z" class="g0_1" id="svg_440"/><path fill-rule="evenodd" d="M293.9,1047.6h.7v-.7h-.7v.7Z" class="g0_1" id="svg_441"/><path fill-rule="evenodd" d="M294.6,1047.6h54.7v-.7H294.6v.7Z" class="g0_1" id="svg_442"/><path fill-rule="evenodd" d="M349.3,1047.6h.7v-.7h-.7v.7Z" class="g0_1" id="svg_443"/><path fill-rule="evenodd" d="M350,1047.6h99.4v-.7H350v.7Z" class="g0_1" id="svg_444"/><path fill-rule="evenodd" d="M131.7,1067.9H293.9v-.7H131.7v.7Z" class="g0_1" id="svg_445"/><path fill-rule="evenodd" d="M349.3,1067.9H449.4v-.7H349.3v.7Z" class="g0_1" id="svg_446"/><path fill-rule="evenodd" d="M131.7,1088.2H449.4v-.8H131.7v.8Z" class="g0_1" id="svg_447"/><path fill-rule="evenodd" d="M27.9,1101.9H273.4v-.7H27.9v.7Z" class="g0_1" id="svg_448"/><path fill-rule="evenodd" d="M273.4,1101.9h.7v-.7h-.7v.7Z" class="g0_1" id="svg_449"/><path fill-rule="evenodd" d="M274.1,1101.9h75.2v-.7H274.1v.7Z" class="g0_1" id="svg_450"/><path fill-rule="evenodd" d="M349.3,1101.9h.7v-.7h-.7v.7Z" class="g0_1" id="svg_451"/><path fill-rule="evenodd" d="M350,1101.9h99.4v-.7H350v.7Z" class="g0_1" id="svg_452"/><path fill-rule="evenodd" d="M486.8,105.1h93.1v-.8H486.8v.8Z" class="g0_1" id="svg_453"/><path fill-rule="evenodd" d="M579.9,105.1h.8v-.8h-.8v.8Z" class="g0_1" id="svg_454"/><path fill-rule="evenodd" d="M580.7,105.1H752.8v-.8H580.7v.8Z" class="g0_1" id="svg_455"/><path fill-rule="evenodd" d="M752.8,105.1h.8v-.8h-.8v.8Z" class="g0_1" id="svg_456"/><path fill-rule="evenodd" d="M753.6,105.1H906.3v-.8H753.6v.8Z" class="g0_1" id="svg_457"/><path fill-rule="evenodd" d="M482.8,457h1.1v-8.1h-1.1V457Z" class="g0_1" id="svg_458"/><path fill-rule="evenodd" d="M482.8,450h7.8v-1.1h-7.8V450Z" class="g0_1" id="svg_459"/><path fill-rule="evenodd" d="M485,457h3.4v-5.9H485V457Z" class="g0_1" id="svg_460"/><path fill-rule="evenodd" d="M485,454.5h5.6v-3.4H485v3.4Z" class="g0_1" id="svg_461"/><path fill-rule="evenodd" d="M489.5,457h1.1v-1.4h-1.1V457Z" class="g0_1" id="svg_462"/><path fill-rule="evenodd" d="M489.5,456.7h1.1v-1.1h-1.1v1.1Z" class="g0_1" id="svg_463"/><path fill-rule="evenodd" d="M490.6,450h7.9v-1.1h-7.9V450Z" class="g0_1" id="svg_464"/><path fill-rule="evenodd" d="M490.6,454.5h7.9v-3.4h-7.9v3.4Z" class="g0_1" id="svg_465"/><path fill-rule="evenodd" d="M490.6,456.7h7.9v-1.1h-7.9v1.1Z" class="g0_1" id="svg_466"/><path fill-rule="evenodd" d="M498.5,450H902.4v-1.1H498.5V450Z" class="g0_1" id="svg_467"/><path fill-rule="evenodd" d="M498.5,454.5H902.4v-3.4H498.5v3.4Z" class="g0_1" id="svg_468"/><path fill-rule="evenodd" d="M498.5,456.7H902.4v-1.1H498.5v1.1Z" class="g0_1" id="svg_469"/><path fill-rule="evenodd" d="M909.1,457h1.1v-.3h-1.1v.3Z" class="g0_1" id="svg_470"/><path fill-rule="evenodd" d="M904.6,457H908v-.3h-3.4v.3Z" class="g0_1" id="svg_471"/><path fill-rule="evenodd" d="M902.4,457h1.1v-.3h-1.1v.3Z" class="g0_1" id="svg_472"/><path fill-rule="evenodd" d="M902.4,450h7.8v-1.1h-7.8V450Z" class="g0_1" id="svg_473"/><path fill-rule="evenodd" d="M902.4,456.7h1.1v-1.1h-1.1v1.1Z" class="g0_1" id="svg_474"/><path fill-rule="evenodd" d="M909.1,456.7h1.1v-1.1h-1.1v1.1Z" class="g0_1" id="svg_475"/><path fill-rule="evenodd" d="M904.6,456.7H908v-5.6h-3.4v5.6Z" class="g0_1" id="svg_476"/><path fill-rule="evenodd" d="M902.4,454.5h7.8v-3.4h-7.8v3.4Z" class="g0_1" id="svg_477"/><path fill-rule="evenodd" d="M489.5,526h1.1V457h-1.1v69Z" class="g0_1" id="svg_478"/><path fill-rule="evenodd" d="M485,526h3.4V457H485v69Z" class="g0_1" id="svg_479"/><path fill-rule="evenodd" d="M482.8,526h1.1V457h-1.1v69Z" class="g0_1" id="svg_480"/><path fill-rule="evenodd" d="M909.1,526h1.1V457h-1.1v69Z" class="g0_1" id="svg_481"/><path fill-rule="evenodd" d="M904.6,526H908V457h-3.4v69Z" class="g0_1" id="svg_482"/><path fill-rule="evenodd" d="M902.4,526h1.1V457h-1.1v69Z" class="g0_1" id="svg_483"/><path fill-rule="evenodd" d="M482.8,533.8h1.1V526h-1.1v7.8Z" class="g0_1" id="svg_484"/><path fill-rule="evenodd" d="M482.8,533.8h7.8v-1.1h-7.8v1.1Z" class="g0_1" id="svg_485"/><path fill-rule="evenodd" d="M485,531.6h3.4V526H485v5.6Z" class="g0_1" id="svg_486"/><path fill-rule="evenodd" d="M485,531.6h5.6v-3.4H485v3.4Z" class="g0_1" id="svg_487"/><path fill-rule="evenodd" d="M489.5,527.1h1.1V526h-1.1v1.1Z" class="g0_1" id="svg_488"/><path fill-rule="evenodd" d="M489.5,527.1h1.1V526h-1.1v1.1Z" class="g0_1" id="svg_489"/><path fill-rule="evenodd" d="M490.6,527.1h7.9V526h-7.9v1.1Z" class="g0_1" id="svg_490"/><path fill-rule="evenodd" d="M490.6,531.6h7.9v-3.4h-7.9v3.4Z" class="g0_1" id="svg_491"/><path fill-rule="evenodd" d="M490.6,533.8h7.9v-1.1h-7.9v1.1Z" class="g0_1" id="svg_492"/><path fill-rule="evenodd" d="M498.5,527.1H902.4V526H498.5v1.1Z" class="g0_1" id="svg_493"/><path fill-rule="evenodd" d="M498.5,531.6H902.4v-3.4H498.5v3.4Z" class="g0_1" id="svg_494"/><path fill-rule="evenodd" d="M498.5,533.8H902.4v-1.1H498.5v1.1Z" class="g0_1" id="svg_495"/><path fill-rule="evenodd" d="M902.4,527.1h1.1V526h-1.1v1.1Z" class="g0_1" id="svg_496"/><path fill-rule="evenodd" d="M909.1,527.1h1.1V526h-1.1v1.1Z" class="g0_1" id="svg_497"/><path fill-rule="evenodd" d="M902.4,533.8h7.8v-1.1h-7.8v1.1Z" class="g0_1" id="svg_498"/><path fill-rule="evenodd" d="M904.6,531.6H908V526h-3.4v5.6Z" class="g0_1" id="svg_499"/><path fill-rule="evenodd" d="M902.4,531.6h7.8v-3.4h-7.8v3.4Z" class="g0_1" id="svg_500"/><path fill-rule="evenodd" d="M486.8,651.1h30.4v-.8H486.8v.8Z" class="g0_1" id="svg_501"/><path fill-rule="evenodd" d="M517.2,651.1h.7v-.8h-.7v.8Z" class="g0_1" id="svg_502"/><path fill-rule="evenodd" d="M517.9,651.1H623.2v-.8H517.9v.8Z" class="g0_1" id="svg_503"/><path fill-rule="evenodd" d="M623.2,651.1h.7v-.8h-.7v.8Z" class="g0_1" id="svg_504"/><path fill-rule="evenodd" d="M623.9,651.1h31.8v-.8H623.9v.8Z" class="g0_1" id="svg_505"/><path fill-rule="evenodd" d="M655.7,651.1h.7v-.8h-.7v.8Z" class="g0_1" id="svg_506"/><path fill-rule="evenodd" d="M656.4,651.1H763.9v-.8H656.4v.8Z" class="g0_1" id="svg_507"/><path fill-rule="evenodd" d="M763.9,651.1h.8v-.8h-.8v.8Z" class="g0_1" id="svg_508"/><path fill-rule="evenodd" d="M764.7,651.1h33.2v-.8H764.7v.8Z" class="g0_1" id="svg_509"/><path fill-rule="evenodd" d="M797.9,651.1h.8v-.8h-.8v.8Z" class="g0_1" id="svg_510"/><path fill-rule="evenodd" d="M798.7,651.1H906.3v-.8H798.7v.8Z" class="g0_1" id="svg_511"/><path fill-rule="evenodd" d="M486.8,842.1h30.4v-.7H486.8v.7Z" class="g0_1" id="svg_512"/><path fill-rule="evenodd" d="M517.2,842.1h.7v-.7h-.7v.7Z" class="g0_1" id="svg_513"/><path fill-rule="evenodd" d="M517.9,842.1H655.7v-.7H517.9v.7Z" class="g0_1" id="svg_514"/><path fill-rule="evenodd" d="M655.7,842.1h.7v-.7h-.7v.7Z" class="g0_1" id="svg_515"/><path fill-rule="evenodd" d="M656.4,842.1H906.3v-.7H656.4v.7Z" class="g0_1" id="svg_516"/><path fill-rule="evenodd" d="M486.8,998.9H906.3v-.7H486.8v.7Z" class="g0_1" id="svg_517"/><path fill-rule="evenodd" d="M486.8,1086.3h30.4v-.8H486.8v.8Z" class="g0_1" id="svg_518"/><path fill-rule="evenodd" d="M517.2,1086.3h.7v-.8h-.7v.8Z" class="g0_1" id="svg_519"/><path fill-rule="evenodd" d="M517.9,1086.3H906.3v-.8H517.9v.8Z" class="g0_1" id="svg_520"/><path fill-rule="evenodd" d="M721.4,1147.7H906.3v-.8H721.4v.8Z" class="g0_1" id="svg_521"/><path fill-rule="evenodd" d="M469.50435206088997,1177.9731415501715 h1.1992747981904 V68.144255391472 h-1.1992747981904 V1177.9731415501715 z" class="g0_1 selected" id="svg_522"/><path fill-rule="evenodd" d="M41,234.7h83.7v-1H41v1Z" class="g1_1" id="svg_523"/></g></svg>