<?xml version="1.0" encoding="UTF-8" standalone="no"?>
<!DOCTYPE svg PUBLIC "-//W3C//DTD SVG 1.1//EN"
"http://www.w3.org/Graphics/SVG/1.1/DTD/svg11.dtd">
<svg viewBox="0 0 935 1210" version="1.1" xmlns="http://www.w3.org/2000/svg" xmlns:xlink="http://www.w3.org/1999/xlink">
<defs>
<style type="text/css"><![CDATA[
.g0_3{
}
]]></style>
</defs>
<path fill-rule="evenodd" d="M34.7,115.3H912.2v-.7H34.7v.7Z" class="g0_3"/>
<path fill-rule="evenodd" d="M34.7,146.4H912.2v-.7H34.7v.7Z" class="g0_3"/>
<path fill-rule="evenodd" d="M34.3,177.5H35v-.8h-.7v.8Z" class="g0_3"/>
<path fill-rule="evenodd" d="M34.3,177.5H35v-.8h-.7v.8Z" class="g0_3"/>
<path fill-rule="evenodd" d="M35,177.5h.7v-.8H35v.8Z" class="g0_3"/>
<path fill-rule="evenodd" d="M35.7,177.5H68.8v-.8H35.7v.8Z" class="g0_3"/>
<path fill-rule="evenodd" d="M68.8,177.5h.7v-.8h-.7v.8Z" class="g0_3"/>
<path fill-rule="evenodd" d="M69.5,177.5H184.2v-.8H69.5v.8Z" class="g0_3"/>
<path fill-rule="evenodd" d="M184.2,177.5h.7v-.8h-.7v.8Z" class="g0_3"/>
<path fill-rule="evenodd" d="M184.9,177.5h30.5v-.8H184.9v.8Z" class="g0_3"/>
<path fill-rule="evenodd" d="M215.4,177.5h.7v-.8h-.7v.8Z" class="g0_3"/>
<path fill-rule="evenodd" d="M216.1,177.5h115v-.8h-115v.8Z" class="g0_3"/>
<path fill-rule="evenodd" d="M331.1,177.5h.8v-.8h-.8v.8Z" class="g0_3"/>
<path fill-rule="evenodd" d="M331.9,177.5h30.4v-.8H331.9v.8Z" class="g0_3"/>
<path fill-rule="evenodd" d="M362.3,177.5h.7v-.8h-.7v.8Z" class="g0_3"/>
<path fill-rule="evenodd" d="M363,177.5H478.3v-.8H363v.8Z" class="g0_3"/>
<path fill-rule="evenodd" d="M478.3,177.5h.8v-.8h-.8v.8Z" class="g0_3"/>
<path fill-rule="evenodd" d="M479.1,177.5h30.4v-.8H479.1v.8Z" class="g0_3"/>
<path fill-rule="evenodd" d="M509.5,177.5h.8v-.8h-.8v.8Z" class="g0_3"/>
<path fill-rule="evenodd" d="M510.3,177.5H624.2v-.8H510.3v.8Z" class="g0_3"/>
<path fill-rule="evenodd" d="M624.2,177.5h.8v-.8h-.8v.8Z" class="g0_3"/>
<path fill-rule="evenodd" d="M625,177.5h30.7v-.8H625v.8Z" class="g0_3"/>
<path fill-rule="evenodd" d="M655.7,177.5h.7v-.8h-.7v.8Z" class="g0_3"/>
<path fill-rule="evenodd" d="M656.4,177.5H773.8v-.8H656.4v.8Z" class="g0_3"/>
<path fill-rule="evenodd" d="M773.8,177.5h.8v-.8h-.8v.8Z" class="g0_3"/>
<path fill-rule="evenodd" d="M774.6,177.5h28.6v-.8H774.6v.8Z" class="g0_3"/>
<path fill-rule="evenodd" d="M803.2,177.5h.8v-.8h-.8v.8Z" class="g0_3"/>
<path fill-rule="evenodd" d="M804,177.5H911.8v-.8H804v.8Z" class="g0_3"/>
<path fill-rule="evenodd" d="M911.8,177.5h.7v-.8h-.7v.8Z" class="g0_3"/>
<path fill-rule="evenodd" d="M34.3,203H35V177.5h-.7V203Z" class="g0_3"/>
<path fill-rule="evenodd" d="M184.2,203h.7V177.5h-.7V203Z" class="g0_3"/>
<path fill-rule="evenodd" d="M331.1,203h.8V177.5h-.8V203Z" class="g0_3"/>
<path fill-rule="evenodd" d="M478.3,203h.8V177.5h-.8V203Z" class="g0_3"/>
<path fill-rule="evenodd" d="M624.2,203h.8V177.5h-.8V203Z" class="g0_3"/>
<path fill-rule="evenodd" d="M773.8,203h.8V177.5h-.8V203Z" class="g0_3"/>
<path fill-rule="evenodd" d="M911.8,203h.7V177.5h-.7V203Z" class="g0_3"/>
<path fill-rule="evenodd" d="M34.3,203.7H35V203h-.7v.7Z" class="g0_3"/>
<path fill-rule="evenodd" d="M35,203.7H68.8V203H35v.7Z" class="g0_3"/>
<path fill-rule="evenodd" d="M68.8,203.7h.7V203h-.7v.7Z" class="g0_3"/>
<path fill-rule="evenodd" d="M69.5,203.7H184.2V203H69.5v.7Z" class="g0_3"/>
<path fill-rule="evenodd" d="M184.2,203.7h.7V203h-.7v.7Z" class="g0_3"/>
<path fill-rule="evenodd" d="M184.9,203.7h30.5V203H184.9v.7Z" class="g0_3"/>
<path fill-rule="evenodd" d="M215.4,203.7h.7V203h-.7v.7Z" class="g0_3"/>
<path fill-rule="evenodd" d="M216.1,203.7h115V203h-115v.7Z" class="g0_3"/>
<path fill-rule="evenodd" d="M331.1,203.7h.8V203h-.8v.7Z" class="g0_3"/>
<path fill-rule="evenodd" d="M331.9,203.7h30.4V203H331.9v.7Z" class="g0_3"/>
<path fill-rule="evenodd" d="M362.3,203.7h.7V203h-.7v.7Z" class="g0_3"/>
<path fill-rule="evenodd" d="M363,203.7H478.3V203H363v.7Z" class="g0_3"/>
<path fill-rule="evenodd" d="M478.3,203.7h.8V203h-.8v.7Z" class="g0_3"/>
<path fill-rule="evenodd" d="M479.1,203.7h30.4V203H479.1v.7Z" class="g0_3"/>
<path fill-rule="evenodd" d="M509.5,203.7h.8V203h-.8v.7Z" class="g0_3"/>
<path fill-rule="evenodd" d="M510.3,203.7H624.2V203H510.3v.7Z" class="g0_3"/>
<path fill-rule="evenodd" d="M624.2,203.7h.8V203h-.8v.7Z" class="g0_3"/>
<path fill-rule="evenodd" d="M625,203.7h30.7V203H625v.7Z" class="g0_3"/>
<path fill-rule="evenodd" d="M655.7,203.7h.7V203h-.7v.7Z" class="g0_3"/>
<path fill-rule="evenodd" d="M656.4,203.7H773.8V203H656.4v.7Z" class="g0_3"/>
<path fill-rule="evenodd" d="M773.8,203.7h.8V203h-.8v.7Z" class="g0_3"/>
<path fill-rule="evenodd" d="M774.6,203.7h28.6V203H774.6v.7Z" class="g0_3"/>
<path fill-rule="evenodd" d="M803.2,203.7h.8V203h-.8v.7Z" class="g0_3"/>
<path fill-rule="evenodd" d="M804,203.7H911.8V203H804v.7Z" class="g0_3"/>
<path fill-rule="evenodd" d="M911.8,203.7h.7V203h-.7v.7Z" class="g0_3"/>
<path fill-rule="evenodd" d="M34.3,229.1H35V203.7h-.7v25.4Z" class="g0_3"/>
<path fill-rule="evenodd" d="M184.2,229.1h.7V203.7h-.7v25.4Z" class="g0_3"/>
<path fill-rule="evenodd" d="M331.1,229.1h.8V203.7h-.8v25.4Z" class="g0_3"/>
<path fill-rule="evenodd" d="M478.3,229.1h.8V203.7h-.8v25.4Z" class="g0_3"/>
<path fill-rule="evenodd" d="M624.2,229.1h.8V203.7h-.8v25.4Z" class="g0_3"/>
<path fill-rule="evenodd" d="M773.8,229.1h.8V203.7h-.8v25.4Z" class="g0_3"/>
<path fill-rule="evenodd" d="M911.8,229.1h.7V203.7h-.7v25.4Z" class="g0_3"/>
<path fill-rule="evenodd" d="M34.3,229.8H35v-.7h-.7v.7Z" class="g0_3"/>
<path fill-rule="evenodd" d="M35,229.8H68.8v-.7H35v.7Z" class="g0_3"/>
<path fill-rule="evenodd" d="M68.8,229.8h.7v-.7h-.7v.7Z" class="g0_3"/>
<path fill-rule="evenodd" d="M69.5,229.8H184.2v-.7H69.5v.7Z" class="g0_3"/>
<path fill-rule="evenodd" d="M184.2,229.8h.7v-.7h-.7v.7Z" class="g0_3"/>
<path fill-rule="evenodd" d="M184.9,229.8h30.5v-.7H184.9v.7Z" class="g0_3"/>
<path fill-rule="evenodd" d="M215.4,229.8h.7v-.7h-.7v.7Z" class="g0_3"/>
<path fill-rule="evenodd" d="M216.1,229.8h115v-.7h-115v.7Z" class="g0_3"/>
<path fill-rule="evenodd" d="M331.1,229.8h.8v-.7h-.8v.7Z" class="g0_3"/>
<path fill-rule="evenodd" d="M331.9,229.8h30.4v-.7H331.9v.7Z" class="g0_3"/>
<path fill-rule="evenodd" d="M362.3,229.8h.7v-.7h-.7v.7Z" class="g0_3"/>
<path fill-rule="evenodd" d="M363,229.8H478.3v-.7H363v.7Z" class="g0_3"/>
<path fill-rule="evenodd" d="M478.3,229.8h.8v-.7h-.8v.7Z" class="g0_3"/>
<path fill-rule="evenodd" d="M479.1,229.8h30.4v-.7H479.1v.7Z" class="g0_3"/>
<path fill-rule="evenodd" d="M509.5,229.8h.8v-.7h-.8v.7Z" class="g0_3"/>
<path fill-rule="evenodd" d="M510.3,229.8H624.2v-.7H510.3v.7Z" class="g0_3"/>
<path fill-rule="evenodd" d="M624.2,229.8h.8v-.7h-.8v.7Z" class="g0_3"/>
<path fill-rule="evenodd" d="M625,229.8h30.7v-.7H625v.7Z" class="g0_3"/>
<path fill-rule="evenodd" d="M655.7,229.8h.7v-.7h-.7v.7Z" class="g0_3"/>
<path fill-rule="evenodd" d="M656.4,229.8H773.8v-.7H656.4v.7Z" class="g0_3"/>
<path fill-rule="evenodd" d="M773.8,229.8h.8v-.7h-.8v.7Z" class="g0_3"/>
<path fill-rule="evenodd" d="M774.6,229.8h28.6v-.7H774.6v.7Z" class="g0_3"/>
<path fill-rule="evenodd" d="M803.2,229.8h.8v-.7h-.8v.7Z" class="g0_3"/>
<path fill-rule="evenodd" d="M804,229.8H911.8v-.7H804v.7Z" class="g0_3"/>
<path fill-rule="evenodd" d="M911.8,229.8h.7v-.7h-.7v.7Z" class="g0_3"/>
<path fill-rule="evenodd" d="M34.3,255.3H35V229.8h-.7v25.5Z" class="g0_3"/>
<path fill-rule="evenodd" d="M184.2,255.3h.7V229.8h-.7v25.5Z" class="g0_3"/>
<path fill-rule="evenodd" d="M331.1,255.3h.8V229.8h-.8v25.5Z" class="g0_3"/>
<path fill-rule="evenodd" d="M478.3,255.3h.8V229.8h-.8v25.5Z" class="g0_3"/>
<path fill-rule="evenodd" d="M624.2,255.3h.8V229.8h-.8v25.5Z" class="g0_3"/>
<path fill-rule="evenodd" d="M773.8,255.3h.8V229.8h-.8v25.5Z" class="g0_3"/>
<path fill-rule="evenodd" d="M911.8,255.3h.7V229.8h-.7v25.5Z" class="g0_3"/>
<path fill-rule="evenodd" d="M34.3,256.1H35v-.8h-.7v.8Z" class="g0_3"/>
<path fill-rule="evenodd" d="M35,256.1H68.8v-.8H35v.8Z" class="g0_3"/>
<path fill-rule="evenodd" d="M68.8,256.1h.7v-.8h-.7v.8Z" class="g0_3"/>
<path fill-rule="evenodd" d="M69.5,256.1H184.2v-.8H69.5v.8Z" class="g0_3"/>
<path fill-rule="evenodd" d="M184.2,256.1h.7v-.8h-.7v.8Z" class="g0_3"/>
<path fill-rule="evenodd" d="M184.9,256.1h30.5v-.8H184.9v.8Z" class="g0_3"/>
<path fill-rule="evenodd" d="M215.4,256.1h.7v-.8h-.7v.8Z" class="g0_3"/>
<path fill-rule="evenodd" d="M216.1,256.1h115v-.8h-115v.8Z" class="g0_3"/>
<path fill-rule="evenodd" d="M331.1,256.1h.8v-.8h-.8v.8Z" class="g0_3"/>
<path fill-rule="evenodd" d="M331.9,256.1h30.4v-.8H331.9v.8Z" class="g0_3"/>
<path fill-rule="evenodd" d="M362.3,256.1h.7v-.8h-.7v.8Z" class="g0_3"/>
<path fill-rule="evenodd" d="M363,256.1H478.3v-.8H363v.8Z" class="g0_3"/>
<path fill-rule="evenodd" d="M478.3,256.1h.8v-.8h-.8v.8Z" class="g0_3"/>
<path fill-rule="evenodd" d="M479.1,256.1h30.4v-.8H479.1v.8Z" class="g0_3"/>
<path fill-rule="evenodd" d="M509.5,256.1h.8v-.8h-.8v.8Z" class="g0_3"/>
<path fill-rule="evenodd" d="M510.3,256.1H624.2v-.8H510.3v.8Z" class="g0_3"/>
<path fill-rule="evenodd" d="M624.2,256.1h.8v-.8h-.8v.8Z" class="g0_3"/>
<path fill-rule="evenodd" d="M625,256.1h30.7v-.8H625v.8Z" class="g0_3"/>
<path fill-rule="evenodd" d="M655.7,256.1h.7v-.8h-.7v.8Z" class="g0_3"/>
<path fill-rule="evenodd" d="M656.4,256.1H773.8v-.8H656.4v.8Z" class="g0_3"/>
<path fill-rule="evenodd" d="M773.8,256.1h.8v-.8h-.8v.8Z" class="g0_3"/>
<path fill-rule="evenodd" d="M774.6,256.1h28.6v-.8H774.6v.8Z" class="g0_3"/>
<path fill-rule="evenodd" d="M803.2,256.1h.8v-.8h-.8v.8Z" class="g0_3"/>
<path fill-rule="evenodd" d="M804,256.1H911.8v-.8H804v.8Z" class="g0_3"/>
<path fill-rule="evenodd" d="M911.8,256.1h.7v-.8h-.7v.8Z" class="g0_3"/>
<path fill-rule="evenodd" d="M34.3,281.5H35V256.1h-.7v25.4Z" class="g0_3"/>
<path fill-rule="evenodd" d="M184.2,281.5h.7V256.1h-.7v25.4Z" class="g0_3"/>
<path fill-rule="evenodd" d="M331.1,281.5h.8V256.1h-.8v25.4Z" class="g0_3"/>
<path fill-rule="evenodd" d="M478.3,281.5h.8V256.1h-.8v25.4Z" class="g0_3"/>
<path fill-rule="evenodd" d="M624.2,281.5h.8V256.1h-.8v25.4Z" class="g0_3"/>
<path fill-rule="evenodd" d="M773.8,281.5h.8V256.1h-.8v25.4Z" class="g0_3"/>
<path fill-rule="evenodd" d="M911.8,281.5h.7V256.1h-.7v25.4Z" class="g0_3"/>
<path fill-rule="evenodd" d="M34.3,282.3H35v-.8h-.7v.8Z" class="g0_3"/>
<path fill-rule="evenodd" d="M34.3,282.3H35v-.8h-.7v.8Z" class="g0_3"/>
<path fill-rule="evenodd" d="M35,282.3h.7v-.8H35v.8Z" class="g0_3"/>
<path fill-rule="evenodd" d="M35.7,282.3H68.8v-.8H35.7v.8Z" class="g0_3"/>
<path fill-rule="evenodd" d="M68.8,282.3h.7v-.8h-.7v.8Z" class="g0_3"/>
<path fill-rule="evenodd" d="M69.5,282.3H184.2v-.8H69.5v.8Z" class="g0_3"/>
<path fill-rule="evenodd" d="M184.2,282.3h.7v-.8h-.7v.8Z" class="g0_3"/>
<path fill-rule="evenodd" d="M184.9,282.3h30.5v-.8H184.9v.8Z" class="g0_3"/>
<path fill-rule="evenodd" d="M215.4,282.3h.7v-.8h-.7v.8Z" class="g0_3"/>
<path fill-rule="evenodd" d="M216.1,282.3h115v-.8h-115v.8Z" class="g0_3"/>
<path fill-rule="evenodd" d="M331.1,282.3h.8v-.8h-.8v.8Z" class="g0_3"/>
<path fill-rule="evenodd" d="M331.9,282.3h30.4v-.8H331.9v.8Z" class="g0_3"/>
<path fill-rule="evenodd" d="M362.3,282.3h.7v-.8h-.7v.8Z" class="g0_3"/>
<path fill-rule="evenodd" d="M363,282.3H478.3v-.8H363v.8Z" class="g0_3"/>
<path fill-rule="evenodd" d="M478.3,282.3h.8v-.8h-.8v.8Z" class="g0_3"/>
<path fill-rule="evenodd" d="M479.1,282.3h30.4v-.8H479.1v.8Z" class="g0_3"/>
<path fill-rule="evenodd" d="M509.5,282.3h.8v-.8h-.8v.8Z" class="g0_3"/>
<path fill-rule="evenodd" d="M510.3,282.3H624.2v-.8H510.3v.8Z" class="g0_3"/>
<path fill-rule="evenodd" d="M624.2,282.3h.8v-.8h-.8v.8Z" class="g0_3"/>
<path fill-rule="evenodd" d="M625,282.3h30.7v-.8H625v.8Z" class="g0_3"/>
<path fill-rule="evenodd" d="M655.7,282.3h.7v-.8h-.7v.8Z" class="g0_3"/>
<path fill-rule="evenodd" d="M656.4,282.3H773.8v-.8H656.4v.8Z" class="g0_3"/>
<path fill-rule="evenodd" d="M773.8,282.3h.8v-.8h-.8v.8Z" class="g0_3"/>
<path fill-rule="evenodd" d="M774.6,282.3h28.6v-.8H774.6v.8Z" class="g0_3"/>
<path fill-rule="evenodd" d="M803.2,282.3h.8v-.8h-.8v.8Z" class="g0_3"/>
<path fill-rule="evenodd" d="M804,282.3H911.8v-.8H804v.8Z" class="g0_3"/>
<path fill-rule="evenodd" d="M911.8,282.3h.7v-.8h-.7v.8Z" class="g0_3"/>
<path fill-rule="evenodd" d="M34.3,314.2H35v-.8h-.7v.8Z" class="g0_3"/>
<path fill-rule="evenodd" d="M34.3,314.2H35v-.8h-.7v.8Z" class="g0_3"/>
<path fill-rule="evenodd" d="M35,314.2h.7v-.8H35v.8Z" class="g0_3"/>
<path fill-rule="evenodd" d="M35.7,314.2H68.8v-.8H35.7v.8Z" class="g0_3"/>
<path fill-rule="evenodd" d="M68.8,314.2h.7v-.8h-.7v.8Z" class="g0_3"/>
<path fill-rule="evenodd" d="M69.5,314.2H184.2v-.8H69.5v.8Z" class="g0_3"/>
<path fill-rule="evenodd" d="M184.2,314.2h.7v-.8h-.7v.8Z" class="g0_3"/>
<path fill-rule="evenodd" d="M184.9,314.2h30.5v-.8H184.9v.8Z" class="g0_3"/>
<path fill-rule="evenodd" d="M215.4,314.2h.7v-.8h-.7v.8Z" class="g0_3"/>
<path fill-rule="evenodd" d="M216.1,314.2h115v-.8h-115v.8Z" class="g0_3"/>
<path fill-rule="evenodd" d="M331.1,314.2h.8v-.8h-.8v.8Z" class="g0_3"/>
<path fill-rule="evenodd" d="M331.9,314.2h30.4v-.8H331.9v.8Z" class="g0_3"/>
<path fill-rule="evenodd" d="M362.3,314.2h.7v-.8h-.7v.8Z" class="g0_3"/>
<path fill-rule="evenodd" d="M363,314.2H478.3v-.8H363v.8Z" class="g0_3"/>
<path fill-rule="evenodd" d="M478.3,314.2h.8v-.8h-.8v.8Z" class="g0_3"/>
<path fill-rule="evenodd" d="M479.1,314.2h30.4v-.8H479.1v.8Z" class="g0_3"/>
<path fill-rule="evenodd" d="M509.5,314.2h.8v-.8h-.8v.8Z" class="g0_3"/>
<path fill-rule="evenodd" d="M510.3,314.2H624.2v-.8H510.3v.8Z" class="g0_3"/>
<path fill-rule="evenodd" d="M624.2,314.2h.8v-.8h-.8v.8Z" class="g0_3"/>
<path fill-rule="evenodd" d="M625,314.2h30.7v-.8H625v.8Z" class="g0_3"/>
<path fill-rule="evenodd" d="M655.7,314.2h.7v-.8h-.7v.8Z" class="g0_3"/>
<path fill-rule="evenodd" d="M656.4,314.2H773.8v-.8H656.4v.8Z" class="g0_3"/>
<path fill-rule="evenodd" d="M773.8,314.2h.8v-.8h-.8v.8Z" class="g0_3"/>
<path fill-rule="evenodd" d="M774.6,314.2h28.6v-.8H774.6v.8Z" class="g0_3"/>
<path fill-rule="evenodd" d="M803.2,314.2h.8v-.8h-.8v.8Z" class="g0_3"/>
<path fill-rule="evenodd" d="M804,314.2H911.8v-.8H804v.8Z" class="g0_3"/>
<path fill-rule="evenodd" d="M911.8,314.2h.7v-.8h-.7v.8Z" class="g0_3"/>
<path fill-rule="evenodd" d="M34.3,339.2H35v-25h-.7v25Z" class="g0_3"/>
<path fill-rule="evenodd" d="M184.2,339.2h.7v-25h-.7v25Z" class="g0_3"/>
<path fill-rule="evenodd" d="M331.1,339.2h.8v-25h-.8v25Z" class="g0_3"/>
<path fill-rule="evenodd" d="M478.3,339.2h.8v-25h-.8v25Z" class="g0_3"/>
<path fill-rule="evenodd" d="M624.2,339.2h.8v-25h-.8v25Z" class="g0_3"/>
<path fill-rule="evenodd" d="M773.8,339.2h.8v-25h-.8v25Z" class="g0_3"/>
<path fill-rule="evenodd" d="M911.8,339.2h.7v-25h-.7v25Z" class="g0_3"/>
<path fill-rule="evenodd" d="M34.3,339.9H35v-.7h-.7v.7Z" class="g0_3"/>
<path fill-rule="evenodd" d="M34.3,339.9H35v-.7h-.7v.7Z" class="g0_3"/>
<path fill-rule="evenodd" d="M35,339.9h.7v-.7H35v.7Z" class="g0_3"/>
<path fill-rule="evenodd" d="M35.7,339.9H68.8v-.7H35.7v.7Z" class="g0_3"/>
<path fill-rule="evenodd" d="M68.8,339.9h.7v-.7h-.7v.7Z" class="g0_3"/>
<path fill-rule="evenodd" d="M69.5,339.9H184.2v-.7H69.5v.7Z" class="g0_3"/>
<path fill-rule="evenodd" d="M184.2,339.9h.7v-.7h-.7v.7Z" class="g0_3"/>
<path fill-rule="evenodd" d="M184.9,339.9h30.5v-.7H184.9v.7Z" class="g0_3"/>
<path fill-rule="evenodd" d="M215.4,339.9h.7v-.7h-.7v.7Z" class="g0_3"/>
<path fill-rule="evenodd" d="M216.1,339.9h115v-.7h-115v.7Z" class="g0_3"/>
<path fill-rule="evenodd" d="M331.1,339.9h.8v-.7h-.8v.7Z" class="g0_3"/>
<path fill-rule="evenodd" d="M331.9,339.9h30.4v-.7H331.9v.7Z" class="g0_3"/>
<path fill-rule="evenodd" d="M362.3,339.9h.7v-.7h-.7v.7Z" class="g0_3"/>
<path fill-rule="evenodd" d="M363,339.9H478.3v-.7H363v.7Z" class="g0_3"/>
<path fill-rule="evenodd" d="M478.3,339.9h.8v-.7h-.8v.7Z" class="g0_3"/>
<path fill-rule="evenodd" d="M479.1,339.9h30.4v-.7H479.1v.7Z" class="g0_3"/>
<path fill-rule="evenodd" d="M509.5,339.9h.8v-.7h-.8v.7Z" class="g0_3"/>
<path fill-rule="evenodd" d="M510.3,339.9H624.2v-.7H510.3v.7Z" class="g0_3"/>
<path fill-rule="evenodd" d="M624.2,339.9h.8v-.7h-.8v.7Z" class="g0_3"/>
<path fill-rule="evenodd" d="M625,339.9h30.7v-.7H625v.7Z" class="g0_3"/>
<path fill-rule="evenodd" d="M655.7,339.9h.7v-.7h-.7v.7Z" class="g0_3"/>
<path fill-rule="evenodd" d="M656.4,339.9H773.8v-.7H656.4v.7Z" class="g0_3"/>
<path fill-rule="evenodd" d="M773.8,339.9h.8v-.7h-.8v.7Z" class="g0_3"/>
<path fill-rule="evenodd" d="M774.6,339.9h28.6v-.7H774.6v.7Z" class="g0_3"/>
<path fill-rule="evenodd" d="M803.2,339.9h.8v-.7h-.8v.7Z" class="g0_3"/>
<path fill-rule="evenodd" d="M804,339.9H911.8v-.7H804v.7Z" class="g0_3"/>
<path fill-rule="evenodd" d="M911.8,339.9h.7v-.7h-.7v.7Z" class="g0_3"/>
<path fill-rule="evenodd" d="M34.3,370.5H35v-.8h-.7v.8Z" class="g0_3"/>
<path fill-rule="evenodd" d="M34.3,370.5H35v-.8h-.7v.8Z" class="g0_3"/>
<path fill-rule="evenodd" d="M35,370.5h.7v-.8H35v.8Z" class="g0_3"/>
<path fill-rule="evenodd" d="M35.7,370.5H174.1v-.8H35.7v.8Z" class="g0_3"/>
<path fill-rule="evenodd" d="M174.1,370.5h.7v-.8h-.7v.8Z" class="g0_3"/>
<path fill-rule="evenodd" d="M174.8,370.5h33.8v-.8H174.8v.8Z" class="g0_3"/>
<path fill-rule="evenodd" d="M208.6,370.5h.7v-.8h-.7v.8Z" class="g0_3"/>
<path fill-rule="evenodd" d="M209.3,370.5h67.9v-.8H209.3v.8Z" class="g0_3"/>
<path fill-rule="evenodd" d="M277.2,370.5h.8v-.8h-.8v.8Z" class="g0_3"/>
<path fill-rule="evenodd" d="M278,370.5h35v-.8H278v.8Z" class="g0_3"/>
<path fill-rule="evenodd" d="M313,370.5h.7v-.8H313v.8Z" class="g0_3"/>
<path fill-rule="evenodd" d="M313.7,370.5h55.5v-.8H313.7v.8Z" class="g0_3"/>
<path fill-rule="evenodd" d="M369.2,370.5h.7v-.8h-.7v.8Z" class="g0_3"/>
<path fill-rule="evenodd" d="M369.9,370.5h33.5v-.8H369.9v.8Z" class="g0_3"/>
<path fill-rule="evenodd" d="M403.4,370.5h.7v-.8h-.7v.8Z" class="g0_3"/>
<path fill-rule="evenodd" d="M404.1,370.5h71.8v-.8H404.1v.8Z" class="g0_3"/>
<path fill-rule="evenodd" d="M475.9,370.5h.7v-.8h-.7v.8Z" class="g0_3"/>
<path fill-rule="evenodd" d="M476.6,370.5h35.1v-.8H476.6v.8Z" class="g0_3"/>
<path fill-rule="evenodd" d="M511.7,370.5h.7v-.8h-.7v.8Z" class="g0_3"/>
<path fill-rule="evenodd" d="M512.4,370.5h73.5v-.8H512.4v.8Z" class="g0_3"/>
<path fill-rule="evenodd" d="M585.9,370.5h.7v-.8h-.7v.8Z" class="g0_3"/>
<path fill-rule="evenodd" d="M586.6,370.5h33.8v-.8H586.6v.8Z" class="g0_3"/>
<path fill-rule="evenodd" d="M620.4,370.5h.7v-.8h-.7v.8Z" class="g0_3"/>
<path fill-rule="evenodd" d="M621.1,370.5h65.3v-.8H621.1v.8Z" class="g0_3"/>
<path fill-rule="evenodd" d="M686.4,370.5h.7v-.8h-.7v.8Z" class="g0_3"/>
<path fill-rule="evenodd" d="M687.1,370.5h30.4v-.8H687.1v.8Z" class="g0_3"/>
<path fill-rule="evenodd" d="M717.5,370.5h.8v-.8h-.8v.8Z" class="g0_3"/>
<path fill-rule="evenodd" d="M718.3,370.5h105v-.8h-105v.8Z" class="g0_3"/>
<path fill-rule="evenodd" d="M823.3,370.5h.8v-.8h-.8v.8Z" class="g0_3"/>
<path fill-rule="evenodd" d="M824.1,370.5h32.1v-.8H824.1v.8Z" class="g0_3"/>
<path fill-rule="evenodd" d="M856.2,370.5h.7v-.8h-.7v.8Z" class="g0_3"/>
<path fill-rule="evenodd" d="M856.9,370.5h54.9v-.8H856.9v.8Z" class="g0_3"/>
<path fill-rule="evenodd" d="M911.8,370.5h.7v-.8h-.7v.8Z" class="g0_3"/>
<path fill-rule="evenodd" d="M34.3,396.5H35v-26h-.7v26Z" class="g0_3"/>
<path fill-rule="evenodd" d="M174.1,396.5h.7v-26h-.7v26Z" class="g0_3"/>
<path fill-rule="evenodd" d="M277.2,396.5h.8v-26h-.8v26Z" class="g0_3"/>
<path fill-rule="evenodd" d="M369.2,396.5h.7v-26h-.7v26Z" class="g0_3"/>
<path fill-rule="evenodd" d="M475.9,396.5h.7v-26h-.7v26Z" class="g0_3"/>
<path fill-rule="evenodd" d="M585.9,396.5h.7v-26h-.7v26Z" class="g0_3"/>
<path fill-rule="evenodd" d="M686.4,396.5h.7v-26h-.7v26Z" class="g0_3"/>
<path fill-rule="evenodd" d="M823.3,396.5h.8v-26h-.8v26Z" class="g0_3"/>
<path fill-rule="evenodd" d="M911.8,396.5h.7v-26h-.7v26Z" class="g0_3"/>
<path fill-rule="evenodd" d="M34.3,397.2H35v-.7h-.7v.7Z" class="g0_3"/>
<path fill-rule="evenodd" d="M35,397.2H174.1v-.7H35v.7Z" class="g0_3"/>
<path fill-rule="evenodd" d="M174.1,397.2h.7v-.7h-.7v.7Z" class="g0_3"/>
<path fill-rule="evenodd" d="M174.8,397.2h33.8v-.7H174.8v.7Z" class="g0_3"/>
<path fill-rule="evenodd" d="M208.6,397.2h.7v-.7h-.7v.7Z" class="g0_3"/>
<path fill-rule="evenodd" d="M209.3,397.2h67.9v-.7H209.3v.7Z" class="g0_3"/>
<path fill-rule="evenodd" d="M277.2,397.2h.8v-.7h-.8v.7Z" class="g0_3"/>
<path fill-rule="evenodd" d="M278,397.2h35v-.7H278v.7Z" class="g0_3"/>
<path fill-rule="evenodd" d="M313,397.2h.7v-.7H313v.7Z" class="g0_3"/>
<path fill-rule="evenodd" d="M313.7,397.2h55.5v-.7H313.7v.7Z" class="g0_3"/>
<path fill-rule="evenodd" d="M369.2,397.2h.7v-.7h-.7v.7Z" class="g0_3"/>
<path fill-rule="evenodd" d="M369.9,397.2h33.5v-.7H369.9v.7Z" class="g0_3"/>
<path fill-rule="evenodd" d="M403.4,397.2h.7v-.7h-.7v.7Z" class="g0_3"/>
<path fill-rule="evenodd" d="M404.1,397.2h71.8v-.7H404.1v.7Z" class="g0_3"/>
<path fill-rule="evenodd" d="M475.9,397.2h.7v-.7h-.7v.7Z" class="g0_3"/>
<path fill-rule="evenodd" d="M476.6,397.2h35.1v-.7H476.6v.7Z" class="g0_3"/>
<path fill-rule="evenodd" d="M511.7,397.2h.7v-.7h-.7v.7Z" class="g0_3"/>
<path fill-rule="evenodd" d="M512.4,397.2h73.5v-.7H512.4v.7Z" class="g0_3"/>
<path fill-rule="evenodd" d="M585.9,397.2h.7v-.7h-.7v.7Z" class="g0_3"/>
<path fill-rule="evenodd" d="M586.6,397.2h33.8v-.7H586.6v.7Z" class="g0_3"/>
<path fill-rule="evenodd" d="M620.4,397.2h.7v-.7h-.7v.7Z" class="g0_3"/>
<path fill-rule="evenodd" d="M621.1,397.2h65.3v-.7H621.1v.7Z" class="g0_3"/>
<path fill-rule="evenodd" d="M686.4,397.2h.7v-.7h-.7v.7Z" class="g0_3"/>
<path fill-rule="evenodd" d="M687.1,397.2h30.4v-.7H687.1v.7Z" class="g0_3"/>
<path fill-rule="evenodd" d="M717.5,397.2h.8v-.7h-.8v.7Z" class="g0_3"/>
<path fill-rule="evenodd" d="M718.3,397.2h105v-.7h-105v.7Z" class="g0_3"/>
<path fill-rule="evenodd" d="M823.3,397.2h.8v-.7h-.8v.7Z" class="g0_3"/>
<path fill-rule="evenodd" d="M824.1,397.2h32.1v-.7H824.1v.7Z" class="g0_3"/>
<path fill-rule="evenodd" d="M856.2,397.2h.7v-.7h-.7v.7Z" class="g0_3"/>
<path fill-rule="evenodd" d="M856.9,397.2h54.9v-.7H856.9v.7Z" class="g0_3"/>
<path fill-rule="evenodd" d="M911.8,397.2h.7v-.7h-.7v.7Z" class="g0_3"/>
<path fill-rule="evenodd" d="M34.3,423.3H35V397.2h-.7v26.1Z" class="g0_3"/>
<path fill-rule="evenodd" d="M174.1,423.3h.7V397.2h-.7v26.1Z" class="g0_3"/>
<path fill-rule="evenodd" d="M277.2,423.3h.8V397.2h-.8v26.1Z" class="g0_3"/>
<path fill-rule="evenodd" d="M369.2,423.3h.7V397.2h-.7v26.1Z" class="g0_3"/>
<path fill-rule="evenodd" d="M475.9,423.3h.7V397.2h-.7v26.1Z" class="g0_3"/>
<path fill-rule="evenodd" d="M585.9,423.3h.7V397.2h-.7v26.1Z" class="g0_3"/>
<path fill-rule="evenodd" d="M686.4,423.3h.7V397.2h-.7v26.1Z" class="g0_3"/>
<path fill-rule="evenodd" d="M823.3,423.3h.8V397.2h-.8v26.1Z" class="g0_3"/>
<path fill-rule="evenodd" d="M911.8,423.3h.7V397.2h-.7v26.1Z" class="g0_3"/>
<path fill-rule="evenodd" d="M34.3,424H35v-.7h-.7v.7Z" class="g0_3"/>
<path fill-rule="evenodd" d="M34.3,424H35v-.7h-.7v.7Z" class="g0_3"/>
<path fill-rule="evenodd" d="M35,424h.7v-.7H35v.7Z" class="g0_3"/>
<path fill-rule="evenodd" d="M35.7,424H174.1v-.7H35.7v.7Z" class="g0_3"/>
<path fill-rule="evenodd" d="M174.1,424h.7v-.7h-.7v.7Z" class="g0_3"/>
<path fill-rule="evenodd" d="M174.8,424h33.8v-.7H174.8v.7Z" class="g0_3"/>
<path fill-rule="evenodd" d="M208.6,424h.7v-.7h-.7v.7Z" class="g0_3"/>
<path fill-rule="evenodd" d="M209.3,424h67.9v-.7H209.3v.7Z" class="g0_3"/>
<path fill-rule="evenodd" d="M277.2,424h.8v-.7h-.8v.7Z" class="g0_3"/>
<path fill-rule="evenodd" d="M278,424h35v-.7H278v.7Z" class="g0_3"/>
<path fill-rule="evenodd" d="M313,424h.7v-.7H313v.7Z" class="g0_3"/>
<path fill-rule="evenodd" d="M313.7,424h55.5v-.7H313.7v.7Z" class="g0_3"/>
<path fill-rule="evenodd" d="M369.2,424h.7v-.7h-.7v.7Z" class="g0_3"/>
<path fill-rule="evenodd" d="M369.9,424h33.5v-.7H369.9v.7Z" class="g0_3"/>
<path fill-rule="evenodd" d="M403.4,424h.7v-.7h-.7v.7Z" class="g0_3"/>
<path fill-rule="evenodd" d="M404.1,424h71.8v-.7H404.1v.7Z" class="g0_3"/>
<path fill-rule="evenodd" d="M475.9,424h.7v-.7h-.7v.7Z" class="g0_3"/>
<path fill-rule="evenodd" d="M476.6,424h35.1v-.7H476.6v.7Z" class="g0_3"/>
<path fill-rule="evenodd" d="M511.7,424h.7v-.7h-.7v.7Z" class="g0_3"/>
<path fill-rule="evenodd" d="M512.4,424h73.5v-.7H512.4v.7Z" class="g0_3"/>
<path fill-rule="evenodd" d="M585.9,424h.7v-.7h-.7v.7Z" class="g0_3"/>
<path fill-rule="evenodd" d="M586.6,424h33.8v-.7H586.6v.7Z" class="g0_3"/>
<path fill-rule="evenodd" d="M620.4,424h.7v-.7h-.7v.7Z" class="g0_3"/>
<path fill-rule="evenodd" d="M621.1,424h65.3v-.7H621.1v.7Z" class="g0_3"/>
<path fill-rule="evenodd" d="M686.4,424h.7v-.7h-.7v.7Z" class="g0_3"/>
<path fill-rule="evenodd" d="M687.1,424h30.4v-.7H687.1v.7Z" class="g0_3"/>
<path fill-rule="evenodd" d="M717.5,424h.8v-.7h-.8v.7Z" class="g0_3"/>
<path fill-rule="evenodd" d="M718.3,424h105v-.7h-105v.7Z" class="g0_3"/>
<path fill-rule="evenodd" d="M823.3,424h.8v-.7h-.8v.7Z" class="g0_3"/>
<path fill-rule="evenodd" d="M824.1,424h32.1v-.7H824.1v.7Z" class="g0_3"/>
<path fill-rule="evenodd" d="M856.2,424h.7v-.7h-.7v.7Z" class="g0_3"/>
<path fill-rule="evenodd" d="M856.9,424h54.9v-.7H856.9v.7Z" class="g0_3"/>
<path fill-rule="evenodd" d="M911.8,424h.7v-.7h-.7v.7Z" class="g0_3"/>
<path fill-rule="evenodd" d="M911.8,424h.7v-.7h-.7v.7Z" class="g0_3"/>
<path fill-rule="evenodd" d="M34.7,563.8H912.2V563H34.7v.8Z" class="g0_3"/>
<path fill-rule="evenodd" d="M34.3,594.9H35v-.8h-.7v.8Z" class="g0_3"/>
<path fill-rule="evenodd" d="M34.3,594.9H35v-.8h-.7v.8Z" class="g0_3"/>
<path fill-rule="evenodd" d="M35,594.9h.7v-.8H35v.8Z" class="g0_3"/>
<path fill-rule="evenodd" d="M35.7,594.9H68.8v-.8H35.7v.8Z" class="g0_3"/>
<path fill-rule="evenodd" d="M68.8,594.9h.7v-.8h-.7v.8Z" class="g0_3"/>
<path fill-rule="evenodd" d="M69.5,594.9H179v-.8H69.5v.8Z" class="g0_3"/>
<path fill-rule="evenodd" d="M179,594.9h.7v-.8H179v.8Z" class="g0_3"/>
<path fill-rule="evenodd" d="M179.7,594.9h30.4v-.8H179.7v.8Z" class="g0_3"/>
<path fill-rule="evenodd" d="M210.1,594.9h.8v-.8h-.8v.8Z" class="g0_3"/>
<path fill-rule="evenodd" d="M210.9,594.9H326v-.8H210.9v.8Z" class="g0_3"/>
<path fill-rule="evenodd" d="M326,594.9h.7v-.8H326v.8Z" class="g0_3"/>
<path fill-rule="evenodd" d="M326.7,594.9h30.4v-.8H326.7v.8Z" class="g0_3"/>
<path fill-rule="evenodd" d="M357.1,594.9h.7v-.8h-.7v.8Z" class="g0_3"/>
<path fill-rule="evenodd" d="M357.8,594.9H473.1v-.8H357.8v.8Z" class="g0_3"/>
<path fill-rule="evenodd" d="M473.1,594.9h.8v-.8h-.8v.8Z" class="g0_3"/>
<path fill-rule="evenodd" d="M473.9,594.9h30.4v-.8H473.9v.8Z" class="g0_3"/>
<path fill-rule="evenodd" d="M504.3,594.9h.8v-.8h-.8v.8Z" class="g0_3"/>
<path fill-rule="evenodd" d="M505.1,594.9H619.4v-.8H505.1v.8Z" class="g0_3"/>
<path fill-rule="evenodd" d="M619.4,594.9h.7v-.8h-.7v.8Z" class="g0_3"/>
<path fill-rule="evenodd" d="M620.1,594.9h35.6v-.8H620.1v.8Z" class="g0_3"/>
<path fill-rule="evenodd" d="M655.7,594.9h.7v-.8h-.7v.8Z" class="g0_3"/>
<path fill-rule="evenodd" d="M656.4,594.9H768.6v-.8H656.4v.8Z" class="g0_3"/>
<path fill-rule="evenodd" d="M768.6,594.9h.7v-.8h-.7v.8Z" class="g0_3"/>
<path fill-rule="evenodd" d="M769.3,594.9H798v-.8H769.3v.8Z" class="g0_3"/>
<path fill-rule="evenodd" d="M798,594.9h.8v-.8H798v.8Z" class="g0_3"/>
<path fill-rule="evenodd" d="M798.8,594.9h113v-.8h-113v.8Z" class="g0_3"/>
<path fill-rule="evenodd" d="M911.8,594.9h.7v-.8h-.7v.8Z" class="g0_3"/>
<path fill-rule="evenodd" d="M34.3,620.2H35V594.9h-.7v25.3Z" class="g0_3"/>
<path fill-rule="evenodd" d="M179,620.2h.7V594.9H179v25.3Z" class="g0_3"/>
<path fill-rule="evenodd" d="M326,620.2h.7V594.9H326v25.3Z" class="g0_3"/>
<path fill-rule="evenodd" d="M473.1,620.2h.8V594.9h-.8v25.3Z" class="g0_3"/>
<path fill-rule="evenodd" d="M619.4,620.2h.7V594.9h-.7v25.3Z" class="g0_3"/>
<path fill-rule="evenodd" d="M768.6,620.2h.7V594.9h-.7v25.3Z" class="g0_3"/>
<path fill-rule="evenodd" d="M911.8,620.2h.7V594.9h-.7v25.3Z" class="g0_3"/>
<path fill-rule="evenodd" d="M34.3,621H35v-.8h-.7v.8Z" class="g0_3"/>
<path fill-rule="evenodd" d="M34.3,621H35v-.8h-.7v.8Z" class="g0_3"/>
<path fill-rule="evenodd" d="M35,621h.7v-.8H35v.8Z" class="g0_3"/>
<path fill-rule="evenodd" d="M35.7,621H68.8v-.8H35.7v.8Z" class="g0_3"/>
<path fill-rule="evenodd" d="M68.8,621h.7v-.8h-.7v.8Z" class="g0_3"/>
<path fill-rule="evenodd" d="M69.5,621H179v-.8H69.5v.8Z" class="g0_3"/>
<path fill-rule="evenodd" d="M179,621h.7v-.8H179v.8Z" class="g0_3"/>
<path fill-rule="evenodd" d="M179.7,621h30.4v-.8H179.7v.8Z" class="g0_3"/>
<path fill-rule="evenodd" d="M210.1,621h.8v-.8h-.8v.8Z" class="g0_3"/>
<path fill-rule="evenodd" d="M210.9,621H326v-.8H210.9v.8Z" class="g0_3"/>
<path fill-rule="evenodd" d="M326,621h.7v-.8H326v.8Z" class="g0_3"/>
<path fill-rule="evenodd" d="M326.7,621h30.4v-.8H326.7v.8Z" class="g0_3"/>
<path fill-rule="evenodd" d="M357.1,621h.7v-.8h-.7v.8Z" class="g0_3"/>
<path fill-rule="evenodd" d="M357.8,621H473.1v-.8H357.8v.8Z" class="g0_3"/>
<path fill-rule="evenodd" d="M473.1,621h.8v-.8h-.8v.8Z" class="g0_3"/>
<path fill-rule="evenodd" d="M473.9,621h30.4v-.8H473.9v.8Z" class="g0_3"/>
<path fill-rule="evenodd" d="M504.3,621h.8v-.8h-.8v.8Z" class="g0_3"/>
<path fill-rule="evenodd" d="M505.1,621H619.4v-.8H505.1v.8Z" class="g0_3"/>
<path fill-rule="evenodd" d="M619.4,621h.7v-.8h-.7v.8Z" class="g0_3"/>
<path fill-rule="evenodd" d="M620.1,621h35.6v-.8H620.1v.8Z" class="g0_3"/>
<path fill-rule="evenodd" d="M655.7,621h.7v-.8h-.7v.8Z" class="g0_3"/>
<path fill-rule="evenodd" d="M656.4,621H768.6v-.8H656.4v.8Z" class="g0_3"/>
<path fill-rule="evenodd" d="M768.6,621h.7v-.8h-.7v.8Z" class="g0_3"/>
<path fill-rule="evenodd" d="M769.3,621H798v-.8H769.3v.8Z" class="g0_3"/>
<path fill-rule="evenodd" d="M798,621h.8v-.8H798v.8Z" class="g0_3"/>
<path fill-rule="evenodd" d="M798.8,621h113v-.8h-113v.8Z" class="g0_3"/>
<path fill-rule="evenodd" d="M911.8,621h.7v-.8h-.7v.8Z" class="g0_3"/>
<path fill-rule="evenodd" d="M911.8,621h.7v-.8h-.7v.8Z" class="g0_3"/>
<path fill-rule="evenodd" d="M34.7,686.9H912.2v-.7H34.7v.7Z" class="g0_3"/>
<path fill-rule="evenodd" d="M34.3,718H35v-.7h-.7v.7Z" class="g0_3"/>
<path fill-rule="evenodd" d="M34.3,718H35v-.7h-.7v.7Z" class="g0_3"/>
<path fill-rule="evenodd" d="M35,718h.7v-.7H35v.7Z" class="g0_3"/>
<path fill-rule="evenodd" d="M35.7,718H142v-.7H35.7v.7Z" class="g0_3"/>
<path fill-rule="evenodd" d="M142,718h.7v-.7H142v.7Z" class="g0_3"/>
<path fill-rule="evenodd" d="M142.7,718h42.9v-.7H142.7v.7Z" class="g0_3"/>
<path fill-rule="evenodd" d="M185.6,718h.7v-.7h-.7v.7Z" class="g0_3"/>
<path fill-rule="evenodd" d="M186.3,718H911.8v-.7H186.3v.7Z" class="g0_3"/>
<path fill-rule="evenodd" d="M911.8,718h.7v-.7h-.7v.7Z" class="g0_3"/>
<path fill-rule="evenodd" d="M34.3,741.3H35V718h-.7v23.3Z" class="g0_3"/>
<path fill-rule="evenodd" d="M142,741.3h.7V718H142v23.3Z" class="g0_3"/>
<path fill-rule="evenodd" d="M185.6,741.3h.7V718h-.7v23.3Z" class="g0_3"/>
<path fill-rule="evenodd" d="M911.8,741.3h.7V718h-.7v23.3Z" class="g0_3"/>
<path fill-rule="evenodd" d="M34.3,742H35v-.7h-.7v.7Z" class="g0_3"/>
<path fill-rule="evenodd" d="M142,742h.7v-.7H142v.7Z" class="g0_3"/>
<path fill-rule="evenodd" d="M142.7,742h42.9v-.7H142.7v.7Z" class="g0_3"/>
<path fill-rule="evenodd" d="M185.6,742h.7v-.7h-.7v.7Z" class="g0_3"/>
<path fill-rule="evenodd" d="M186.3,742H911.8v-.7H186.3v.7Z" class="g0_3"/>
<path fill-rule="evenodd" d="M911.8,742h.7v-.7h-.7v.7Z" class="g0_3"/>
<path fill-rule="evenodd" d="M34.3,765.2H35V742h-.7v23.2Z" class="g0_3"/>
<path fill-rule="evenodd" d="M142,765.2h.7V742H142v23.2Z" class="g0_3"/>
<path fill-rule="evenodd" d="M185.6,765.2h.7V742h-.7v23.2Z" class="g0_3"/>
<path fill-rule="evenodd" d="M911.8,765.2h.7V742h-.7v23.2Z" class="g0_3"/>
<path fill-rule="evenodd" d="M34.3,765.9H35v-.7h-.7v.7Z" class="g0_3"/>
<path fill-rule="evenodd" d="M142,765.9h.7v-.7H142v.7Z" class="g0_3"/>
<path fill-rule="evenodd" d="M142.7,765.9h42.9v-.7H142.7v.7Z" class="g0_3"/>
<path fill-rule="evenodd" d="M185.6,765.9h.7v-.7h-.7v.7Z" class="g0_3"/>
<path fill-rule="evenodd" d="M186.3,765.9H911.8v-.7H186.3v.7Z" class="g0_3"/>
<path fill-rule="evenodd" d="M911.8,765.9h.7v-.7h-.7v.7Z" class="g0_3"/>
<path fill-rule="evenodd" d="M34.3,789.2H35V765.9h-.7v23.3Z" class="g0_3"/>
<path fill-rule="evenodd" d="M142,789.2h.7V765.9H142v23.3Z" class="g0_3"/>
<path fill-rule="evenodd" d="M185.6,789.2h.7V765.9h-.7v23.3Z" class="g0_3"/>
<path fill-rule="evenodd" d="M911.8,789.2h.7V765.9h-.7v23.3Z" class="g0_3"/>
<path fill-rule="evenodd" d="M34.3,790H35v-.8h-.7v.8Z" class="g0_3"/>
<path fill-rule="evenodd" d="M142,790h.7v-.8H142v.8Z" class="g0_3"/>
<path fill-rule="evenodd" d="M142.7,790h42.9v-.8H142.7v.8Z" class="g0_3"/>
<path fill-rule="evenodd" d="M185.6,790h.7v-.8h-.7v.8Z" class="g0_3"/>
<path fill-rule="evenodd" d="M186.3,790H911.8v-.8H186.3v.8Z" class="g0_3"/>
<path fill-rule="evenodd" d="M911.8,790h.7v-.8h-.7v.8Z" class="g0_3"/>
<path fill-rule="evenodd" d="M34.3,827.3H35V790h-.7v37.3Z" class="g0_3"/>
<path fill-rule="evenodd" d="M142,827.3h.7V790H142v37.3Z" class="g0_3"/>
<path fill-rule="evenodd" d="M185.6,827.3h.7V790h-.7v37.3Z" class="g0_3"/>
<path fill-rule="evenodd" d="M911.8,827.3h.7V790h-.7v37.3Z" class="g0_3"/>
<path fill-rule="evenodd" d="M34.3,828H35v-.7h-.7v.7Z" class="g0_3"/>
<path fill-rule="evenodd" d="M35,828H142v-.7H35v.7Z" class="g0_3"/>
<path fill-rule="evenodd" d="M142,828h.7v-.7H142v.7Z" class="g0_3"/>
<path fill-rule="evenodd" d="M142.7,828h42.9v-.7H142.7v.7Z" class="g0_3"/>
<path fill-rule="evenodd" d="M185.6,828h.7v-.7h-.7v.7Z" class="g0_3"/>
<path fill-rule="evenodd" d="M186.3,828H911.8v-.7H186.3v.7Z" class="g0_3"/>
<path fill-rule="evenodd" d="M911.8,828h.7v-.7h-.7v.7Z" class="g0_3"/>
<path fill-rule="evenodd" d="M34.3,851.3H35V828h-.7v23.3Z" class="g0_3"/>
<path fill-rule="evenodd" d="M142,851.3h.7V828H142v23.3Z" class="g0_3"/>
<path fill-rule="evenodd" d="M185.6,851.3h.7V828h-.7v23.3Z" class="g0_3"/>
<path fill-rule="evenodd" d="M911.8,851.3h.7V828h-.7v23.3Z" class="g0_3"/>
<path fill-rule="evenodd" d="M34.3,852H35v-.7h-.7v.7Z" class="g0_3"/>
<path fill-rule="evenodd" d="M142,852h.7v-.7H142v.7Z" class="g0_3"/>
<path fill-rule="evenodd" d="M142.7,852h42.9v-.7H142.7v.7Z" class="g0_3"/>
<path fill-rule="evenodd" d="M185.6,852h.7v-.7h-.7v.7Z" class="g0_3"/>
<path fill-rule="evenodd" d="M186.3,852H911.8v-.7H186.3v.7Z" class="g0_3"/>
<path fill-rule="evenodd" d="M911.8,852h.7v-.7h-.7v.7Z" class="g0_3"/>
<path fill-rule="evenodd" d="M34.3,875.2H35V852h-.7v23.2Z" class="g0_3"/>
<path fill-rule="evenodd" d="M142,875.2h.7V852H142v23.2Z" class="g0_3"/>
<path fill-rule="evenodd" d="M185.6,875.2h.7V852h-.7v23.2Z" class="g0_3"/>
<path fill-rule="evenodd" d="M911.8,875.2h.7V852h-.7v23.2Z" class="g0_3"/>
<path fill-rule="evenodd" d="M34.3,875.9H35v-.7h-.7v.7Z" class="g0_3"/>
<path fill-rule="evenodd" d="M34.3,875.9H35v-.7h-.7v.7Z" class="g0_3"/>
<path fill-rule="evenodd" d="M35,875.9h.7v-.7H35v.7Z" class="g0_3"/>
<path fill-rule="evenodd" d="M35.7,875.9H142v-.7H35.7v.7Z" class="g0_3"/>
<path fill-rule="evenodd" d="M142,875.9h.7v-.7H142v.7Z" class="g0_3"/>
<path fill-rule="evenodd" d="M142.7,875.9h42.9v-.7H142.7v.7Z" class="g0_3"/>
<path fill-rule="evenodd" d="M185.6,875.9h.7v-.7h-.7v.7Z" class="g0_3"/>
<path fill-rule="evenodd" d="M186.3,875.9H911.8v-.7H186.3v.7Z" class="g0_3"/>
<path fill-rule="evenodd" d="M911.8,875.9h.7v-.7h-.7v.7Z" class="g0_3"/>
<path fill-rule="evenodd" d="M911.8,875.9h.7v-.7h-.7v.7Z" class="g0_3"/>
<path fill-rule="evenodd" d="M34.7,907H912.2v-.7H34.7v.7Z" class="g0_3"/>
<path fill-rule="evenodd" d="M34.7,931H912.2v-.7H34.7v.7Z" class="g0_3"/>
<path fill-rule="evenodd" d="M34.7,955H912.2v-.7H34.7v.7Z" class="g0_3"/>
<path fill-rule="evenodd" d="M34.7,1018.3H912.2v-.7H34.7v.7Z" class="g0_3"/>
<path fill-rule="evenodd" d="M34.3,1049.4H35v-.8h-.7v.8Z" class="g0_3"/>
<path fill-rule="evenodd" d="M34.3,1049.4H35v-.8h-.7v.8Z" class="g0_3"/>
<path fill-rule="evenodd" d="M35,1049.4h.7v-.8H35v.8Z" class="g0_3"/>
<path fill-rule="evenodd" d="M35.7,1049.4H65.3v-.8H35.7v.8Z" class="g0_3"/>
<path fill-rule="evenodd" d="M65.3,1049.4H66v-.8h-.7v.8Z" class="g0_3"/>
<path fill-rule="evenodd" d="M66,1049.4H254.2v-.8H66v.8Z" class="g0_3"/>
<path fill-rule="evenodd" d="M254.2,1049.4h.8v-.8h-.8v.8Z" class="g0_3"/>
<path fill-rule="evenodd" d="M255,1049.4h33v-.8H255v.8Z" class="g0_3"/>
<path fill-rule="evenodd" d="M288,1049.4h.8v-.8H288v.8Z" class="g0_3"/>
<path fill-rule="evenodd" d="M288.8,1049.4H474.5v-.8H288.8v.8Z" class="g0_3"/>
<path fill-rule="evenodd" d="M474.5,1049.4h.7v-.8h-.7v.8Z" class="g0_3"/>
<path fill-rule="evenodd" d="M475.2,1049.4h32.4v-.8H475.2v.8Z" class="g0_3"/>
<path fill-rule="evenodd" d="M507.6,1049.4h.8v-.8h-.8v.8Z" class="g0_3"/>
<path fill-rule="evenodd" d="M508.4,1049.4H694.9v-.8H508.4v.8Z" class="g0_3"/>
<path fill-rule="evenodd" d="M694.9,1049.4h.7v-.8h-.7v.8Z" class="g0_3"/>
<path fill-rule="evenodd" d="M695.6,1049.4h33.1v-.8H695.6v.8Z" class="g0_3"/>
<path fill-rule="evenodd" d="M728.7,1049.4h.8v-.8h-.8v.8Z" class="g0_3"/>
<path fill-rule="evenodd" d="M729.5,1049.4H911.8v-.8H729.5v.8Z" class="g0_3"/>
<path fill-rule="evenodd" d="M911.8,1049.4h.7v-.8h-.7v.8Z" class="g0_3"/>
<path fill-rule="evenodd" d="M34.3,1074.8H35v-25.4h-.7v25.4Z" class="g0_3"/>
<path fill-rule="evenodd" d="M254.2,1074.8h.8v-25.4h-.8v25.4Z" class="g0_3"/>
<path fill-rule="evenodd" d="M474.5,1074.8h.7v-25.4h-.7v25.4Z" class="g0_3"/>
<path fill-rule="evenodd" d="M694.9,1074.8h.7v-25.4h-.7v25.4Z" class="g0_3"/>
<path fill-rule="evenodd" d="M911.8,1074.8h.7v-25.4h-.7v25.4Z" class="g0_3"/>
<path fill-rule="evenodd" d="M34.3,1075.5H35v-.7h-.7v.7Z" class="g0_3"/>
<path fill-rule="evenodd" d="M35,1075.5H65.3v-.7H35v.7Z" class="g0_3"/>
<path fill-rule="evenodd" d="M65.3,1075.5H66v-.7h-.7v.7Z" class="g0_3"/>
<path fill-rule="evenodd" d="M66,1075.5H218.6v-.7H66v.7Z" class="g0_3"/>
<path fill-rule="evenodd" d="M218.6,1075.5h.7v-.7h-.7v.7Z" class="g0_3"/>
<path fill-rule="evenodd" d="M219.3,1075.5h34.9v-.7H219.3v.7Z" class="g0_3"/>
<path fill-rule="evenodd" d="M254.2,1075.5h.8v-.7h-.8v.7Z" class="g0_3"/>
<path fill-rule="evenodd" d="M255,1075.5h33v-.7H255v.7Z" class="g0_3"/>
<path fill-rule="evenodd" d="M288,1075.5h.8v-.7H288v.7Z" class="g0_3"/>
<path fill-rule="evenodd" d="M288.8,1075.5H474.5v-.7H288.8v.7Z" class="g0_3"/>
<path fill-rule="evenodd" d="M474.5,1075.5h.7v-.7h-.7v.7Z" class="g0_3"/>
<path fill-rule="evenodd" d="M475.2,1075.5h32.4v-.7H475.2v.7Z" class="g0_3"/>
<path fill-rule="evenodd" d="M507.6,1075.5h.8v-.7h-.8v.7Z" class="g0_3"/>
<path fill-rule="evenodd" d="M508.4,1075.5H694.9v-.7H508.4v.7Z" class="g0_3"/>
<path fill-rule="evenodd" d="M694.9,1075.5h.7v-.7h-.7v.7Z" class="g0_3"/>
<path fill-rule="evenodd" d="M695.6,1075.5h33.1v-.7H695.6v.7Z" class="g0_3"/>
<path fill-rule="evenodd" d="M728.7,1075.5h.8v-.7h-.8v.7Z" class="g0_3"/>
<path fill-rule="evenodd" d="M729.5,1075.5H911.8v-.7H729.5v.7Z" class="g0_3"/>
<path fill-rule="evenodd" d="M911.8,1075.5h.7v-.7h-.7v.7Z" class="g0_3"/>
<path fill-rule="evenodd" d="M34.3,1098.8H35v-23.3h-.7v23.3Z" class="g0_3"/>
<path fill-rule="evenodd" d="M218.6,1098.8h.7v-23.3h-.7v23.3Z" class="g0_3"/>
<path fill-rule="evenodd" d="M911.8,1098.8h.7v-23.3h-.7v23.3Z" class="g0_3"/>
<path fill-rule="evenodd" d="M34.3,1099.5H35v-.7h-.7v.7Z" class="g0_3"/>
<path fill-rule="evenodd" d="M34.3,1099.5H35v-.7h-.7v.7Z" class="g0_3"/>
<path fill-rule="evenodd" d="M35,1099.5h.7v-.7H35v.7Z" class="g0_3"/>
<path fill-rule="evenodd" d="M35.7,1099.5H218.6v-.7H35.7v.7Z" class="g0_3"/>
<path fill-rule="evenodd" d="M218.6,1099.5h.7v-.7h-.7v.7Z" class="g0_3"/>
<path fill-rule="evenodd" d="M219.3,1099.5H911.8v-.7H219.3v.7Z" class="g0_3"/>
<path fill-rule="evenodd" d="M911.8,1099.5h.7v-.7h-.7v.7Z" class="g0_3"/>
<path fill-rule="evenodd" d="M911.8,1099.5h.7v-.7h-.7v.7Z" class="g0_3"/>
</svg>